SplineFontDB: 3.2
FontName: Grotesk-04Gras-Italic
FullName: Grotesk 04 Gras Italic
FamilyName: Grotesk
Weight: Gras
Copyright: Copyright \\(c\\) 2010-2023 by Frank Adebiaye. Certains droits r_serv_s
Version: 003.000
ItalicAngle: 0
UnderlinePosition: -125
UnderlineWidth: 50
Ascent: 800
Descent: 200
InvalidEm: 0
sfntRevision: 0x00030000
LayerCount: 2
Layer: 0 0 "Arri+AOgA-re" 1
Layer: 1 0 "Avant" 0
XUID: [1021 92 -1557539766 11798075]
StyleMap: 0x0020
FSType: 8
OS2Version: 4
OS2_WeightWidthSlopeOnly: 0
OS2_UseTypoMetrics: 1
CreationTime: 1673544023
ModificationTime: 1746203699
PfmFamily: 81
TTFWeight: 500
TTFWidth: 5
LineGap: 90
VLineGap: 0
Panose: 0 0 0 0 0 0 0 0 0 0
OS2TypoAscent: 800
OS2TypoAOffset: 0
OS2TypoDescent: -200
OS2TypoDOffset: 0
OS2TypoLinegap: 90
OS2WinAscent: 1000
OS2WinAOffset: 0
OS2WinDescent: 200
OS2WinDOffset: 0
HheadAscent: 1000
HheadAOffset: 0
HheadDescent: -200
HheadDOffset: 0
OS2SubXSize: 650
OS2SubYSize: 600
OS2SubXOff: 0
OS2SubYOff: 75
OS2SupXSize: 650
OS2SupYSize: 600
OS2SupXOff: 0
OS2SupYOff: 350
OS2StrikeYSize: 50
OS2StrikeYPos: 260
OS2CapHeight: 650
OS2XHeight: 520
OS2Vendor: 'VTF '
OS2CodePages: 20000097.00000000
OS2UnicodeRanges: a000026f.00002042.00000000.00000004
Lookup: 1 0 0 "'aalt' Access All Alternates in Latin lookup 0" { "'aalt' Access All Alternates in Latin lookup 0 subtable"  } ['aalt' ('DFLT' <'dflt' > 'latn' <'AZE ' 'CAT ' 'CRT ' 'KAZ ' 'MOL ' 'NLD ' 'ROM ' 'TAT ' 'TRK ' 'dflt' > ) ]
Lookup: 3 0 0 "'aalt' Access All Alternates in Latin lookup 1" { "'aalt' Access All Alternates in Latin lookup 1 subtable"  } ['aalt' ('DFLT' <'dflt' > 'latn' <'AZE ' 'CAT ' 'CRT ' 'KAZ ' 'MOL ' 'NLD ' 'ROM ' 'TAT ' 'TRK ' 'dflt' > ) ]

StartChar: .notdef
Encoding: 65536 -1 0
Width: 910
GlyphClass: 1
Flags: W
HStem: -150 15<-4 7> -110 10<139 172 181 197> -60 10<60 116 148 181> 0 10<155 209 248 302 411 464 727 736 778 832> 30 10<78 81 90 97 334 336 346 353 720 722> 45 10<166 200 421 456 598 619 628 654 789 824> 60 10<71 74 111 118 327 329 367 374 713 715> 90 10<55 67 132 146 174 229 311 322 388 401 429 485 506 536 546 578 699 708 797 853> 150 10<83 132 167 218 311 320 534 583> 180 10<304 306 432 439 448 490 499 501> 210 10<297 299 452 459 492 494> 240 10<101 152 185 236 283 292 364 394 404 436 473 487 552 604 624 655 664 697> 300 10<201 252 448 459 666 720 787 838> 330 10<431 443 571 573 582 589> 340 10<308 341 350 366 894 927 936 952> 345 10<128 163 412 423 677 711> 360 10<436 452 564 566 603 610> 390 10<136 192 220 271 317 350 466 480 550 559 624 633 685 740 806 857 903 936> 435 30<973 979> 450 10<152 180 189 217 417 426 705 757 896 950> 480 10<264 271 280 322 331 333 410 412 615 617 626 633> 490 10<808 840 850 866> 510 10<285 292 324 326 403 405 608 610 647 654> 540 10<305 319 389 398 475 505 515 547 594 603 668 677 724 775 817 849 915 970> 600 10<419 470 517 573> 645 10<234 269 327 348 358 383> 690 10<242 298 438 489>
VStem: -7 14<-150 -135> 330 9<0 30> 341 9<350 367.778 600 622.5> 972 14<450 465>
LayerCount: 2
Fore
SplineSet
631 700 m 1xfff8c3fe
 1045 700 l 1
 1021 600 l 1
 608 600 l 1
 631 700 l 1xfff8c3fe
-7 -150 m 1
 -4 -135 l 1
 10 -135 l 1
 7 -150 l 1
 -7 -150 l 1
53 90 m 1
 55 100 l 1
 78 100 l 1
 71 70 l 1
 85 70 l 1
 78 40 l 1
 97 40 l 1
 104 70 l 1
 118 70 l 1
 125 100 l 1
 148 100 l 1
 146 90 l 1
 132 90 l 1
 125 60 l 1
 111 60 l 1
 104 30 l 1
 90 30 l 1
 83 0 l 1
 74 0 l 1
 81 30 l 1
 67 30 l 1
 74 60 l 1
 60 60 l 1
 67 90 l 1
 53 90 l 1
71 150 m 1
 94 250 l 1
 155 250 l 1
 152 240 l 1
 101 240 l 1
 83 160 l 1
 134 160 l 1
 132 150 l 1
 71 150 l 1
106 300 m 1
 129 400 l 1
 194 400 l 1
 192 390 l 1
 136 390 l 1
 128 355 l 1
 165 355 l 1
 163 345 l 1
 126 345 l 1xfff9c3fe
 115 300 l 1
 106 300 l 1
140 450 m 1xfff8d3fe
 164 550 l 1
 173 550 l 1
 152 460 l 1
 180 460 l 1
 193 515 l 1
 202 515 l 1
 189 460 l 1
 217 460 l 1
 238 550 l 1
 247 550 l 1
 224 450 l 1
 140 450 l 1xfff8d3fe
175 600 m 1
 198 700 l 1
 208 700 l 1
 184 600 l 1
 175 600 l 1
30 -150 m 1
 53 -50 l 1
 118 -50 l 1
 116 -60 l 1
 60 -60 l 1
 52 -95 l 1
 89 -95 l 1
 87 -105 l 1
 50 -105 l 1
 39 -150 l 1
 30 -150 l 1
212 600 m 1
 235 700 l 1
 301 700 l 1
 298 690 l 1
 242 690 l 1
 234 655 l 1
 272 655 l 1
 269 645 l 1
 232 645 l 1
 222 600 l 1
 212 600 l 1
155 150 m 1
 178 250 l 1
 248 250 l 1
 225 150 l 1
 155 150 l 1
190 300 m 1
 213 400 l 1
 282 400 l 1
 259 300 l 1
 190 300 l 1
167 160 m 1
 218 160 l 1
 236 240 l 1
 185 240 l 1
 167 160 l 1
201 310 m 1
 252 310 l 1
 271 390 l 1
 220 390 l 1
 201 310 l 1
144 0 m 1
 167 100 l 1
 232 100 l 1
 229 90 l 1
 174 90 l 1
 166 55 l 1
 203 55 l 1
 200 45 l 1
 163 45 l 1
 155 10 l 1
 211 10 l 1
 209 0 l 1
 144 0 l 1
247 450 m 1
 257 490 l 1xfff8d7fe
 271 490 l 1
 278 520 l 1
 292 520 l 1
 298 550 l 1
 331 550 l 1
 324 520 l 1
 338 520 l 1
 331 490 l 1xfff8cbfe
 345 490 l 1xfff8c7fe
 336 450 l 1
 326 450 l 1
 333 480 l 1
 264 480 l 1xfff8dbfe
 257 450 l 1
 247 450 l 1
118 -150 m 1
 141 -50 l 1
 192 -50 l 1
 181 -100 l 1
 209 -100 l 1
 197 -150 l 1
 188 -150 l 1
 197 -110 l 1
 137 -110 l 1
 128 -150 l 1
 118 -150 l 1
139 -100 m 1
 172 -100 l 1
 181 -60 l 1
 148 -60 l 1
 139 -100 l 1
280 490 m 1xfff8cbfe
 322 490 l 1
 326 510 l 1
 312 510 l 1
 319 540 l 1
 305 540 l 1
 298 510 l 1
 285 510 l 1
 280 490 l 1xfff8cbfe
316 645 m 1
 328 700 l 1
 338 700 l 1
 327 655 l 1
 383 655 l 1
 394 700 l 1
 403 700 l 1
 390 645 l 1
 358 645 l 1
 347 600 l 1
 338 600 l 1
 348 645 l 1
 316 645 l 1
253 150 m 1
 276 250 l 1
 304 250 l 1
 297 220 l 1
 311 220 l 1
 304 190 l 1
 318 190 l 1
 311 160 l 1
 320 160 l 1
 341 250 l 1
 350 250 l 1
 327 150 l 1
 299 150 l 1
 306 180 l 1
 292 180 l 1
 299 210 l 1
 285 210 l 1
 292 240 l 1
 283 240 l 1
 262 150 l 1
 253 150 l 1
287 300 m 1
 310 400 l 1
 361 400 l 1
 350 350 l 1
 378 350 l 1
 366 300 l 1
 357 300 l 1
 366 340 l 1
 306 340 l 1xfffac3fe
 297 300 l 1
 287 300 l 1
308 350 m 1
 341 350 l 1
 350 390 l 1
 317 390 l 1
 308 350 l 1
237 0 m 1
 260 100 l 1
 269 100 l 1
 248 10 l 1
 304 10 l 1
 302 0 l 1
 237 0 l 1
359 450 m 1xfff8dbfe
 382 550 l 1
 410 550 l 1
 403 520 l 1
 417 520 l 1
 410 490 l 1xfff8dbfe
 424 490 l 1xfff8c7fe
 417 460 l 1
 426 460 l 1
 447 550 l 1
 457 550 l 1
 433 450 l 1
 406 450 l 1
 412 480 l 1
 399 480 l 1
 405 510 l 1
 391 510 l 1
 398 540 l 1
 389 540 l 1
 368 450 l 1
 359 450 l 1xfff8dbfe
230 -150 m 1
 253 -50 l 1
 871 -50 l 1
 848 -150 l 1
 230 -150 l 1
408 600 m 1
 431 700 l 1
 500 700 l 1
 477 600 l 1
 408 600 l 1
419 610 m 1
 470 610 l 1
 489 690 l 1
 438 690 l 1
 419 610 l 1
308 90 m 1
 311 100 l 1
 334 100 l 1
 327 70 l 1
 341 70 l 1
 334 40 l 1
 353 40 l 1
 360 70 l 1
 374 70 l 1
 381 100 l 1
 404 100 l 1
 401 90 l 1
 388 90 l 1
 381 60 l 1
 367 60 l 1
 360 30 l 1
 346 30 l 1
 339 0 l 1
 330 0 l 1
 336 30 l 1
 323 30 l 1
 329 60 l 1
 316 60 l 1
 322 90 l 1
 308 90 l 1
362 240 m 1
 364 250 l 1
 438 250 l 1
 436 240 l 1
 404 240 l 1
 383 150 l 1
 373 150 l 1
 394 240 l 1
 362 240 l 1
390 300 m 1
 413 400 l 1
 422 400 l 1
 412 355 l 1
 425 355 l 1
 429 370 l 1
 452 370 l 1
 459 400 l 1
 482 400 l 1
 480 390 l 1
 466 390 l 1
 459 360 l 1
 436 360 l 1
 431 340 l 1xfffdc3fe
 455 340 l 1xfffac3fe
 448 310 l 1
 462 310 l 1
 459 300 l 1
 436 300 l 1
 443 330 l 1
 420 330 l 1
 423 345 l 1
 409 345 l 1xfffdc3fe
 399 300 l 1
 390 300 l 1
473 540 m 1
 475 550 l 1
 550 550 l 1
 547 540 l 1
 515 540 l 1
 494 450 l 1
 485 450 l 1xfff8d3fe
 505 540 l 1
 473 540 l 1
505 600 m 1
 528 700 l 1
 538 700 l 1
 517 610 l 1
 573 610 l 1
 593 700 l 1
 603 700 l 1
 580 600 l 1
 505 600 l 1
415 150 m 1
 425 190 l 1
 439 190 l 1
 445 220 l 1
 459 220 l 1
 466 250 l 1
 499 250 l 1
 492 220 l 1
 506 220 l 1
 499 190 l 1
 513 190 l 1
 504 150 l 1
 494 150 l 1
 501 180 l 1
 432 180 l 1
 425 150 l 1
 415 150 l 1
399 0 m 1
 422 100 l 1
 487 100 l 1
 485 90 l 1
 429 90 l 1
 421 55 l 1
 458 55 l 1
 456 45 l 1
 419 45 l 1
 411 10 l 1
 467 10 l 1
 464 0 l 1
 399 0 l 1
448 190 m 1
 490 190 l 1
 494 210 l 1
 480 210 l 1
 487 240 l 1
 473 240 l 1
 466 210 l 1
 452 210 l 1
 448 190 l 1
520 300 m 1
 543 400 l 1
 571 400 l 1
 564 370 l 1
 578 370 l 1
 571 340 l 1
 589 340 l 1
 596 370 l 1
 610 370 l 1
 617 400 l 1
 645 400 l 1
 622 300 l 1
 613 300 l 1
 633 390 l 1
 624 390 l 1
 617 360 l 1
 603 360 l 1
 596 330 l 1
 582 330 l 1
 576 300 l 1
 566 300 l 1
 573 330 l 1
 559 330 l 1xfffcc3fe
 566 360 l 1
 552 360 l 1
 559 390 l 1
 550 390 l 1
 529 300 l 1
 520 300 l 1
564 450 m 1xfff8dbfe
 587 550 l 1
 615 550 l 1
 608 520 l 1
 622 520 l 1
 615 490 l 1
 633 490 l 1
 640 520 l 1
 654 520 l 1
 661 550 l 1
 689 550 l 1
 666 450 l 1
 657 450 l 1
 677 540 l 1
 668 540 l 1
 661 510 l 1
 647 510 l 1
 640 480 l 1
 626 480 l 1
 619 450 l 1
 610 450 l 1
 617 480 l 1
 603 480 l 1
 610 510 l 1
 596 510 l 1
 603 540 l 1
 594 540 l 1
 573 450 l 1
 564 450 l 1xfff8dbfe
504 90 m 1
 506 100 l 1
 580 100 l 1
 578 90 l 1
 546 90 l 1
 525 0 l 1
 516 0 l 1
 536 90 l 1
 504 90 l 1
522 150 m 1
 545 250 l 1
 606 250 l 1
 604 240 l 1
 552 240 l 1
 534 160 l 1
 585 160 l 1
 583 150 l 1
 522 150 l 1
622 240 m 1
 624 250 l 1
 699 250 l 1
 697 240 l 1
 664 240 l 1
 643 150 l 1
 634 150 l 1
 655 240 l 1
 622 240 l 1
586 45 m 1
 599 100 l 1
 608 100 l 1
 598 55 l 1
 654 55 l 1
 664 100 l 1
 673 100 l 1
 661 45 l 1
 628 45 l 1
 618 0 l 1
 609 0 l 1
 619 45 l 1
 586 45 l 1
655 300 m 1
 678 400 l 1
 743 400 l 1
 740 390 l 1
 685 390 l 1
 677 355 l 1
 714 355 l 1
 711 345 l 1
 674 345 l 1xfff9c3fe
 666 310 l 1
 722 310 l 1
 720 300 l 1
 655 300 l 1
694 450 m 1xfff8d3fe
 717 550 l 1
 787 550 l 1
 764 450 l 1
 694 450 l 1xfff8d3fe
705 460 m 1
 757 460 l 1
 775 540 l 1
 724 540 l 1
 705 460 l 1
694 150 m 1
 717 250 l 1
 941 250 l 1
 918 150 l 1
 694 150 l 1
669 0 m 1
 692 100 l 1
 720 100 l 1
 713 70 l 1
 727 70 l 1
 720 40 l 1
 734 40 l 1
 727 10 l 1
 736 10 l 1
 757 100 l 1
 766 100 l 1
 743 0 l 1
 715 0 l 1
 722 30 l 1
 708 30 l 1
 715 60 l 1
 701 60 l 1
 708 90 l 1
 699 90 l 1
 678 0 l 1
 669 0 l 1
787 450 m 1
 810 550 l 1
 861 550 l 1
 850 500 l 1
 877 500 l 1
 866 450 l 1
 857 450 l 1
 866 490 l 1
 805 490 l 1xfff8d7fe
 796 450 l 1
 787 450 l 1
808 500 m 1
 840 500 l 1
 849 540 l 1
 817 540 l 1
 808 500 l 1
775 300 m 1
 799 400 l 1
 868 400 l 1
 845 300 l 1
 775 300 l 1
787 310 m 1
 838 310 l 1
 857 390 l 1
 806 390 l 1
 787 310 l 1
767 0 m 1
 790 100 l 1
 855 100 l 1
 853 90 l 1
 797 90 l 1
 789 55 l 1
 826 55 l 1
 824 45 l 1
 786 45 l 1
 778 10 l 1
 834 10 l 1
 832 0 l 1
 767 0 l 1
884 450 m 1
 908 550 l 1
 973 550 l 1
 970 540 l 1
 915 540 l 1
 906 505 l 1
 944 505 l 1
 941 495 l 1
 904 495 l 1
 896 460 l 1
 952 460 l 1
 950 450 l 1
 884 450 l 1
873 300 m 1
 896 400 l 1
 947 400 l 1
 936 350 l 1
 964 350 l 1
 952 300 l 1
 943 300 l 1
 952 340 l 1
 892 340 l 1xfffac3fe
 882 300 l 1
 873 300 l 1
894 350 m 1
 927 350 l 1
 936 390 l 1
 903 390 l 1
 894 350 l 1
968 450 m 1xfff8d3fe
 972 465 l 1
 986 465 l 1
 979 435 l 1
 969 435 l 1xfff8e3fe
 973 450 l 1
 968 450 l 1xfff8d3fe
EndSplineSet
Validated: 1
EndChar

StartChar: A
Encoding: 65 65 2
Width: 593
GlyphClass: 2
Flags: HMW
AnchorPoint: "Anchor-7" 320 650 basechar 0
AnchorPoint: "Anchor-6" 548 0 basechar 0
AnchorPoint: "Anchor-5" 320 0 basechar 0
LayerCount: 2
Fore
SplineSet
548 0 m 1
 441 0 l 1
 436 158 l 1
 236 158 l 1
 158 0 l 1
 46 0 l 1
 376 650 l 1
 526 650 l 1
 548 0 l 1
295 273 m 1
 434 273 l 1
 427 539 l 1
 295 273 l 1
EndSplineSet
Validated: 1
EndChar

StartChar: Aacute
Encoding: 193 193 3
Width: 593
GlyphClass: 2
Flags: HMW
AnchorPoint: "Anchor-7" 320 810 basechar 0
AnchorPoint: "Anchor-6" 548 0 basechar 0
AnchorPoint: "Anchor-5" 320 0 basechar 0
LayerCount: 2
Fore
SplineSet
548 0 m 1
 441 0 l 1
 436 158 l 1
 236 158 l 1
 158 0 l 1
 46 0 l 1
 376 650 l 1
 526 650 l 1
 548 0 l 1
295 273 m 1
 434 273 l 1
 427 539 l 1
 295 273 l 1
409 710 m 1
 484 810 l 1
 591 810 l 1
 516 710 l 1
 409 710 l 1
EndSplineSet
Validated: 1
EndChar

StartChar: Abreve
Encoding: 258 258 4
Width: 593
GlyphClass: 2
Flags: HMW
AnchorPoint: "Anchor-7" 320 801 basechar 0
AnchorPoint: "Anchor-6" 548 0 basechar 0
AnchorPoint: "Anchor-5" 320 0 basechar 0
LayerCount: 2
Fore
SplineSet
548 0 m 1xe0
 441 0 l 1
 436 158 l 1
 236 158 l 1
 158 0 l 1
 46 0 l 1
 376 650 l 1
 526 650 l 1
 548 0 l 1xe0
389 801 m 1
 463 801 l 1
 460 790 467 781 477 781 c 0
 487 781 497 790 500 801 c 1
 574 801 l 1
 560 740 513 700 458 700 c 0xd0
 412.457042141 700 385.427256938 727.426922454 385.427256938 771.493058135 c 0
 385.427256938 780.643436629 386.59275291 790.511280535 389 801 c 1
295 273 m 1
 434 273 l 1
 427 539 l 1
 295 273 l 1
EndSplineSet
Validated: 524289
EndChar

StartChar: Acircumflex
Encoding: 194 194 5
Width: 593
GlyphClass: 2
Flags: HMW
AnchorPoint: "Anchor-7" 320 800 basechar 0
AnchorPoint: "Anchor-6" 548 0 basechar 0
AnchorPoint: "Anchor-5" 320 0 basechar 0
LayerCount: 2
Fore
SplineSet
548 0 m 1
 441 0 l 1
 436 158 l 1
 236 158 l 1
 158 0 l 1
 46 0 l 1
 376 650 l 1
 526 650 l 1
 548 0 l 1
344 711 m 1
 473 800 l 1
 490 800 l 1
 577 711 l 1
 470 711 l 1
 463 720 l 1
 451 711 l 1
 344 711 l 1
295 273 m 1
 434 273 l 1
 427 539 l 1
 295 273 l 1
EndSplineSet
Validated: 1
EndChar

StartChar: Adieresis
Encoding: 196 196 6
Width: 593
GlyphClass: 2
Flags: HMW
AnchorPoint: "Anchor-7" 320 831 basechar 0
AnchorPoint: "Anchor-6" 548 0 basechar 0
AnchorPoint: "Anchor-5" 320 0 basechar 0
LayerCount: 2
Fore
SplineSet
548 0 m 1
 441 0 l 1
 436 158 l 1
 236 158 l 1
 158 0 l 1
 46 0 l 1
 376 650 l 1
 526 650 l 1
 548 0 l 1
344 771 m 0
 352 805 382 831 414 831 c 0
 440.88850442 831 457.892357103 812.64278963 457.892357103 786.607170307 c 0
 457.892357103 781.657807896 457.277873895 776.430964054 456 771 c 0
 448 737 418 711 386 711 c 0
 359.11149558 711 342.107642897 729.35721037 342.107642897 755.392829693 c 0
 342.107642897 760.342192104 342.722126105 765.569035946 344 771 c 0
295 273 m 1
 434 273 l 1
 427 539 l 1
 295 273 l 1
493 771 m 0
 501 805 531 831 563 831 c 0
 589.88850442 831 606.892357103 812.64278963 606.892357103 786.607170307 c 0
 606.892357103 781.657807896 606.277873895 776.430964054 605 771 c 0
 597 737 567 711 535 711 c 0
 508.11149558 711 491.107642897 729.35721037 491.107642897 755.392829693 c 0
 491.107642897 760.342192104 491.722126105 765.569035946 493 771 c 0
EndSplineSet
Validated: 524289
EndChar

StartChar: Agrave
Encoding: 192 192 7
Width: 593
GlyphClass: 2
Flags: HMW
AnchorPoint: "Anchor-7" 320 810 basechar 0
AnchorPoint: "Anchor-6" 548 0 basechar 0
AnchorPoint: "Anchor-5" 320 0 basechar 0
LayerCount: 2
Fore
SplineSet
548 0 m 1
 441 0 l 1
 436 158 l 1
 236 158 l 1
 158 0 l 1
 46 0 l 1
 376 650 l 1
 526 650 l 1
 548 0 l 1
377 810 m 1
 484 810 l 1
 512 710 l 1
 405 710 l 1
 377 810 l 1
295 273 m 1
 434 273 l 1
 427 539 l 1
 295 273 l 1
EndSplineSet
Validated: 1
EndChar

StartChar: Amacron
Encoding: 256 256 8
Width: 593
GlyphClass: 2
Flags: HMW
AnchorPoint: "Anchor-7" 320 810 basechar 0
AnchorPoint: "Anchor-6" 548 0 basechar 0
AnchorPoint: "Anchor-5" 320 0 basechar 0
LayerCount: 2
Fore
SplineSet
548 0 m 1
 441 0 l 1
 436 158 l 1
 236 158 l 1
 158 0 l 1
 46 0 l 1
 376 650 l 1
 526 650 l 1
 548 0 l 1
312 730 m 1
 330 810 l 1
 637 810 l 1
 619 730 l 1
 312 730 l 1
295 273 m 1
 434 273 l 1
 427 539 l 1
 295 273 l 1
EndSplineSet
Validated: 1
EndChar

StartChar: Aogonek
Encoding: 260 260 9
Width: 594
GlyphClass: 2
Flags: HMW
AnchorPoint: "Anchor-7" 320 650 basechar 0
AnchorPoint: "Anchor-6" 548 0 basechar 0
AnchorPoint: "Anchor-5" 320 0 basechar 0
LayerCount: 2
Fore
SplineSet
548 0 m 1
 468 -120 l 1
 578 -120 l 1
 559 -200 l 1
 336 -200 l 1
 470 0 l 1
 441 0 l 1
 436 158 l 1
 236 158 l 1
 158 0 l 1
 46 0 l 1
 376 650 l 1
 526 650 l 1
 548 0 l 1
295 273 m 1
 434 273 l 1
 427 539 l 1
 295 273 l 1
EndSplineSet
Validated: 1
EndChar

StartChar: Aring
Encoding: 197 197 10
Width: 593
GlyphClass: 2
Flags: HMW
AnchorPoint: "Anchor-7" 320 870 basechar 0
AnchorPoint: "Anchor-6" 548 0 basechar 0
AnchorPoint: "Anchor-5" 320 0 basechar 0
LayerCount: 2
Fore
SplineSet
548 0 m 1
 441 0 l 1
 436 158 l 1
 236 158 l 1
 158 0 l 1
 46 0 l 1
 376 650 l 1
 526 650 l 1
 548 0 l 1
398 784 m 0
 409 832 452 870 497 870 c 0
 535.21785058 870 560.452553579 842.591132882 560.452553579 804.925576229 c 0
 560.452553579 798.24143703 559.657858747 791.234292714 558 784 c 0
 547 736 503 698 458 698 c 0
 419.950306839 698 395.484714341 725.168201327 395.484714341 762.577838906 c 0
 395.484714341 769.411230671 396.301036106 776.586339372 398 784 c 0
295 273 m 1
 434 273 l 1
 427 539 l 1
 295 273 l 1
445 784 m 0
 444.446221995 781.369554475 444.179947189 778.79660959 444.179947189 776.315661483 c 0
 444.179947189 760.876446037 454.492001024 749 470 749 c 0
 488 749 506 765 510 784 c 0
 510.590081968 786.802889346 510.875491798 789.540491806 510.875491798 792.171072379 c 0
 510.875491798 807.372459012 501.344631146 819 486 819 c 0
 468 819 449 803 445 784 c 0
EndSplineSet
Validated: 524289
EndChar

StartChar: Atilde
Encoding: 195 195 11
Width: 593
GlyphClass: 2
Flags: HMW
AnchorPoint: "Anchor-7" 320 815 basechar 0
AnchorPoint: "Anchor-6" 548 0 basechar 0
AnchorPoint: "Anchor-5" 320 0 basechar 0
LayerCount: 2
Fore
SplineSet
548 0 m 1x96
 441 0 l 1
 436 158 l 1
 236 158 l 1
 158 0 l 1
 46 0 l 1
 376 650 l 1
 526 650 l 1
 548 0 l 1x96
329 711 m 1
 342 768 392 815 442 815 c 0x8e
 483 815 487 776 522 776 c 0xc6
 538 776 551 791 555 810 c 1
 620 810 l 1xa6
 607 752 556 706 506 706 c 0xc6
 460 706 450 745 426 745 c 0x8e
 410 745 398 728 394 711 c 1
 329 711 l 1
295 273 m 1
 434 273 l 1
 427 539 l 1
 295 273 l 1
EndSplineSet
Validated: 1
EndChar

StartChar: AE
Encoding: 198 198 12
Width: 736
GlyphClass: 1
Flags: HMW
LayerCount: 2
Fore
SplineSet
46 0 m 1x4c
 394 649 l 1
 507 649 l 1
 507 650 l 1
 619 650 l 1
 618 649 l 1
 804 649 l 1
 777 529 l 1xa9
 591 529 l 1
 557 384 l 1x9c
 697 384 l 1
 669 264 l 1x9a
 530 264 l 1
 496 120 l 1x9c
 682 120 l 1
 655 0 l 1x99
 357 0 l 1
 394 158 l 1
 243 158 l 1xac
 158 0 l 1
 46 0 l 1x4c
305 273 m 1
 420 273 l 1
 479 529 l 1
 443 529 l 1xac
 305 273 l 1
EndSplineSet
Validated: 1
EndChar

StartChar: B
Encoding: 66 66 13
Width: 538
GlyphClass: 2
Flags: HMW
AnchorPoint: "Anchor-7" 308 650 basechar 0
AnchorPoint: "Anchor-6" 168 0 basechar 0
AnchorPoint: "Anchor-5" 308 0 basechar 0
LayerCount: 2
Fore
SplineSet
91 0 m 1xf4
 241 650 l 1xf2
 353 650 l 2
 452.41125497 650 510.645019878 590.978930913 510.645019878 497.38412002 c 0
 510.645019878 478 508.147186258 457.132900908 503 435 c 0xe8
 500 423 497 411 493 399 c 1
 531.948439108 371.074704036 549.835199523 326.408073726 549.835199523 275.318593474 c 0
 549.835199523 256.886867861 547.507104437 237.619160491 543 218 c 0xf2
 518 109 431 0 296 0 c 2
 91 0 l 1xf4
229 115 m 1
 318 115 l 2
 381 115 425 169 436 218 c 0
 437.899748742 226.54886934 438.897236163 234.997487421 438.897236163 243.155402044 c 0
 438.897236163 260.762730293 434.250628145 277.015871017 424 290 c 1
 379 246 319 220 253 220 c 1
 229 115 l 1
279 330 m 1
 288 330 l 2
 341 330 392 378 405 435 c 0xf4
 407.129008274 444.33488243 408.158373202 453.428379736 408.158373202 462.109188275 c 0
 408.158373202 506.43451992 381.320197038 540 337 540 c 2
 327 540 l 1
 279 330 l 1
EndSplineSet
Validated: 524289
EndChar

StartChar: C
Encoding: 67 67 14
Width: 522
GlyphClass: 2
Flags: HMW
AnchorPoint: "Anchor-7" 410 649 basechar 0
AnchorPoint: "Anchor-5" 410 0 basechar 0
LayerCount: 2
Fore
SplineSet
366 0 m 2
 220.882633735 0 136.271964566 88.3805687928 136.271964566 228.705469526 c 0
 136.271964566 258.568211834 140.103872056 290.783445578 148 325 c 0
 193 519 340 650 516 650 c 2
 627 650 l 1
 601 535 l 1
 499 535 l 2
 385 535 287 447 259 325 c 0
 254.255840909 304.15958685 251.951858943 284.352660482 251.951858943 265.82729065 c 0
 251.951858943 175.016032991 307.315504871 115 402 115 c 2
 504 115 l 1
 477 0 l 1
 366 0 l 2
EndSplineSet
Validated: 1572865
EndChar

StartChar: Cacute
Encoding: 262 262 15
Width: 568
GlyphClass: 2
Flags: HMW
AnchorPoint: "Anchor-7" 410 809 basechar 0
AnchorPoint: "Anchor-5" 410 0 basechar 0
LayerCount: 2
Fore
SplineSet
366 0 m 2
 220.882633735 0 136.271964566 88.3805687928 136.271964566 228.705469526 c 0
 136.271964566 258.568211834 140.103872056 290.783445578 148 325 c 0
 193 519 340 650 516 650 c 2
 627 650 l 1
 601 535 l 1
 499 535 l 2
 385 535 287 447 259 325 c 0
 254.255840909 304.15958685 251.951858943 284.352660482 251.951858943 265.82729065 c 0
 251.951858943 175.016032991 307.315504871 115 402 115 c 2
 504 115 l 1
 477 0 l 1
 366 0 l 2
492 709 m 1
 566 809 l 1
 673 809 l 1
 599 709 l 1
 492 709 l 1
EndSplineSet
Validated: 1572865
EndChar

StartChar: Ccaron
Encoding: 268 268 16
Width: 568
GlyphClass: 2
Flags: HMW
AnchorPoint: "Anchor-7" 410 799 basechar 0
AnchorPoint: "Anchor-5" 410 0 basechar 0
LayerCount: 2
Fore
SplineSet
366 0 m 2
 220.882633735 0 136.271964566 88.3805687928 136.271964566 228.705469526 c 0
 136.271964566 258.568211834 140.103872056 290.783445578 148 325 c 0
 193 519 340 650 516 650 c 2
 627 650 l 1
 601 535 l 1
 499 535 l 2
 385 535 287 447 259 325 c 0
 254.255840909 304.15958685 251.951858943 284.352660482 251.951858943 265.82729065 c 0
 251.951858943 175.016032991 307.315504871 115 402 115 c 2
 504 115 l 1
 477 0 l 1
 366 0 l 2
450 808 m 1
 557 808 l 1
 564 799 l 1
 576 808 l 1
 682 808 l 1
 554 719 l 1
 537 719 l 1
 450 808 l 1
EndSplineSet
Validated: 1572865
EndChar

StartChar: Ccedilla
Encoding: 199 199 17
Width: 568
GlyphClass: 2
Flags: HMW
AnchorPoint: "Anchor-7" 410 649 basechar 0
AnchorPoint: "Anchor-5" 389 -244 basechar 0
LayerCount: 2
Fore
SplineSet
366 0 m 2x78
 220.882633735 0 136.271964566 88.3805687928 136.271964566 228.705469526 c 0
 136.271964566 258.568211834 140.103872056 290.783445578 148 325 c 0
 193 519 340 650 516 650 c 2
 627 650 l 1
 601 535 l 1
 499 535 l 2
 385 535 287 447 259 325 c 0
 254.255840909 304.15958685 251.951858943 284.352660482 251.951858943 265.82729065 c 0
 251.951858943 175.016032991 307.315504871 115 402 115 c 2
 504 115 l 1
 477 0 l 1x74
 366 0 l 2x78
304 -244 m 1
 322 -165 l 1x78
 332 -165 342 -156 345 -145 c 0xf2
 348 -134 341 -125 331 -125 c 1
 350 -46 l 1
 397.241440412 -46 424.562641651 -73.4761919629 424.562641651 -116.473175629 c 0
 424.562641651 -125.354967199 423.396839197 -134.899034812 421 -145 c 0xf8
 407 -204 361 -244 304 -244 c 1
EndSplineSet
Validated: 1572865
EndChar

StartChar: Cdotaccent
Encoding: 266 266 18
Width: 568
GlyphClass: 2
Flags: HMW
AnchorPoint: "Anchor-7" 410 649 basechar 0
AnchorPoint: "Anchor-5" 410 0 basechar 0
LayerCount: 2
Fore
SplineSet
366 0 m 2
 220.882633735 0 136.271964566 88.3805687928 136.271964566 228.705469526 c 0
 136.271964566 258.568211834 140.103872056 290.783445578 148 325 c 0
 193 519 340 650 516 650 c 2
 627 650 l 1
 601 535 l 1
 499 535 l 2
 385 535 287 447 259 325 c 0
 254.255840909 304.15958685 251.951858943 284.352660482 251.951858943 265.82729065 c 0
 251.951858943 175.016032991 307.315504871 115 402 115 c 2
 504 115 l 1
 477 0 l 1
 366 0 l 2
502 770 m 0
 510 804 539 830 571 830 c 0
 597.88850442 830 614.892357103 811.64278963 614.892357103 785.607170307 c 0
 614.892357103 780.657807896 614.277873895 775.430964054 613 770 c 0
 605 736 576 710 544 710 c 0
 517.11149558 710 500.107642897 728.35721037 500.107642897 754.392829693 c 0
 500.107642897 759.342192104 500.722126105 764.569035946 502 770 c 0
EndSplineSet
Validated: 1572865
EndChar

StartChar: D
Encoding: 68 68 19
Width: 586
GlyphClass: 2
Flags: HMW
AnchorPoint: "Anchor-7" 220 649 basechar 0
AnchorPoint: "Anchor-5" 323 0 basechar 0
LayerCount: 2
Fore
SplineSet
91 0 m 1
 241 650 l 1
 362 650 l 2
 508.87213092 650 600.032942519 558.772714613 600.032942519 415.83561064 c 0
 600.032942519 387.488141143 596.447466526 357.106855691 589 325 c 0
 544 130 388 0 212 0 c 2
 91 0 l 1
229 115 m 1
 238 115 l 2
 352 115 450 202 478 325 c 0
 482.744159091 345.670978897 485.048141057 365.365886944 485.048141057 383.822062049 c 0
 485.048141057 474.294127549 429.684495129 535 335 535 c 2
 326 535 l 1
 229 115 l 1
EndSplineSet
Validated: 1572865
EndChar

StartChar: Eth
Encoding: 208 208 20
Width: 605
GlyphClass: 1
Flags: HMW
LayerCount: 2
Fore
SplineSet
241 650 m 1xf4
 390 650 l 2
 535.117366265 650 619.728035434 560.939580678 619.728035434 420.936651357 c 0
 619.728035434 391.142428244 615.896127944 359.041084912 608 325 c 0
 563 130 416 0 240 0 c 2
 91 0 l 1
 241 650 l 1xf4
229 115 m 1
 257 115 l 2
 371 115 468 202 496 325 c 0
 500.793678394 345.886741575 503.125283301 365.776929595 503.125283301 384.399590856 c 0
 503.125283301 474.552377682 448.482880824 535 354 535 c 2
 326 535 l 1
 291 384 l 1xf4
 394 384 l 1
 366 264 l 1xec
 264 264 l 1
 229 115 l 1
EndSplineSet
Validated: 524289
EndChar

StartChar: Dcaron
Encoding: 270 270 21
Width: 596
GlyphClass: 2
Flags: HMW
AnchorPoint: "Anchor-7" 220 799 basechar 0
AnchorPoint: "Anchor-5" 323 0 basechar 0
LayerCount: 2
Fore
SplineSet
91 0 m 1
 241 650 l 1
 362 650 l 2
 508.87213092 650 600.032942519 558.772714613 600.032942519 415.83561064 c 0
 600.032942519 387.488141143 596.447466526 357.106855691 589 325 c 0
 544 130 388 0 212 0 c 2
 91 0 l 1
273 808 m 1
 380 808 l 1
 387 799 l 1
 399 808 l 1
 505 808 l 1
 377 719 l 1
 360 719 l 1
 273 808 l 1
229 115 m 1
 239 115 l 2
 353 115 450 202 478 325 c 0
 482.793678394 345.886741575 485.125283301 365.776929595 485.125283301 384.399590856 c 0
 485.125283301 474.552377682 430.482880824 535 336 535 c 2
 326 535 l 1
 229 115 l 1
EndSplineSet
Validated: 1572865
EndChar

StartChar: Dcroat
Encoding: 272 272 22
Width: 605
GlyphClass: 1
Flags: HMW
LayerCount: 2
Fore
SplineSet
241 650 m 1xf4
 390 650 l 2
 535.117366265 650 619.728035434 560.939580678 619.728035434 420.936651357 c 0
 619.728035434 391.142428244 615.896127944 359.041084912 608 325 c 0
 563 130 416 0 240 0 c 2
 91 0 l 1
 241 650 l 1xf4
229 115 m 1
 257 115 l 2
 371 115 468 202 496 325 c 0
 500.793678394 345.886741575 503.125283301 365.776929595 503.125283301 384.399590856 c 0
 503.125283301 474.552377682 448.482880824 535 354 535 c 2
 326 535 l 1
 291 384 l 1xf4
 394 384 l 1
 366 264 l 1xec
 264 264 l 1
 229 115 l 1
EndSplineSet
Validated: 524289
EndChar

StartChar: E
Encoding: 69 69 23
Width: 479
GlyphClass: 2
Flags: HMW
AnchorPoint: "Anchor-7" 265 649 basechar 0
AnchorPoint: "Anchor-6" 388 0 basechar 0
AnchorPoint: "Anchor-5" 265 0 basechar 0
LayerCount: 2
Fore
SplineSet
241 650 m 1xe4
 548 650 l 1
 521 535 l 1xe4
 326 535 l 1
 291 382 l 1xf0
 440 382 l 1
 413 267 l 1xe8
 264 267 l 1
 229 115 l 1xf0
 424 115 l 1
 398 0 l 1
 91 0 l 1
 241 650 l 1xe4
EndSplineSet
Validated: 1
EndChar

StartChar: Eacute
Encoding: 201 201 24
Width: 479
GlyphClass: 2
Flags: HMW
AnchorPoint: "Anchor-7" 265 809 basechar 0
AnchorPoint: "Anchor-6" 388 0 basechar 0
AnchorPoint: "Anchor-5" 265 0 basechar 0
LayerCount: 2
Fore
SplineSet
241 650 m 1xf2
 548 650 l 1
 521 535 l 1xf2
 326 535 l 1
 291 382 l 1xf8
 440 382 l 1
 413 267 l 1xf4
 264 267 l 1
 229 115 l 1xf8
 424 115 l 1
 398 0 l 1
 91 0 l 1
 241 650 l 1xf2
357 709 m 1
 431 809 l 1
 538 809 l 1
 464 709 l 1
 357 709 l 1
EndSplineSet
Validated: 1
EndChar

StartChar: Ecaron
Encoding: 282 282 25
Width: 479
GlyphClass: 2
Flags: HMW
AnchorPoint: "Anchor-7" 265 799 basechar 0
AnchorPoint: "Anchor-6" 388 0 basechar 0
AnchorPoint: "Anchor-5" 265 0 basechar 0
LayerCount: 2
Fore
SplineSet
241 650 m 1xe9
 548 650 l 1
 521 535 l 1xe9
 326 535 l 1
 291 382 l 1xec
 440 382 l 1
 413 267 l 1xea
 264 267 l 1
 229 115 l 1xec
 424 115 l 1
 398 0 l 1
 91 0 l 1
 241 650 l 1xe9
315 808 m 1xd1
 422 808 l 1
 429 799 l 1
 440 808 l 1
 547 808 l 1xd1
 419 719 l 1
 402 719 l 1xe9
 315 808 l 1xd1
EndSplineSet
Validated: 1
EndChar

StartChar: Ecircumflex
Encoding: 202 202 26
Width: 479
GlyphClass: 2
Flags: HMW
AnchorPoint: "Anchor-7" 265 799 basechar 0
AnchorPoint: "Anchor-6" 388 0 basechar 0
AnchorPoint: "Anchor-5" 265 0 basechar 0
LayerCount: 2
Fore
SplineSet
241 650 m 1xf2
 548 650 l 1
 521 535 l 1xf2
 326 535 l 1
 291 382 l 1xf8
 440 382 l 1
 413 267 l 1xf4
 264 267 l 1
 229 115 l 1xf8
 424 115 l 1
 398 0 l 1
 91 0 l 1
 241 650 l 1xf2
292 710 m 1
 421 799 l 1
 437 799 l 1
 525 710 l 1
 418 710 l 1
 410 719 l 1
 399 710 l 1
 292 710 l 1
EndSplineSet
Validated: 1
EndChar

StartChar: Edieresis
Encoding: 203 203 27
Width: 479
GlyphClass: 2
Flags: HMW
AnchorPoint: "Anchor-7" 265 830 basechar 0
AnchorPoint: "Anchor-6" 388 0 basechar 0
AnchorPoint: "Anchor-5" 265 0 basechar 0
LayerCount: 2
Fore
SplineSet
241 650 m 1xe2
 548 650 l 1
 521 535 l 1xe2
 326 535 l 1
 291 382 l 1xe8
 440 382 l 1
 413 267 l 1xe4
 264 267 l 1
 229 115 l 1xe8
 424 115 l 1
 398 0 l 1
 91 0 l 1
 241 650 l 1xe2
292 770 m 0xf180
 300 804 330 830 362 830 c 0
 388.88850442 830 405.892357103 811.64278963 405.892357103 785.607170307 c 0
 405.892357103 780.657807896 405.277873895 775.430964054 404 770 c 0
 396 736 366 710 334 710 c 0
 307.11149558 710 290.107642897 728.35721037 290.107642897 754.392829693 c 0
 290.107642897 759.342192104 290.722126105 764.569035946 292 770 c 0xf180
441 770 m 0
 449 804 478 830 510 830 c 0
 536.88850442 830 553.892357103 811.64278963 553.892357103 785.607170307 c 0
 553.892357103 780.657807896 553.277873895 775.430964054 552 770 c 0
 544 736 515 710 483 710 c 0
 456.11149558 710 439.107642897 728.35721037 439.107642897 754.392829693 c 0
 439.107642897 759.342192104 439.722126105 764.569035946 441 770 c 0
EndSplineSet
Validated: 524289
EndChar

StartChar: Edotaccent
Encoding: 278 278 28
Width: 479
GlyphClass: 2
Flags: HMW
AnchorPoint: "Anchor-7" 265 649 basechar 0
AnchorPoint: "Anchor-6" 388 0 basechar 0
AnchorPoint: "Anchor-5" 265 0 basechar 0
LayerCount: 2
Fore
SplineSet
241 650 m 1xe2
 548 650 l 1
 521 535 l 1xe2
 326 535 l 1
 291 382 l 1xe8
 440 382 l 1
 413 267 l 1xe4
 264 267 l 1
 229 115 l 1xe8
 424 115 l 1
 398 0 l 1
 91 0 l 1
 241 650 l 1xe2
366 770 m 0xf1
 374 804 404 830 436 830 c 0
 462.88850442 830 479.892357103 811.64278963 479.892357103 785.607170307 c 0
 479.892357103 780.657807896 479.277873895 775.430964054 478 770 c 0
 470 736 440 710 408 710 c 0
 381.11149558 710 364.107642897 728.35721037 364.107642897 754.392829693 c 0
 364.107642897 759.342192104 364.722126105 764.569035946 366 770 c 0xf1
EndSplineSet
Validated: 524289
EndChar

StartChar: Egrave
Encoding: 200 200 29
Width: 479
GlyphClass: 2
Flags: HMW
AnchorPoint: "Anchor-7" 265 809 basechar 0
AnchorPoint: "Anchor-6" 388 0 basechar 0
AnchorPoint: "Anchor-5" 265 0 basechar 0
LayerCount: 2
Fore
SplineSet
241 650 m 1xf2
 548 650 l 1
 521 535 l 1xf2
 326 535 l 1
 291 382 l 1xf8
 440 382 l 1
 413 267 l 1xf4
 264 267 l 1
 229 115 l 1xf8
 424 115 l 1
 398 0 l 1
 91 0 l 1
 241 650 l 1xf2
324 809 m 1
 431 809 l 1
 459 709 l 1
 352 709 l 1
 324 809 l 1
EndSplineSet
Validated: 1
EndChar

StartChar: Emacron
Encoding: 274 274 30
Width: 479
GlyphClass: 2
Flags: HMW
AnchorPoint: "Anchor-7" 265 809 basechar 0
AnchorPoint: "Anchor-6" 388 0 basechar 0
AnchorPoint: "Anchor-5" 265 0 basechar 0
LayerCount: 2
Fore
SplineSet
241 650 m 1xf2
 548 650 l 1
 521 535 l 1xf2
 326 535 l 1
 291 382 l 1xf8
 440 382 l 1
 413 267 l 1xf4
 264 267 l 1
 229 115 l 1xf8
 424 115 l 1
 398 0 l 1
 91 0 l 1
 241 650 l 1xf2
259 729 m 1
 278 809 l 1
 585 809 l 1
 566 729 l 1
 259 729 l 1
EndSplineSet
Validated: 1
EndChar

StartChar: Eogonek
Encoding: 280 280 31
Width: 481
GlyphClass: 2
Flags: HMW
AnchorPoint: "Anchor-7" 265 649 basechar 0
AnchorPoint: "Anchor-6" 388 0 basechar 0
AnchorPoint: "Anchor-5" 265 0 basechar 0
LayerCount: 2
Fore
SplineSet
241 650 m 1xf2
 548 650 l 1
 521 535 l 1xf2
 326 535 l 1
 291 382 l 1xf8
 440 382 l 1
 413 267 l 1xf4
 264 267 l 1
 229 115 l 1xf8
 424 115 l 1
 398 0 l 1
 318 -120 l 1
 428 -120 l 1
 409 -200 l 1
 186 -200 l 1
 320 0 l 1
 91 0 l 1
 241 650 l 1xf2
EndSplineSet
Validated: 1
EndChar

StartChar: uni1EBC
Encoding: 7868 7868 32
Width: 479
GlyphClass: 2
Flags: HMW
AnchorPoint: "Anchor-7" 265 814 basechar 0
AnchorPoint: "Anchor-6" 388 0 basechar 0
AnchorPoint: "Anchor-5" 265 0 basechar 0
LayerCount: 2
Fore
SplineSet
241 650 m 1xe020
 548 650 l 1
 521 535 l 1xe020
 326 535 l 1
 291 382 l 1xe080
 440 382 l 1
 413 267 l 1xe040
 264 267 l 1
 229 115 l 1xe080
 424 115 l 1
 398 0 l 1
 91 0 l 1
 241 650 l 1xe020
276 710 m 1xe410
 289 767 340 814 390 814 c 0xe210
 431 814 435 775 470 775 c 0xf008
 486 775 499 790 503 809 c 1
 568 809 l 1xe808
 555 751 504 705 454 705 c 0xf008
 408 705 397 744 373 744 c 0xe3
 357 744 345 727 341 710 c 1xe5
 276 710 l 1xe410
EndSplineSet
Validated: 1
EndChar

StartChar: F
Encoding: 70 70 33
Width: 479
GlyphClass: 2
Flags: HMW
AnchorPoint: "Anchor-7" 260 650 basechar 0
AnchorPoint: "Anchor-5" 260 0 basechar 0
LayerCount: 2
Fore
SplineSet
241 650 m 1xd0
 548 650 l 1
 521 535 l 1xd0
 326 535 l 1
 290 377 l 1xe0
 485 377 l 1
 458 262 l 1xd0
 263 262 l 1
 203 0 l 1xe0
 91 0 l 1
 241 650 l 1xd0
EndSplineSet
Validated: 1048577
EndChar

StartChar: G
Encoding: 71 71 34
Width: 559
GlyphClass: 2
Flags: HMW
AnchorPoint: "Anchor-7" 405 649 basechar 0
AnchorPoint: "Anchor-5" 405 0 basechar 0
LayerCount: 2
Fore
SplineSet
366 0 m 2x78
 220.882633735 0 136.271964566 88.3805687928 136.271964566 228.705469526 c 0
 136.271964566 258.568211834 140.103872056 290.783445578 148 325 c 0
 193 519 340 650 516 650 c 2
 627 650 l 1
 601 535 l 1
 499 535 l 2
 385 535 287 447 259 325 c 0
 254.255840909 304.15958685 251.951858943 284.352660482 251.951858943 265.82729065 c 0
 251.951858943 175.016032991 307.315504871 115 402 115 c 1xb8
 451 330 l 1
 563 330 l 1
 487 0 l 1
 366 0 l 2x78
EndSplineSet
Validated: 1572865
EndChar

StartChar: Gbreve
Encoding: 286 286 35
Width: 559
GlyphClass: 2
Flags: HMW
AnchorPoint: "Anchor-7" 405 800 basechar 0
AnchorPoint: "Anchor-5" 405 0 basechar 0
LayerCount: 2
Fore
SplineSet
366 0 m 2x7c
 220.882633735 0 136.271964566 88.3805687928 136.271964566 228.705469526 c 0
 136.271964566 258.568211834 140.103872056 290.783445578 148 325 c 0
 193 519 340 650 516 650 c 2
 627 650 l 1
 601 535 l 1
 499 535 l 2
 385 535 287 447 259 325 c 0
 254.255840909 304.15958685 251.951858943 284.352660482 251.951858943 265.82729065 c 0
 251.951858943 175.016032991 307.315504871 115 402 115 c 1xbc
 451 330 l 1
 563 330 l 1
 487 0 l 1
 366 0 l 2x7c
468 800 m 1
 541 800 l 1
 538 789 545 780 555 780 c 0
 565 780 575 789 578 800 c 1
 652 800 l 1
 638 739 591 699 536 699 c 0x7a
 490.659178839 699 464.347158267 726.18400084 464.347158267 769.907296388 c 0
 464.347158267 779.221885765 465.541299932 789.28709256 468 800 c 1
EndSplineSet
Validated: 1572865
EndChar

StartChar: uni0122
Encoding: 290 290 36
Width: 559
GlyphClass: 2
Flags: HMW
AnchorPoint: "Anchor-7" 405 649 basechar 0
AnchorPoint: "Anchor-5" 365 -210 basechar 0
LayerCount: 2
Fore
SplineSet
366 0 m 2x3c
 220.882633735 0 136.271964566 88.3805687928 136.271964566 228.705469526 c 0
 136.271964566 258.568211834 140.103872056 290.783445578 148 325 c 0
 193 519 340 650 516 650 c 2
 627 650 l 1
 601 535 l 1
 499 535 l 2
 385 535 287 447 259 325 c 0
 254.255840909 304.15958685 251.951858943 284.352660482 251.951858943 265.82729065 c 0
 251.951858943 175.016032991 307.315504871 115 402 115 c 1x5c
 451 330 l 1
 563 330 l 1
 487 0 l 1
 366 0 l 2x3c
217 -210 m 1xbc
 319 -56 l 1
 397 -56 l 1
 295 -210 l 1
 217 -210 l 1xbc
EndSplineSet
Validated: 1572865
EndChar

StartChar: Gdotaccent
Encoding: 288 288 37
Width: 559
GlyphClass: 2
Flags: HMW
AnchorPoint: "Anchor-7" 405 649 basechar 0
AnchorPoint: "Anchor-5" 405 0 basechar 0
LayerCount: 2
Fore
SplineSet
366 0 m 2x69
 220.882633735 0 136.271964566 88.3805687928 136.271964566 228.705469526 c 0
 136.271964566 258.568211834 140.103872056 290.783445578 148 325 c 0
 193 519 340 650 516 650 c 2
 627 650 l 1
 601 535 l 1x6a
 499 535 l 2
 385 535 287 447 259 325 c 0
 254.255840909 304.15958685 251.951858943 284.352660482 251.951858943 265.82729065 c 0
 251.951858943 175.016032991 307.315504871 115 402 115 c 1xa9
 451 330 l 1
 563 330 l 1
 487 0 l 1
 366 0 l 2x69
497 770 m 0x7a
 505 804 535 830 567 830 c 0
 593.88850442 830 610.892357103 811.64278963 610.892357103 785.607170307 c 0
 610.892357103 780.657807896 610.277873895 775.430964054 609 770 c 0x7c
 601 736 571 710 539 710 c 0
 512.11149558 710 495.107642897 728.35721037 495.107642897 754.392829693 c 0
 495.107642897 759.342192104 495.722126105 764.569035946 497 770 c 0x7a
EndSplineSet
Validated: 1572865
EndChar

StartChar: H
Encoding: 72 72 38
Width: 586
GlyphClass: 2
Flags: HMW
AnchorPoint: "Anchor-7" 318 650 basechar 0
AnchorPoint: "Anchor-5" 318 0 basechar 0
LayerCount: 2
Fore
SplineSet
91 0 m 1
 241 650 l 1
 353 650 l 1
 291 383 l 1
 472 383 l 1
 534 650 l 1
 646 650 l 1
 496 0 l 1
 384 0 l 1
 446 268 l 1
 264 268 l 1
 203 0 l 1
 91 0 l 1
EndSplineSet
Validated: 1048577
EndChar

StartChar: Hbar
Encoding: 294 294 39
Width: 589
GlyphClass: 2
Flags: HMW
AnchorPoint: "Anchor-7" 318 650 basechar 0
AnchorPoint: "Anchor-6" 493 0 basechar 0
AnchorPoint: "Anchor-5" 318 0 basechar 0
LayerCount: 2
Fore
SplineSet
160 576 m 1
 225 576 l 1
 242 650 l 1
 354 650 l 1
 337 576 l 1
 518 576 l 1
 535 650 l 1
 647 650 l 1
 630 576 l 1
 695 576 l 1
 672 476 l 1
 607 476 l 1
 497 0 l 1
 385 0 l 1
 447 268 l 1
 266 268 l 1
 204 0 l 1
 92 0 l 1
 202 476 l 1
 137 476 l 1
 160 576 l 1
292 383 m 1
 474 383 l 1
 495 476 l 1
 314 476 l 1
 292 383 l 1
EndSplineSet
Validated: 1
EndChar

StartChar: I
Encoding: 73 73 40
Width: 275
GlyphClass: 2
Flags: HMW
AnchorPoint: "Anchor-7" 150 649 basechar 0
AnchorPoint: "Anchor-6" 168 0 basechar 0
AnchorPoint: "Anchor-5" 150 0 basechar 0
LayerCount: 2
Fore
SplineSet
82 0 m 1
 232 650 l 1
 344 650 l 1
 194 0 l 1
 82 0 l 1
EndSplineSet
Validated: 1
EndChar

StartChar: IJ
Encoding: 306 306 41
AltUni2: 000133.ffffffff.0 000133.ffffffff.0
Width: 494
GlyphClass: 1
Flags: HMW
LayerCount: 2
Fore
SplineSet
160 300 m 1xb8
 241 649 l 1
 352 649 l 1
 272 300 l 1
 160 300 l 1xb8
123 140 m 2
 137 200 l 1
 249 200 l 1x78
 236 145 l 2
 234.793739762 140.002636155 234.211078279 135.302224098 234.211078279 130.944818262 c 0
 234.211078279 110.015938532 247.652718063 97 270 97 c 0
 297 97 318 116 325 145 c 2
 442 649 l 1
 553 649 l 1
 436 140 l 2
 414 44 337 -20 243 -20 c 0
 164.192354341 -20 117.717174805 24.9843006919 117.717174805 96.095950857 c 0
 117.717174805 109.804689115 119.444342601 124.484404077 123 140 c 2
EndSplineSet
Validated: 524289
EndChar

StartChar: Iacute
Encoding: 205 205 42
Width: 276
GlyphClass: 2
Flags: HMW
AnchorPoint: "Anchor-7" 150 809 basechar 0
AnchorPoint: "Anchor-6" 168 0 basechar 0
AnchorPoint: "Anchor-5" 150 0 basechar 0
LayerCount: 2
Fore
SplineSet
82 0 m 1
 232 650 l 1
 344 650 l 1
 194 0 l 1
 82 0 l 1
250 709 m 1
 324 809 l 1
 431 809 l 1
 357 709 l 1
 250 709 l 1
EndSplineSet
Validated: 1
EndChar

StartChar: Icircumflex
Encoding: 206 206 43
Width: 278
GlyphClass: 2
Flags: HMW
AnchorPoint: "Anchor-7" 150 799 basechar 0
AnchorPoint: "Anchor-6" 168 0 basechar 0
AnchorPoint: "Anchor-5" 150 0 basechar 0
LayerCount: 2
Fore
SplineSet
83 0 m 1
 233 650 l 1
 345 650 l 1
 195 0 l 1
 83 0 l 1
187 710 m 1
 315 799 l 1
 332 799 l 1
 419 710 l 1
 312 710 l 1
 305 719 l 1
 294 710 l 1
 187 710 l 1
EndSplineSet
Validated: 1
EndChar

StartChar: Idieresis
Encoding: 207 207 44
Width: 278
GlyphClass: 2
Flags: HMW
AnchorPoint: "Anchor-7" 150 830 basechar 0
AnchorPoint: "Anchor-6" 168 0 basechar 0
AnchorPoint: "Anchor-5" 150 0 basechar 0
LayerCount: 2
Fore
SplineSet
84 0 m 1xa0
 234 650 l 1
 345 650 l 1
 195 0 l 1
 84 0 l 1xa0
187 770 m 0xd0
 195 804 225 830 257 830 c 0
 283.704752192 830 299.963062152 811.892833467 299.963062152 786.139862315 c 0
 299.963062152 781.033341832 299.323811952 775.626200796 298 770 c 0
 290 736 261 710 229 710 c 0
 202.11149558 710 185.107642897 728.35721037 185.107642897 754.392829693 c 0
 185.107642897 759.342192104 185.722126105 764.569035946 187 770 c 0xd0
336 770 m 0
 344 804 373 830 405 830 c 0
 431.88850442 830 448.892357103 811.64278963 448.892357103 785.607170307 c 0
 448.892357103 780.657807896 448.277873895 775.430964054 447 770 c 0
 439 736 410 710 378 710 c 0
 351.11149558 710 334.107642897 728.35721037 334.107642897 754.392829693 c 0
 334.107642897 759.342192104 334.722126105 764.569035946 336 770 c 0
EndSplineSet
Validated: 524289
EndChar

StartChar: Idotaccent
Encoding: 304 304 45
Width: 275
GlyphClass: 2
Flags: HMW
AnchorPoint: "Anchor-7" 150 649 basechar 0
AnchorPoint: "Anchor-6" 168 0 basechar 0
AnchorPoint: "Anchor-5" 150 0 basechar 0
LayerCount: 2
Fore
SplineSet
82 0 m 1
 232 650 l 1
 344 650 l 1
 194 0 l 1
 82 0 l 1
260 770 m 0
 268 804 297 830 329 830 c 0
 355.88850442 830 372.892357103 811.64278963 372.892357103 785.607170307 c 0
 372.892357103 780.657807896 372.277873895 775.430964054 371 770 c 0
 363 736 334 710 302 710 c 0
 275.11149558 710 258.107642897 728.35721037 258.107642897 754.392829693 c 0
 258.107642897 759.342192104 258.722126105 764.569035946 260 770 c 0
EndSplineSet
Validated: 524289
EndChar

StartChar: Igrave
Encoding: 204 204 46
Width: 276
GlyphClass: 2
Flags: HMW
AnchorPoint: "Anchor-7" 150 809 basechar 0
AnchorPoint: "Anchor-6" 168 0 basechar 0
AnchorPoint: "Anchor-5" 150 0 basechar 0
LayerCount: 2
Fore
SplineSet
83 0 m 1
 233 650 l 1
 345 650 l 1
 195 0 l 1
 83 0 l 1
219 809 m 1
 326 809 l 1
 354 709 l 1
 247 709 l 1
 219 809 l 1
EndSplineSet
Validated: 1
EndChar

StartChar: Imacron
Encoding: 298 298 47
Width: 278
GlyphClass: 2
Flags: HMW
AnchorPoint: "Anchor-7" 150 800 basechar 0
AnchorPoint: "Anchor-6" 168 0 basechar 0
AnchorPoint: "Anchor-5" 150 0 basechar 0
LayerCount: 2
Fore
SplineSet
83 0 m 1xa0
 233 650 l 1
 345 650 l 1
 195 0 l 1
 83 0 l 1xa0
180 720 m 1xc0
 198 800 l 1xc0
 449 800 l 1
 431 720 l 1x90
 180 720 l 1xc0
EndSplineSet
Validated: 1
EndChar

StartChar: Iogonek
Encoding: 302 302 48
Width: 277
GlyphClass: 2
Flags: HMW
AnchorPoint: "Anchor-7" 150 649 basechar 0
AnchorPoint: "Anchor-6" 168 0 basechar 0
AnchorPoint: "Anchor-5" 150 0 basechar 0
LayerCount: 2
Fore
SplineSet
83 0 m 1
 233 650 l 1
 345 650 l 1
 195 0 l 1
 115 -120 l 1
 225 -120 l 1
 206 -200 l 1
 -17 -200 l 1
 117 0 l 1
 83 0 l 1
EndSplineSet
Validated: 1
EndChar

StartChar: Itilde
Encoding: 296 296 49
Width: 278
GlyphClass: 2
Flags: HMW
AnchorPoint: "Anchor-7" 150 814 basechar 0
AnchorPoint: "Anchor-6" 168 0 basechar 0
AnchorPoint: "Anchor-5" 150 0 basechar 0
LayerCount: 2
Fore
SplineSet
84 0 m 1x84
 234 650 l 1
 345 650 l 1
 195 0 l 1
 84 0 l 1x84
171 710 m 1x2c
 184 767 234 814 284 814 c 0x1c
 325 814 330 775 365 775 c 0x86
 381 775 394 790 398 809 c 1
 463 809 l 1x46
 450 751 399 705 349 705 c 0x86
 303 705 292 744 268 744 c 0x1c
 252 744 240 727 236 710 c 1
 171 710 l 1x2c
EndSplineSet
Validated: 1
EndChar

StartChar: J
Encoding: 74 74 50
Width: 448
GlyphClass: 2
Flags: HMW
AnchorPoint: "Anchor-7" 326 650 basechar 0
AnchorPoint: "Anchor-5" 218 0 basechar 0
LayerCount: 2
Fore
SplineSet
197 -20 m 0xb0
 118.387044808 -20 72.6464126166 24.7623121699 72.6464126166 95.5693958667 c 0
 72.6464126166 109.428584431 74.398776747 124.28557126 78 140 c 2
 109 276 l 1
 221 276 l 1x70
 191 145 l 2
 189.741035916 139.784291654 189.129006757 134.89205077 189.129006757 130.375635994 c 0
 189.129006757 109.780211724 201.856004322 97 224 97 c 0
 251 97 273 116 280 145 c 2
 396 650 l 1
 508 650 l 1
 390 140 l 2
 368 44 291 -20 197 -20 c 0xb0
EndSplineSet
Validated: 1572865
Substitution2: "Single Substitution lookup 16 subtable" uni004A0301
Substitution2: "'aalt' Access All Alternates in Latin lookup 0 subtable" uni004A0301
EndChar

StartChar: uni004A0301
Encoding: 65537 -1 51
Width: 450
GlyphClass: 2
Flags: HMW
AnchorPoint: "Anchor-7" 326 810 basechar 0
AnchorPoint: "Anchor-5" 218 0 basechar 0
LayerCount: 2
Fore
SplineSet
197 -20 m 0xb8
 118.387044808 -20 72.6464126166 24.7623121699 72.6464126166 95.5693958667 c 0
 72.6464126166 109.428584431 74.398776747 124.28557126 78 140 c 2
 109 276 l 1
 221 276 l 1x78
 191 145 l 2
 189.741035916 139.784291654 189.129006757 134.89205077 189.129006757 130.375635994 c 0
 189.129006757 109.780211724 201.856004322 97 224 97 c 0
 251 97 273 116 280 145 c 2
 396 650 l 1
 508 650 l 1
 390 140 l 2
 368 44 291 -20 197 -20 c 0xb8
415 710 m 1
 489 810 l 1
 596 810 l 1
 522 710 l 1
 415 710 l 1
EndSplineSet
Validated: 1572865
EndChar

StartChar: K
Encoding: 75 75 52
Width: 545
GlyphClass: 2
Flags: HMW
AnchorPoint: "Anchor-7" 308 649 basechar 0
AnchorPoint: "Anchor-5" 308 0 basechar 0
LayerCount: 2
Fore
SplineSet
241 650 m 1
 353 650 l 1
 276 318 l 1
 313 318 l 1
 518 650 l 1
 629 650 l 1
 427 323 l 1
 500 0 l 1
 387 0 l 1
 340 203 l 1
 249 203 l 1
 203 0 l 1
 91 0 l 1
 241 650 l 1
EndSplineSet
Validated: 1048577
Substitution2: "'ss02' Style Set 2 in Latin lookup 10 subtable" K.ss02
Substitution2: "'aalt' Access All Alternates in Latin lookup 0 subtable" K.ss02
EndChar

StartChar: uni0136
Encoding: 310 310 53
Width: 545
GlyphClass: 2
Flags: HMW
AnchorPoint: "Anchor-7" 308 649 basechar 0
AnchorPoint: "Anchor-5" 268 -210 basechar 0
LayerCount: 2
Fore
SplineSet
241 650 m 1
 353 650 l 1
 276 318 l 1
 313 318 l 1
 518 650 l 1
 629 650 l 1
 427 323 l 1
 500 0 l 1
 387 0 l 1
 340 203 l 1
 249 203 l 1
 203 0 l 1
 91 0 l 1
 241 650 l 1
126 -210 m 1
 229 -56 l 1
 307 -56 l 1
 204 -210 l 1
 126 -210 l 1
EndSplineSet
Validated: 1048577
EndChar

StartChar: L
Encoding: 76 76 54
Width: 494
GlyphClass: 2
Flags: HMW
AnchorPoint: "Anchor-7" 160 649 basechar 0
AnchorPoint: "Anchor-5" 283 0 basechar 0
LayerCount: 2
Fore
SplineSet
91 0 m 1xc0
 241 650 l 1
 353 650 l 1
 230 120 l 1xc0
 477 120 l 1
 449 0 l 1xa0
 91 0 l 1xc0
EndSplineSet
Validated: 1048577
EndChar

StartChar: Lacute
Encoding: 313 313 55
Width: 494
GlyphClass: 2
Flags: HMW
AnchorPoint: "Anchor-7" 160 809 basechar 0
AnchorPoint: "Anchor-5" 283 0 basechar 0
LayerCount: 2
Fore
SplineSet
91 0 m 1xe0
 241 650 l 1
 353 650 l 1
 230 120 l 1xe0
 477 120 l 1
 449 0 l 1xd0
 91 0 l 1xe0
259 709 m 1
 334 809 l 1
 441 809 l 1
 366 709 l 1
 259 709 l 1
EndSplineSet
Validated: 1048577
EndChar

StartChar: Lcaron
Encoding: 317 317 56
Width: 495
GlyphClass: 2
Flags: HMW
AnchorPoint: "Anchor-7" 160 799 basechar 0
AnchorPoint: "Anchor-5" 283 0 basechar 0
LayerCount: 2
Fore
SplineSet
92 0 m 1xe0
 242 650 l 1
 354 650 l 1
 232 120 l 1xe0
 478 120 l 1
 450 0 l 1xd0
 92 0 l 1xe0
218 808 m 1
 325 808 l 1
 333 799 l 1
 344 808 l 1
 451 808 l 1
 322 719 l 1
 306 719 l 1
 218 808 l 1
EndSplineSet
Validated: 1048577
EndChar

StartChar: uni013B
Encoding: 315 315 57
Width: 494
GlyphClass: 2
Flags: HMW
AnchorPoint: "Anchor-7" 160 649 basechar 0
AnchorPoint: "Anchor-5" 243 -210 basechar 0
LayerCount: 2
Fore
SplineSet
91 0 m 1x60
 241 650 l 1
 353 650 l 1
 230 120 l 1xe0
 477 120 l 1
 449 0 l 1x50
 91 0 l 1x60
103 -210 m 1
 205 -56 l 1
 284 -56 l 1
 181 -210 l 1
 103 -210 l 1
EndSplineSet
Validated: 1048577
EndChar

StartChar: Ldot
Encoding: 319 319 58
Width: 495
GlyphClass: 2
Flags: HMW
AnchorPoint: "Anchor-7" 160 649 basechar 0
AnchorPoint: "Anchor-5" 283 0 basechar 0
LayerCount: 2
Fore
SplineSet
91 0 m 1xe8
 241 650 l 1
 353 650 l 1
 230 120 l 1xe8
 477 120 l 1
 449 0 l 1xd0
 91 0 l 1xe8
404 330 m 0
 415 377 459 415 503 415 c 0
 540.188736853 415 564.518982653 387.854296668 564.518982653 351.07241041 c 0
 564.518982653 344.335663547 563.702815787 337.275667453 562 330 c 0
 551 283 508 245 464 245 c 0
 426.645781928 245 401.544011858 272.387824946 401.544011858 309.419172936 c 0
 401.544011858 316.007512244 402.338554518 322.901096577 404 330 c 0
EndSplineSet
Validated: 1572865
Ligature2: "Ligature Substitution lookup 15 subtable" L periodcentered
EndChar

StartChar: Lslash
Encoding: 321 321 59
Width: 495
GlyphClass: 2
Flags: HMW
AnchorPoint: "Anchor-7" 160 649 basechar 0
AnchorPoint: "Anchor-5" 283 0 basechar 0
LayerCount: 2
Fore
SplineSet
83 163 m 1xc0
 115 302 l 1
 170 340 l 1
 242 650 l 1
 354 650 l 1
 303 431 l 1xc0
 419 510 l 1
 387 372 l 1xa0
 271 292 l 1
 231 120 l 1
 478 120 l 1
 450 0 l 1
 92 0 l 1
 138 201 l 1
 83 163 l 1xc0
EndSplineSet
Validated: 1048577
EndChar

StartChar: M
Encoding: 77 77 60
Width: 773
GlyphClass: 2
Flags: HMW
AnchorPoint: "Anchor-7" 418 650 basechar 0
AnchorPoint: "Anchor-6" 684 0 basechar 0
AnchorPoint: "Anchor-5" 418 0 basechar 0
LayerCount: 2
Fore
SplineSet
402 267 m 1x70
 310 467 l 1
 203 0 l 1
 91 0 l 1xb0
 241 650 l 1
 353 650 l 1
 475 382 l 1
 721 650 l 1
 833 650 l 1x70
 682 0 l 1
 571 0 l 1xb0
 679 467 l 1
 495 267 l 1
 402 267 l 1x70
EndSplineSet
Validated: 1
EndChar

StartChar: N
Encoding: 78 78 61
Width: 586
GlyphClass: 2
Flags: HMW
AnchorPoint: "Anchor-7" 318 650 basechar 0
AnchorPoint: "Anchor-5" 318 0 basechar 0
LayerCount: 2
Fore
SplineSet
399 267 m 1x70
 310 466 l 1
 203 0 l 1
 91 0 l 1xb0
 241 650 l 1
 353 650 l 1
 472 382 l 1
 534 650 l 1
 646 650 l 1x70
 496 0 l 1
 384 0 l 1xb0
 446 267 l 1
 399 267 l 1x70
EndSplineSet
Validated: 1048577
EndChar

StartChar: Nacute
Encoding: 323 323 62
Width: 586
GlyphClass: 2
Flags: HMW
AnchorPoint: "Anchor-7" 318 810 basechar 0
AnchorPoint: "Anchor-5" 318 0 basechar 0
LayerCount: 2
Fore
SplineSet
399 267 m 1x78
 310 466 l 1
 203 0 l 1
 91 0 l 1xb8
 241 650 l 1
 353 650 l 1
 472 382 l 1
 534 650 l 1
 646 650 l 1x78
 496 0 l 1
 384 0 l 1xb8
 446 267 l 1
 399 267 l 1x78
407 710 m 1
 481 810 l 1
 588 810 l 1
 513 710 l 1
 407 710 l 1
EndSplineSet
Validated: 1048577
EndChar

StartChar: Ncaron
Encoding: 327 327 63
Width: 586
GlyphClass: 2
Flags: HMW
AnchorPoint: "Anchor-7" 318 800 basechar 0
AnchorPoint: "Anchor-5" 318 0 basechar 0
LayerCount: 2
Fore
SplineSet
399 267 m 1x78
 310 466 l 1
 203 0 l 1
 91 0 l 1xb8
 241 650 l 1
 353 650 l 1
 472 382 l 1
 534 650 l 1
 646 650 l 1x78
 496 0 l 1
 384 0 l 1xb8
 446 267 l 1
 399 267 l 1x78
364 809 m 1
 471 809 l 1
 478 800 l 1
 490 809 l 1
 597 809 l 1
 468 720 l 1
 452 720 l 1
 364 809 l 1
EndSplineSet
Validated: 1048577
EndChar

StartChar: uni0145
Encoding: 325 325 64
Width: 586
GlyphClass: 2
Flags: HMW
AnchorPoint: "Anchor-7" 318 650 basechar 0
AnchorPoint: "Anchor-5" 278 -210 basechar 0
LayerCount: 2
Fore
SplineSet
399 267 m 1xb8
 310 466 l 1
 203 0 l 1
 91 0 l 1xd8
 241 650 l 1
 353 650 l 1
 472 382 l 1
 534 650 l 1
 646 650 l 1xb8
 496 0 l 1
 384 0 l 1xd8
 446 267 l 1
 399 267 l 1xb8
136 -210 m 1
 238 -56 l 1
 316 -56 l 1
 214 -210 l 1
 136 -210 l 1
EndSplineSet
Validated: 1048577
EndChar

StartChar: Ntilde
Encoding: 209 209 65
Width: 586
GlyphClass: 2
Flags: HMW
AnchorPoint: "Anchor-7" 318 815 basechar 0
AnchorPoint: "Anchor-5" 318 0 basechar 0
LayerCount: 2
Fore
SplineSet
399 267 m 1x6240
 310 466 l 1
 203 0 l 1
 91 0 l 1xa240
 241 650 l 1
 353 650 l 1
 472 382 l 1
 534 650 l 1
 646 650 l 1x6240
 496 0 l 1
 384 0 l 1xa240
 446 267 l 1
 399 267 l 1x6240
326 711 m 1x4940
 339 768 389 815 439 815 c 0x4540
 480 815 484 776 519 776 c 0x6280
 535 776 548 791 552 810 c 1
 617 810 l 1x5280
 604 752 553 706 503 706 c 0x6280
 457 706 447 745 423 745 c 0x4540
 407 745 395 728 391 711 c 1
 326 711 l 1x4940
EndSplineSet
Validated: 1048577
EndChar

StartChar: Eng
Encoding: 330 330 66
Width: 586
GlyphClass: 2
Flags: HMW
AnchorPoint: "Anchor-7" 160 649 basechar 0
AnchorPoint: "Anchor-6" 178 0 basechar 0
AnchorPoint: "Anchor-5" 160 0 basechar 0
LayerCount: 2
Fore
SplineSet
402 266 m 1
 310 466 l 1
 203 0 l 1
 91 0 l 1
 241 650 l 1
 353 650 l 1
 352 649 l 1
 473 385 l 1
 534 649 l 1
 645 649 l 1
 449 -200 l 1
 248 -200 l 1
 274 -90 l 1
 363 -90 l 1
 445 266 l 1
 402 266 l 1
EndSplineSet
Validated: 1
EndChar

StartChar: O
Encoding: 79 79 67
Width: 777
GlyphClass: 2
Flags: HMW
AnchorPoint: "Anchor-7" 420 648 basechar 0
AnchorPoint: "Anchor-6" 746 10 basechar 0
AnchorPoint: "Anchor-5" 420 0 basechar 0
LayerCount: 2
Fore
SplineSet
385 -16 m 0
 236.477983003 -16 138.376056367 93.4836247838 138.376056367 241.539425532 c 0
 138.376056367 267.934293141 141.493981319 295.555081117 148 324 c 0
 191 512 367 664 542 664 c 0
 690.68612458 664 789.562554748 554.27429637 789.562554748 405.96965596 c 0
 789.562554748 379.723294081 786.465695103 352.268620452 780 324 c 0
 737 136 560 -16 385 -16 c 0
264 324 m 0
 259.921670007 306.025138178 257.965216728 288.575041566 257.965216728 271.901291636 c 0
 257.965216728 178.188866621 319.76646775 109 414 109 c 0
 524 109 637 205 664 324 c 0
 668.262449643 342.267641325 670.300187821 359.955930707 670.300187821 376.817922297 c 0
 670.300187821 470.722228046 607.102431774 539 513 539 c 0
 402 539 291 443 264 324 c 0
EndSplineSet
Validated: 524289
Substitution2: "'ss05' Style Set 5 in Latin lookup 13 subtable" O.ss05
Substitution2: "'ss04' Style Set 4 in Latin lookup 12 subtable" O.ss04
AlternateSubs2: "'aalt' Access All Alternates in Latin lookup 1 subtable" O.ss04 O.ss05
EndChar

StartChar: Oacute
Encoding: 211 211 68
Width: 777
GlyphClass: 2
Flags: HMW
AnchorPoint: "Anchor-7" 420 808 basechar 0
AnchorPoint: "Anchor-6" 746 10 basechar 0
AnchorPoint: "Anchor-5" 420 0 basechar 0
LayerCount: 2
Fore
SplineSet
385 -16 m 0
 236.477983003 -16 138.376056367 93.4836247838 138.376056367 241.539425532 c 0
 138.376056367 267.934293141 141.493981319 295.555081117 148 324 c 0
 191 512 367 664 542 664 c 0
 690.68612458 664 789.562554748 554.27429637 789.562554748 405.96965596 c 0
 789.562554748 379.723294081 786.465695103 352.268620452 780 324 c 0
 737 136 560 -16 385 -16 c 0
264 324 m 0
 259.921670007 306.025138178 257.965216728 288.575041566 257.965216728 271.901291636 c 0
 257.965216728 178.188866621 319.76646775 109 414 109 c 0
 524 109 637 205 664 324 c 0
 668.262449643 342.267641325 670.300187821 359.955930707 670.300187821 376.817922297 c 0
 670.300187821 470.722228046 607.102431774 539 513 539 c 0
 402 539 291 443 264 324 c 0
501 708 m 1
 576 808 l 1
 682 808 l 1
 608 708 l 1
 501 708 l 1
EndSplineSet
Validated: 524289
Substitution2: "'ss05' Style Set 5 in Latin lookup 13 subtable" Oacute.ss05
Substitution2: "'ss04' Style Set 4 in Latin lookup 12 subtable" Oacute.ss04
AlternateSubs2: "'aalt' Access All Alternates in Latin lookup 1 subtable" Oacute.ss04 Oacute.ss05
EndChar

StartChar: Ocircumflex
Encoding: 212 212 69
Width: 777
GlyphClass: 2
Flags: HMW
AnchorPoint: "Anchor-7" 420 798 basechar 0
AnchorPoint: "Anchor-6" 746 10 basechar 0
AnchorPoint: "Anchor-5" 420 0 basechar 0
LayerCount: 2
Fore
SplineSet
385 -16 m 0
 236.477983003 -16 138.376056367 93.4836247838 138.376056367 241.539425532 c 0
 138.376056367 267.934293141 141.493981319 295.555081117 148 324 c 0
 191 512 367 664 542 664 c 0
 690.68612458 664 789.562554748 554.27429637 789.562554748 405.96965596 c 0
 789.562554748 379.723294081 786.465695103 352.268620452 780 324 c 0
 737 136 560 -16 385 -16 c 0
264 324 m 0
 259.921670007 306.025138178 257.965216728 288.575041566 257.965216728 271.901291636 c 0
 257.965216728 178.188866621 319.76646775 109 414 109 c 0
 524 109 637 205 664 324 c 0
 668.262449643 342.267641325 670.300187821 359.955930707 670.300187821 376.817922297 c 0
 670.300187821 470.722228046 607.102431774 539 513 539 c 0
 402 539 291 443 264 324 c 0
436 709 m 1
 565 798 l 1
 582 798 l 1
 669 709 l 1
 562 709 l 1
 555 718 l 1
 543 709 l 1
 436 709 l 1
EndSplineSet
Validated: 524289
Substitution2: "'ss05' Style Set 5 in Latin lookup 13 subtable" Ocircumflex.ss05
Substitution2: "'ss04' Style Set 4 in Latin lookup 12 subtable" Ocircumflex.ss04
AlternateSubs2: "'aalt' Access All Alternates in Latin lookup 1 subtable" Ocircumflex.ss04 Ocircumflex.ss05
EndChar

StartChar: Odieresis
Encoding: 214 214 70
Width: 777
GlyphClass: 2
Flags: HMW
AnchorPoint: "Anchor-7" 420 829 basechar 0
AnchorPoint: "Anchor-6" 746 10 basechar 0
AnchorPoint: "Anchor-5" 420 0 basechar 0
LayerCount: 2
Fore
SplineSet
385 -16 m 0
 236.477983003 -16 138.376056367 93.4836247838 138.376056367 241.539425532 c 0
 138.376056367 267.934293141 141.493981319 295.555081117 148 324 c 0
 191 512 367 664 542 664 c 0
 690.68612458 664 789.562554748 554.27429637 789.562554748 405.96965596 c 0
 789.562554748 379.723294081 786.465695103 352.268620452 780 324 c 0
 737 136 560 -16 385 -16 c 0
264 324 m 0
 259.921670007 306.025138178 257.965216728 288.575041566 257.965216728 271.901291636 c 0
 257.965216728 178.188866621 319.76646775 109 414 109 c 0
 524 109 637 205 664 324 c 0
 668.262449643 342.267641325 670.300187821 359.955930707 670.300187821 376.817922297 c 0
 670.300187821 470.722228046 607.102431774 539 513 539 c 0
 402 539 291 443 264 324 c 0
436 769 m 0
 444 803 474 829 506 829 c 0
 532.88850442 829 549.892357103 810.64278963 549.892357103 784.607170307 c 0
 549.892357103 779.657807896 549.277873895 774.430964054 548 769 c 0
 540 735 510 709 478 709 c 0
 451.11149558 709 434.107642897 727.35721037 434.107642897 753.392829693 c 0
 434.107642897 758.342192104 434.722126105 763.569035946 436 769 c 0
585 769 m 0
 593 803 623 829 655 829 c 0
 681.88850442 829 698.892357103 810.64278963 698.892357103 784.607170307 c 0
 698.892357103 779.657807896 698.277873895 774.430964054 697 769 c 0
 689 735 659 709 627 709 c 0
 600.11149558 709 583.107642897 727.35721037 583.107642897 753.392829693 c 0
 583.107642897 758.342192104 583.722126105 763.569035946 585 769 c 0
EndSplineSet
Validated: 524289
Substitution2: "'ss05' Style Set 5 in Latin lookup 13 subtable" Odieresis.ss05
Substitution2: "'ss04' Style Set 4 in Latin lookup 12 subtable" Odieresis.ss04
AlternateSubs2: "'aalt' Access All Alternates in Latin lookup 1 subtable" Odieresis.ss04 Odieresis.ss05
EndChar

StartChar: Ograve
Encoding: 210 210 71
Width: 777
GlyphClass: 2
Flags: HMW
AnchorPoint: "Anchor-7" 420 808 basechar 0
AnchorPoint: "Anchor-6" 746 10 basechar 0
AnchorPoint: "Anchor-5" 420 0 basechar 0
LayerCount: 2
Fore
SplineSet
385 -16 m 0
 236.477983003 -16 138.376056367 93.4836247838 138.376056367 241.539425532 c 0
 138.376056367 267.934293141 141.493981319 295.555081117 148 324 c 0
 191 512 367 664 542 664 c 0
 690.68612458 664 789.562554748 554.27429637 789.562554748 405.96965596 c 0
 789.562554748 379.723294081 786.465695103 352.268620452 780 324 c 0
 737 136 560 -16 385 -16 c 0
264 324 m 0
 259.921670007 306.025138178 257.965216728 288.575041566 257.965216728 271.901291636 c 0
 257.965216728 178.188866621 319.76646775 109 414 109 c 0
 524 109 637 205 664 324 c 0
 668.262449643 342.267641325 670.300187821 359.955930707 670.300187821 376.817922297 c 0
 670.300187821 470.722228046 607.102431774 539 513 539 c 0
 402 539 291 443 264 324 c 0
469 808 m 1
 576 808 l 1
 604 708 l 1
 497 708 l 1
 469 808 l 1
EndSplineSet
Validated: 524289
Substitution2: "'ss05' Style Set 5 in Latin lookup 13 subtable" Ograve.ss05
Substitution2: "'ss04' Style Set 4 in Latin lookup 12 subtable" Ograve.ss04
AlternateSubs2: "'aalt' Access All Alternates in Latin lookup 1 subtable" Ograve.ss04 Ograve.ss05
EndChar

StartChar: Ohungarumlaut
Encoding: 336 336 72
Width: 777
GlyphClass: 2
Flags: HMW
AnchorPoint: "Anchor-7" 420 888 basechar 0
AnchorPoint: "Anchor-6" 746 10 basechar 0
AnchorPoint: "Anchor-5" 420 0 basechar 0
LayerCount: 2
Fore
SplineSet
385 -16 m 0
 236.477983003 -16 138.376056367 93.4836247838 138.376056367 241.539425532 c 0
 138.376056367 267.934293141 141.493981319 295.555081117 148 324 c 0
 191 512 367 664 542 664 c 0
 690.68612458 664 789.562554748 554.27429637 789.562554748 405.96965596 c 0
 789.562554748 379.723294081 786.465695103 352.268620452 780 324 c 0
 737 136 560 -16 385 -16 c 0
264 324 m 0
 259.921670007 306.025138178 257.965216728 288.575041566 257.965216728 271.901291636 c 0
 257.965216728 178.188866621 319.76646775 109 414 109 c 0
 524 109 637 205 664 324 c 0
 668.262449643 342.267641325 670.300187821 359.955930707 670.300187821 376.817922297 c 0
 670.300187821 470.722228046 607.102431774 539 513 539 c 0
 402 539 291 443 264 324 c 0
427 708 m 1
 521 888 l 1
 608 888 l 1
 514 708 l 1
 427 708 l 1
594 708 m 1
 688 888 l 1
 775 888 l 1
 682 708 l 1
 594 708 l 1
EndSplineSet
Validated: 524289
Substitution2: "'ss05' Style Set 5 in Latin lookup 13 subtable" Ohungarumlaut.ss05
Substitution2: "'ss04' Style Set 4 in Latin lookup 12 subtable" Ohungarumlaut.ss04
AlternateSubs2: "'aalt' Access All Alternates in Latin lookup 1 subtable" Ohungarumlaut.ss04 Ohungarumlaut.ss05
EndChar

StartChar: Omacron
Encoding: 332 332 73
Width: 777
GlyphClass: 2
Flags: HMW
AnchorPoint: "Anchor-7" 420 808 basechar 0
AnchorPoint: "Anchor-6" 746 10 basechar 0
AnchorPoint: "Anchor-5" 420 0 basechar 0
LayerCount: 2
Fore
SplineSet
385 -16 m 0
 236.477983003 -16 138.376056367 93.4836247838 138.376056367 241.539425532 c 0
 138.376056367 267.934293141 141.493981319 295.555081117 148 324 c 0
 191 512 367 664 542 664 c 0
 690.68612458 664 789.562554748 554.27429637 789.562554748 405.96965596 c 0
 789.562554748 379.723294081 786.465695103 352.268620452 780 324 c 0
 737 136 560 -16 385 -16 c 0
264 324 m 0
 259.921670007 306.025138178 257.965216728 288.575041566 257.965216728 271.901291636 c 0
 257.965216728 178.188866621 319.76646775 109 414 109 c 0
 524 109 637 205 664 324 c 0
 668.262449643 342.267641325 670.300187821 359.955930707 670.300187821 376.817922297 c 0
 670.300187821 470.722228046 607.102431774 539 513 539 c 0
 402 539 291 443 264 324 c 0
404 728 m 1
 422 808 l 1
 729 808 l 1
 711 728 l 1
 404 728 l 1
EndSplineSet
Validated: 524289
Substitution2: "'ss05' Style Set 5 in Latin lookup 13 subtable" Omacron.ss05
Substitution2: "'ss04' Style Set 4 in Latin lookup 12 subtable" Omacron.ss04
AlternateSubs2: "'aalt' Access All Alternates in Latin lookup 1 subtable" Omacron.ss04 Omacron.ss05
EndChar

StartChar: Oslash
Encoding: 216 216 74
Width: 796
GlyphClass: 1
Flags: HMW
LayerCount: 2
Fore
SplineSet
69 0 m 1xb8
 179 107 l 1
 158.20761922 145.335952062 147.125620536 190.426952539 147.125620536 240.078414885 c 0
 147.125620536 266.841809111 150.345476088 294.930237647 157 324 c 0
 200 512 377 664 552 664 c 0
 612 664 665 646 705 614 c 1xb8
 741 649 l 1
 877 649 l 1xd8
 766 542 l 1
 787.06637436 503.158872273 798.598152206 456.950101785 798.598152206 406.226804723 c 0
 798.598152206 379.900986534 795.491840224 352.359091503 789 324 c 0
 746 136 570 -16 395 -16 c 0
 335 -16 282 2 241 34 c 1
 205 0 l 1
 69 0 l 1xb8
269 324 m 0
 264.479532894 305.096228467 262.323402317 286.699100476 262.323402317 269.086223962 c 0
 262.323402317 243.840334529 266.753321771 220.205744018 275 199 c 1
 609 522 l 1
 585 536 557 544 524 544 c 0
 411 544 297 446 269 324 c 0
337 127 m 1
 361 112 389 104 422 104 c 0
 535 104 650 202 678 324 c 0
 682.450017229 343.013709981 684.60881837 361.372786793 684.60881837 378.878608013 c 0
 684.60881837 404.64543575 679.931794687 428.563692751 671 450 c 1
 337 127 l 1
EndSplineSet
Validated: 524289
Substitution2: "'ss05' Style Set 5 in Latin lookup 13 subtable" Oslash.ss05
Substitution2: "'ss04' Style Set 4 in Latin lookup 12 subtable" Oslash.ss04
AlternateSubs2: "'aalt' Access All Alternates in Latin lookup 1 subtable" Oslash.ss04 Oslash.ss05
EndChar

StartChar: Otilde
Encoding: 213 213 75
Width: 777
GlyphClass: 2
Flags: HMW
AnchorPoint: "Anchor-7" 420 813 basechar 0
AnchorPoint: "Anchor-6" 746 10 basechar 0
AnchorPoint: "Anchor-5" 420 0 basechar 0
LayerCount: 2
Fore
SplineSet
385 -16 m 0xe240
 236.477983003 -16 138.376056367 93.4836247838 138.376056367 241.539425532 c 0
 138.376056367 267.934293141 141.493981319 295.555081117 148 324 c 0
 191 512 367 664 542 664 c 0
 690.68612458 664 789.562554748 554.27429637 789.562554748 405.96965596 c 0
 789.562554748 379.723294081 786.465695103 352.268620452 780 324 c 0
 737 136 560 -16 385 -16 c 0xe240
264 324 m 0
 259.921670007 306.025138178 257.965216728 288.575041566 257.965216728 271.901291636 c 0
 257.965216728 178.188866621 319.76646775 109 414 109 c 0
 524 109 637 205 664 324 c 0
 668.262449643 342.267641325 670.300187821 359.955930707 670.300187821 376.817922297 c 0
 670.300187821 470.722228046 607.102431774 539 513 539 c 0
 402 539 291 443 264 324 c 0
421 709 m 1xcb40
 434 766 484 813 534 813 c 0xc740
 575 813 579 774 614 774 c 0xe2c0
 630 774 643 789 647 808 c 1
 712 808 l 1xd2c0
 699 750 648 704 598 704 c 0xe2c0
 552 704 542 743 518 743 c 0xc740
 502 743 490 726 486 709 c 1
 421 709 l 1xcb40
EndSplineSet
Validated: 524289
Substitution2: "'ss05' Style Set 5 in Latin lookup 13 subtable" Otilde.ss05
Substitution2: "'ss04' Style Set 4 in Latin lookup 12 subtable" Otilde.ss04
AlternateSubs2: "'aalt' Access All Alternates in Latin lookup 1 subtable" Otilde.ss04 Otilde.ss05
EndChar

StartChar: OE
Encoding: 338 338 76
Width: 763
GlyphClass: 1
Flags: HMW
LayerCount: 2
Fore
SplineSet
508 535 m 1xae
 499 535 l 2
 385 535 287 447 259 325 c 0
 254.255840909 304.15958685 251.951858943 284.352660482 251.951858943 265.82729065 c 0
 251.951858943 175.016032991 307.315504871 115 402 115 c 2
 411 115 l 1
 508 535 l 1xae
148 325 m 0x7480
 193 519 340 650 516 650 c 2
 646 650 l 1
 646 649 l 1
 832 649 l 1
 804 529 l 1x7480
 618 529 l 1
 585 384 l 1x76
 724 384 l 1
 696 264 l 1x75
 557 264 l 1
 524 120 l 1x76
 710 120 l 1
 682 0 l 1
 366 0 l 2
 220.882633735 0 136.271964566 88.3805687928 136.271964566 228.705469526 c 0
 136.271964566 258.568211834 140.103872056 290.783445578 148 325 c 0x7480
EndSplineSet
Validated: 524289
EndChar

StartChar: P
Encoding: 80 80 77
Width: 559
GlyphClass: 2
Flags: HMW
AnchorPoint: "Anchor-7" 313 650 basechar 0
AnchorPoint: "Anchor-5" 313 0 basechar 0
LayerCount: 2
Fore
SplineSet
241 650 m 1
 446 650 l 2
 545.208619767 650 602.72395034 590.535800657 602.72395034 495.905536944 c 0
 602.72395034 476.073653394 600.197845058 454.697256754 595 432 c 0
 565 301 465 214 345 214 c 2
 252 214 l 1
 203 0 l 1
 91 0 l 1
 241 650 l 1
279 329 m 1
 367 329 l 2
 423 329 470 373 484 432 c 0
 486.402020254 442.12279964 487.567675943 451.804040507 487.567675943 460.897254219 c 0
 487.567675943 504.803173955 460.391918986 535 414 535 c 2
 326 535 l 1
 279 329 l 1
EndSplineSet
Validated: 1572865
EndChar

StartChar: Thorn
Encoding: 222 222 78
Width: 554
GlyphClass: 2
Flags: HMW
AnchorPoint: "Anchor-7" 313 649 basechar 0
AnchorPoint: "Anchor-5" 313 0 basechar 0
LayerCount: 2
Fore
SplineSet
91 0 m 1
 253 701 l 1
 364 701 l 1
 329 549 l 1
 422 549 l 2
 521.41125497 549 579.645019878 489.292639412 579.645019878 394.325245517 c 0
 579.645019878 374.656854249 577.147186258 353.476046658 572 331 c 0
 542 200 442 113 322 113 c 2
 229 113 l 1
 203 0 l 1
 91 0 l 1
256 233 m 1
 345 233 l 2
 400 233 447 273 460 331 c 0
 462.402020254 341.12279964 463.567675943 350.656854249 463.567675943 359.506201785 c 0
 463.567675943 402.23463146 436.391918986 429 390 429 c 2
 302 429 l 1
 256 233 l 1
EndSplineSet
Validated: 1572865
EndChar

StartChar: Q
Encoding: 81 81 79
Width: 810
GlyphClass: 2
Flags: HMW
AnchorPoint: "Anchor-7" 420 664 basechar 0
AnchorPoint: "Anchor-5" 420 -16 basechar 0
LayerCount: 2
Fore
SplineSet
597 0 m 1x5c
 571 39 l 1
 513 4 449 -16 385 -16 c 0xbc
 236.477983003 -16 138.376056367 93.4836247838 138.376056367 241.539425532 c 0
 138.376056367 267.934293141 141.493981319 295.555081117 148 324 c 0
 191 512 367 664 542 664 c 0
 690.68612458 664 789.562554748 554.27429637 789.562554748 405.96965596 c 0
 789.562554748 379.723294081 786.465695103 352.268620452 780 324 c 0
 762 244 720 171 664 114 c 1
 738 0 l 1
 597 0 l 1x5c
264 324 m 0
 259.921670007 306.025138178 257.965216728 288.575041566 257.965216728 271.901291636 c 0
 257.965216728 178.188866621 319.76646775 109 414 109 c 0xbc
 446 109 479 117 509 132 c 1
 437 238 l 1
 583 238 l 1
 604 206 l 1x3c
 632 240 654 280 664 324 c 0
 668.262449643 342.267641325 670.300187821 359.955930707 670.300187821 376.817922297 c 0
 670.300187821 470.722228046 607.102431774 539 513 539 c 0
 402 539 291 443 264 324 c 0
EndSplineSet
Validated: 1572865
Substitution2: "'ss05' Style Set 5 in Latin lookup 13 subtable" Q.ss05
Substitution2: "'ss04' Style Set 4 in Latin lookup 12 subtable" Q.ss04
AlternateSubs2: "'aalt' Access All Alternates in Latin lookup 1 subtable" Q.ss04 Q.ss05
EndChar

StartChar: R
Encoding: 82 82 80
Width: 570
GlyphClass: 2
Flags: HMW
AnchorPoint: "Anchor-7" 289 649 basechar 0
AnchorPoint: "Anchor-5" 319 0 basechar 0
LayerCount: 2
Fore
SplineSet
381 0 m 1
 333 214 l 1
 252 214 l 1
 203 0 l 1
 91 0 l 1
 241 650 l 1
 446 650 l 2
 545.208619767 650 602.72395034 590.535800657 602.72395034 495.905536944 c 0
 602.72395034 476.073653394 600.197845058 454.697256754 595 432 c 0
 574 339 518 269 444 235 c 1
 497 0 l 1
 381 0 l 1
279 329 m 1
 367 329 l 2
 423 329 470 373 484 432 c 0
 486.402020254 442.12279964 487.567675943 451.804040507 487.567675943 460.897254219 c 0
 487.567675943 504.803173955 460.391918986 535 414 535 c 2
 326 535 l 1
 279 329 l 1
EndSplineSet
Validated: 1572865
EndChar

StartChar: Racute
Encoding: 340 340 81
Width: 570
GlyphClass: 2
Flags: HMW
AnchorPoint: "Anchor-7" 289 809 basechar 0
AnchorPoint: "Anchor-5" 319 0 basechar 0
LayerCount: 2
Fore
SplineSet
381 0 m 1
 333 214 l 1
 252 214 l 1
 203 0 l 1
 91 0 l 1
 241 650 l 1
 446 650 l 2
 545.208619767 650 602.72395034 590.535800657 602.72395034 495.905536944 c 0
 602.72395034 476.073653394 600.197845058 454.697256754 595 432 c 0
 574 339 518 269 444 235 c 1
 497 0 l 1
 381 0 l 1
279 329 m 1
 367 329 l 2
 423 329 470 373 484 432 c 0
 486.402020254 442.12279964 487.567675943 451.804040507 487.567675943 460.897254219 c 0
 487.567675943 504.803173955 460.391918986 535 414 535 c 2
 326 535 l 1
 279 329 l 1
379 709 m 1
 454 809 l 1
 560 809 l 1
 486 709 l 1
 379 709 l 1
EndSplineSet
Validated: 1572865
EndChar

StartChar: Rcaron
Encoding: 344 344 82
Width: 570
GlyphClass: 2
Flags: HMW
AnchorPoint: "Anchor-7" 289 799 basechar 0
AnchorPoint: "Anchor-5" 319 0 basechar 0
LayerCount: 2
Fore
SplineSet
381 0 m 1
 333 214 l 1
 252 214 l 1
 203 0 l 1
 91 0 l 1
 241 650 l 1
 446 650 l 2
 545.208619767 650 602.72395034 590.535800657 602.72395034 495.905536944 c 0
 602.72395034 476.073653394 600.197845058 454.697256754 595 432 c 0
 574 339 518 269 444 235 c 1
 497 0 l 1
 381 0 l 1
337 808 m 1
 444 808 l 1
 451 799 l 1
 463 808 l 1
 570 808 l 1
 441 719 l 1
 424 719 l 1
 337 808 l 1
279 329 m 1
 367 329 l 2
 423 329 470 373 484 432 c 0
 486.402020254 442.12279964 487.567675943 451.804040507 487.567675943 460.897254219 c 0
 487.567675943 504.803173955 460.391918986 535 414 535 c 2
 326 535 l 1
 279 329 l 1
EndSplineSet
Validated: 1572865
EndChar

StartChar: uni0156
Encoding: 342 342 83
Width: 570
GlyphClass: 2
Flags: HMW
AnchorPoint: "Anchor-7" 289 649 basechar 0
AnchorPoint: "Anchor-5" 279 -210 basechar 0
LayerCount: 2
Fore
SplineSet
381 0 m 1
 333 214 l 1
 252 214 l 1
 203 0 l 1
 91 0 l 1
 241 650 l 1
 446 650 l 2
 545.208619767 650 602.72395034 590.535800657 602.72395034 495.905536944 c 0
 602.72395034 476.073653394 600.197845058 454.697256754 595 432 c 0
 574 339 518 269 444 235 c 1
 497 0 l 1
 381 0 l 1
136 -210 m 1
 239 -56 l 1
 317 -56 l 1
 215 -210 l 1
 136 -210 l 1
279 329 m 1
 367 329 l 2
 423 329 470 373 484 432 c 0
 486.402020254 442.12279964 487.567675943 451.804040507 487.567675943 460.897254219 c 0
 487.567675943 504.803173955 460.391918986 535 414 535 c 2
 326 535 l 1
 279 329 l 1
EndSplineSet
Validated: 1572865
EndChar

StartChar: S
Encoding: 83 83 84
Width: 518
GlyphClass: 2
Flags: HMW
AnchorPoint: "Anchor-7" 280 650 basechar 0
AnchorPoint: "Anchor-5" 280 0 basechar 0
LayerCount: 2
Fore
SplineSet
108 0 m 1xea
 134 115 l 1
 281 115 l 2
 341 115 388 155 402 216 c 0
 404.171439361 225.52092643 405.226867149 234.455946784 405.226867149 242.744477275 c 0
 405.226867149 284.077823548 378.980174961 309.334067594 334 311 c 1xea
 313 223 l 1
 307 223 l 2
 196.640681471 223 147.326480271 290.149629061 147.326480271 374.732147402 c 0
 147.326480271 392.851037595 149.589425099 411.76989343 154 431 c 0
 179 540 272 650 406 650 c 2
 514 650 l 1
 488 535 l 1
 387 535 l 2
 327 535 280 494 266 433 c 0
 263.828560639 423.47907357 262.773132851 414.544053216 262.773132851 406.255522725 c 0
 262.773132851 364.922176452 289.019825039 339.665932406 334 338 c 1xf4
 355 426 l 1
 361 426 l 2
 471.359318529 426 520.673519729 358.850370939 520.673519729 274.267852598 c 0
 520.673519729 256.148962405 518.410574901 237.23010657 514 218 c 0
 489 109 397 0 263 0 c 2
 108 0 l 1xea
EndSplineSet
Validated: 1572865
EndChar

StartChar: Sacute
Encoding: 346 346 85
Width: 518
GlyphClass: 2
Flags: HMW
AnchorPoint: "Anchor-7" 280 810 basechar 0
AnchorPoint: "Anchor-5" 280 0 basechar 0
LayerCount: 2
Fore
SplineSet
108 0 m 1xf5
 134 115 l 1
 281 115 l 2
 341 115 388 155 402 216 c 0
 404.171439361 225.52092643 405.226867149 234.455946784 405.226867149 242.744477275 c 0
 405.226867149 284.077823548 378.980174961 309.334067594 334 311 c 1xf5
 313 223 l 1
 307 223 l 2
 196.640681471 223 147.326480271 290.149629061 147.326480271 374.732147402 c 0
 147.326480271 392.851037595 149.589425099 411.76989343 154 431 c 0
 179 540 272 650 406 650 c 2
 514 650 l 1
 488 535 l 1
 387 535 l 2
 327 535 280 494 266 433 c 0
 263.828560639 423.47907357 262.773132851 414.544053216 262.773132851 406.255522725 c 0
 262.773132851 364.922176452 289.019825039 339.665932406 334 338 c 1xfa
 355 426 l 1
 361 426 l 2
 471.359318529 426 520.673519729 358.850370939 520.673519729 274.267852598 c 0
 520.673519729 256.148962405 518.410574901 237.23010657 514 218 c 0
 489 109 397 0 263 0 c 2
 108 0 l 1xf5
372 710 m 1
 446 810 l 1
 553 810 l 1
 479 710 l 1
 372 710 l 1
EndSplineSet
Validated: 1572865
EndChar

StartChar: Scaron
Encoding: 352 352 86
Width: 518
GlyphClass: 2
Flags: HMW
AnchorPoint: "Anchor-7" 280 800 basechar 0
AnchorPoint: "Anchor-5" 280 0 basechar 0
LayerCount: 2
Fore
SplineSet
108 0 m 1xf5
 134 115 l 1
 281 115 l 2
 341 115 388 155 402 216 c 0
 404.171439361 225.52092643 405.226867149 234.455946784 405.226867149 242.744477275 c 0
 405.226867149 284.077823548 378.980174961 309.334067594 334 311 c 1xf5
 313 223 l 1
 307 223 l 2
 196.640681471 223 147.326480271 290.149629061 147.326480271 374.732147402 c 0
 147.326480271 392.851037595 149.589425099 411.76989343 154 431 c 0
 179 540 272 650 406 650 c 2
 514 650 l 1
 488 535 l 1
 387 535 l 2
 327 535 280 494 266 433 c 0
 263.828560639 423.47907357 262.773132851 414.544053216 262.773132851 406.255522725 c 0
 262.773132851 364.922176452 289.019825039 339.665932406 334 338 c 1xfa
 355 426 l 1
 361 426 l 2
 471.359318529 426 520.673519729 358.850370939 520.673519729 274.267852598 c 0
 520.673519729 256.148962405 518.410574901 237.23010657 514 218 c 0
 489 109 397 0 263 0 c 2
 108 0 l 1xf5
330 809 m 1
 437 809 l 1
 444 800 l 1
 455 809 l 1
 562 809 l 1
 434 720 l 1
 417 720 l 1
 330 809 l 1
EndSplineSet
Validated: 1572865
EndChar

StartChar: Scedilla
Encoding: 350 350 87
Width: 518
GlyphClass: 2
Flags: HMW
AnchorPoint: "Anchor-7" 280 650 basechar 0
AnchorPoint: "Anchor-5" 259 -244 basechar 0
LayerCount: 2
Fore
SplineSet
108 0 m 1x7440
 134 115 l 1
 281 115 l 2
 341 115 388 155 402 216 c 0
 404.171439361 225.52092643 405.226867149 234.455946784 405.226867149 242.744477275 c 0
 405.226867149 284.077823548 378.980174961 309.334067594 334 311 c 1x7440
 313 223 l 1
 307 223 l 2
 196.640681471 223 147.326480271 290.149629061 147.326480271 374.732147402 c 0
 147.326480271 392.851037595 149.589425099 411.76989343 154 431 c 0
 179 540 272 650 406 650 c 2
 514 650 l 1
 488 535 l 1
 387 535 l 2
 327 535 280 494 266 433 c 0
 263.828560639 423.47907357 262.773132851 414.544053216 262.773132851 406.255522725 c 0
 262.773132851 364.922176452 289.019825039 339.665932406 334 338 c 1x79
 355 426 l 1
 361 426 l 2
 471.359318529 426 520.673519729 358.850370939 520.673519729 274.267852598 c 0
 520.673519729 256.148962405 518.410574901 237.23010657 514 218 c 0
 489 109 397 0 263 0 c 2
 108 0 l 1x7440
183 -244 m 1xfa
 202 -165 l 1x7a
 212 -165 222 -156 225 -145 c 0xf880
 228 -134 221 -125 211 -125 c 1
 229 -46 l 1
 276.241440412 -46 303.562641651 -73.4761919629 303.562641651 -116.473175629 c 0
 303.562641651 -125.354967199 302.396839197 -134.899034812 300 -145 c 0
 286 -204 240 -244 183 -244 c 1xfa
EndSplineSet
Validated: 1572865
Substitution2: "'locl' Localized Forms in Latin lookup 4 subtable" uni0218
Substitution2: "'aalt' Access All Alternates in Latin lookup 0 subtable" uni0218
EndChar

StartChar: uni0218
Encoding: 536 536 88
Width: 518
GlyphClass: 2
Flags: HMW
AnchorPoint: "Anchor-7" 280 650 basechar 0
AnchorPoint: "Anchor-5" 240 -210 basechar 0
LayerCount: 2
Fore
SplineSet
108 0 m 1xf5
 134 115 l 1
 281 115 l 2
 341 115 388 155 402 216 c 0
 404.171439361 225.52092643 405.226867149 234.455946784 405.226867149 242.744477275 c 0
 405.226867149 284.077823548 378.980174961 309.334067594 334 311 c 1xf5
 313 223 l 1
 307 223 l 2
 196.640681471 223 147.326480271 290.149629061 147.326480271 374.732147402 c 0
 147.326480271 392.851037595 149.589425099 411.76989343 154 431 c 0
 179 540 272 650 406 650 c 2
 514 650 l 1
 488 535 l 1
 387 535 l 2
 327 535 280 494 266 433 c 0
 263.828560639 423.47907357 262.773132851 414.544053216 262.773132851 406.255522725 c 0
 262.773132851 364.922176452 289.019825039 339.665932406 334 338 c 1xfa
 355 426 l 1
 361 426 l 2
 471.359318529 426 520.673519729 358.850370939 520.673519729 274.267852598 c 0
 520.673519729 256.148962405 518.410574901 237.23010657 514 218 c 0
 489 109 397 0 263 0 c 2
 108 0 l 1xf5
101 -210 m 1
 203 -56 l 1
 282 -56 l 1
 179 -210 l 1
 101 -210 l 1
EndSplineSet
Validated: 1572865
EndChar

StartChar: uni1E9E
Encoding: 7838 7838 89
Width: 568
GlyphClass: 1
Flags: HMW
LayerCount: 2
Fore
SplineSet
376 535 m 2xe8
 375.460649477 535.017978351 374.922591838 535.026906511 374.385908438 535.026906511 c 0
 345.07094374 535.026906511 319.856173194 508.388736074 312 475 c 2
 203 0 l 1
 91 0 l 1
 201 475 l 2
 225 580 306 650 403 650 c 2
 666 650 l 1
 513 404 l 1
 555.105079131 375.929947246 580.18702545 327.796916534 580.18702545 269.555912782 c 0
 580.18702545 253.102502761 578.185249935 235.842381303 574 218 c 0xe8
 546 96 436 0 323 0 c 2
 268 0 l 1
 294 115 l 1xf0
 344 115 l 2
 406 115 450 168 462 218 c 0
 463.953090617 226.700130932 464.960421823 235.400261864 464.960421823 243.826118438 c 0
 464.960421823 282.855521492 443.346778451 316 394 316 c 2
 348 316 l 1
 484 535 l 1
 376 535 l 2xe8
EndSplineSet
Validated: 524289
EndChar

StartChar: T
Encoding: 84 84 90
Width: 495
GlyphClass: 2
Flags: HMW
AnchorPoint: "Anchor-7" 268 650 basechar 0
AnchorPoint: "Anchor-5" 268 0 basechar 0
LayerCount: 2
Fore
SplineSet
169 535 m 1xc0
 196 650 l 1xc0
 600 650 l 1
 574 535 l 1x90
 428 535 l 1
 304 0 l 1
 192 0 l 1
 316 535 l 1xa0
 169 535 l 1xc0
EndSplineSet
Validated: 1048577
EndChar

StartChar: Tbar
Encoding: 358 358 91
Width: 495
GlyphClass: 2
Flags: HMW
AnchorPoint: "Anchor-7" 268 650 basechar 0
AnchorPoint: "Anchor-5" 268 0 basechar 0
LayerCount: 2
Fore
SplineSet
179 326 m 1
 268 326 l 1
 316 535 l 1
 169 535 l 1
 196 650 l 1
 600 650 l 1
 574 535 l 1
 428 535 l 1
 379 326 l 1
 468 326 l 1
 445 226 l 1
 356 226 l 1
 304 0 l 1
 192 0 l 1
 245 226 l 1
 156 226 l 1
 179 326 l 1
EndSplineSet
Validated: 1048577
EndChar

StartChar: Tcaron
Encoding: 356 356 92
Width: 495
GlyphClass: 2
Flags: HMW
AnchorPoint: "Anchor-7" 268 800 basechar 0
AnchorPoint: "Anchor-5" 268 0 basechar 0
LayerCount: 2
Fore
SplineSet
169 535 m 1xb0
 196 650 l 1xb0
 600 650 l 1
 574 535 l 1xa4
 428 535 l 1
 304 0 l 1
 192 0 l 1
 316 535 l 1xa8
 169 535 l 1xb0
319 809 m 1x50
 426 809 l 1
 433 800 l 1
 444 809 l 1
 551 809 l 1x48
 423 720 l 1
 406 720 l 1xb0
 319 809 l 1x50
EndSplineSet
Validated: 1048577
EndChar

StartChar: uni0162
Encoding: 354 354 93
Width: 495
GlyphClass: 2
Flags: HMW
AnchorPoint: "Anchor-7" 268 650 basechar 0
AnchorPoint: "Anchor-5" 247 -244 basechar 0
LayerCount: 2
Fore
SplineSet
169 535 m 1x60
 196 650 l 1x60
 600 650 l 1
 574 535 l 1x48
 428 535 l 1
 304 0 l 1
 192 0 l 1
 316 535 l 1x50
 169 535 l 1x60
172 -244 m 1x44
 191 -165 l 1x44
 201 -165 211 -156 214 -145 c 0xc1
 217 -134 210 -125 200 -125 c 1
 218 -46 l 1xc4
 265.241440412 -46 292.562641651 -73.4761919629 292.562641651 -116.473175629 c 0
 292.562641651 -125.354967199 291.396839197 -134.899034812 289 -145 c 0xc2
 275 -204 229 -244 172 -244 c 1x44
EndSplineSet
Validated: 1572865
Substitution2: "'locl' Localized Forms in Latin lookup 4 subtable" uni021A
Substitution2: "'aalt' Access All Alternates in Latin lookup 0 subtable" uni021A
EndChar

StartChar: uni021A
Encoding: 538 538 94
Width: 495
GlyphClass: 2
Flags: HMW
AnchorPoint: "Anchor-7" 268 650 basechar 0
AnchorPoint: "Anchor-5" 228 -210 basechar 0
LayerCount: 2
Fore
SplineSet
169 535 m 1x60
 196 650 l 1xe0
 600 650 l 1
 574 535 l 1x48
 428 535 l 1
 304 0 l 1
 192 0 l 1
 316 535 l 1x50
 169 535 l 1x60
90 -210 m 1
 193 -56 l 1
 271 -56 l 1
 168 -210 l 1
 90 -210 l 1
EndSplineSet
Validated: 1048577
EndChar

StartChar: U
Encoding: 85 85 95
Width: 637
GlyphClass: 2
Flags: HMW
AnchorPoint: "Anchor-7" 345 650 basechar 0
AnchorPoint: "Anchor-6" 397 0 basechar 0
AnchorPoint: "Anchor-5" 345 0 basechar 0
LayerCount: 2
Fore
SplineSet
342 102 m 0
 413 102 470 153 488 230 c 2
 585 650 l 1
 697 650 l 1
 597 220 l 2
 564 79 452 -15 315 -15 c 0
 200.793831306 -15 133.842568564 50.3229582269 133.842568564 153.741557941 c 0
 133.842568564 174.382352941 136.509515087 196.540655371 142 220 c 2
 241 650 l 1
 353 650 l 1
 256 230 l 2
 252.74867969 216.09157423 251.161326268 203.031445305 251.161326268 190.966946812 c 0
 251.161326268 136.239818465 283.824652333 102 342 102 c 0
EndSplineSet
Validated: 524289
EndChar

StartChar: Uacute
Encoding: 218 218 96
Width: 637
GlyphClass: 2
Flags: HMW
AnchorPoint: "Anchor-7" 345 810 basechar 0
AnchorPoint: "Anchor-6" 397 0 basechar 0
AnchorPoint: "Anchor-5" 345 0 basechar 0
LayerCount: 2
Fore
SplineSet
342 102 m 0
 413 102 470 153 488 230 c 2
 585 650 l 1
 697 650 l 1
 597 220 l 2
 564 79 452 -15 315 -15 c 0
 200.793831306 -15 133.842568564 50.3229582269 133.842568564 153.741557941 c 0
 133.842568564 174.382352941 136.509515087 196.540655371 142 220 c 2
 241 650 l 1
 353 650 l 1
 256 230 l 2
 252.74867969 216.09157423 251.161326268 203.031445305 251.161326268 190.966946812 c 0
 251.161326268 136.239818465 283.824652333 102 342 102 c 0
432 710 m 1
 506 810 l 1
 613 810 l 1
 539 710 l 1
 432 710 l 1
EndSplineSet
Validated: 524289
EndChar

StartChar: Ucircumflex
Encoding: 219 219 97
Width: 637
GlyphClass: 2
Flags: HMW
AnchorPoint: "Anchor-7" 345 800 basechar 0
AnchorPoint: "Anchor-6" 397 0 basechar 0
AnchorPoint: "Anchor-5" 345 0 basechar 0
LayerCount: 2
Fore
SplineSet
342 102 m 0
 413 102 470 153 488 230 c 2
 585 650 l 1
 697 650 l 1
 597 220 l 2
 564 79 452 -15 315 -15 c 0
 200.793831306 -15 133.842568564 50.3229582269 133.842568564 153.741557941 c 0
 133.842568564 174.382352941 136.509515087 196.540655371 142 220 c 2
 241 650 l 1
 353 650 l 1
 256 230 l 2
 252.74867969 216.09157423 251.161326268 203.031445305 251.161326268 190.966946812 c 0
 251.161326268 136.239818465 283.824652333 102 342 102 c 0
367 711 m 1
 495 800 l 1
 512 800 l 1
 599 711 l 1
 492 711 l 1
 485 720 l 1
 474 711 l 1
 367 711 l 1
EndSplineSet
Validated: 524289
EndChar

StartChar: Udieresis
Encoding: 220 220 98
Width: 637
GlyphClass: 2
Flags: HMW
AnchorPoint: "Anchor-7" 345 831 basechar 0
AnchorPoint: "Anchor-6" 397 0 basechar 0
AnchorPoint: "Anchor-5" 345 0 basechar 0
LayerCount: 2
Fore
SplineSet
342 102 m 0xe4
 413 102 470 153 488 230 c 2
 585 650 l 1
 697 650 l 1
 597 220 l 2
 564 79 452 -15 315 -15 c 0
 200.793831306 -15 133.842568564 50.3229582269 133.842568564 153.741557941 c 0
 133.842568564 174.382352941 136.509515087 196.540655371 142 220 c 2
 241 650 l 1
 353 650 l 1
 256 230 l 2
 252.74867969 216.09157423 251.161326268 203.031445305 251.161326268 190.966946812 c 0
 251.161326268 136.239818465 283.824652333 102 342 102 c 0xe4
367 771 m 0xd8
 375 805 404 831 436 831 c 0
 462.88850442 831 479.892357103 812.64278963 479.892357103 786.607170307 c 0
 479.892357103 781.657807896 479.277873895 776.430964054 478 771 c 0
 470 737 441 711 409 711 c 0
 382.11149558 711 365.107642897 729.35721037 365.107642897 755.392829693 c 0
 365.107642897 760.342192104 365.722126105 765.569035946 367 771 c 0xd8
515 771 m 0
 523 805 553 831 585 831 c 0
 611.88850442 831 628.892357103 812.64278963 628.892357103 786.607170307 c 0
 628.892357103 781.657807896 628.277873895 776.430964054 627 771 c 0
 619 737 589 711 557 711 c 0
 530.11149558 711 513.107642897 729.35721037 513.107642897 755.392829693 c 0
 513.107642897 760.342192104 513.722126105 765.569035946 515 771 c 0
EndSplineSet
Validated: 524289
EndChar

StartChar: Ugrave
Encoding: 217 217 99
Width: 637
GlyphClass: 2
Flags: HMW
AnchorPoint: "Anchor-7" 345 810 basechar 0
AnchorPoint: "Anchor-6" 397 0 basechar 0
AnchorPoint: "Anchor-5" 345 0 basechar 0
LayerCount: 2
Fore
SplineSet
342 102 m 0
 413 102 470 153 488 230 c 2
 585 650 l 1
 697 650 l 1
 597 220 l 2
 564 79 452 -15 315 -15 c 0
 200.793831306 -15 133.842568564 50.3229582269 133.842568564 153.741557941 c 0
 133.842568564 174.382352941 136.509515087 196.540655371 142 220 c 2
 241 650 l 1
 353 650 l 1
 256 230 l 2
 252.74867969 216.09157423 251.161326268 203.031445305 251.161326268 190.966946812 c 0
 251.161326268 136.239818465 283.824652333 102 342 102 c 0
399 810 m 1
 506 810 l 1
 534 710 l 1
 427 710 l 1
 399 810 l 1
EndSplineSet
Validated: 524289
EndChar

StartChar: Uhungarumlaut
Encoding: 368 368 100
Width: 637
GlyphClass: 2
Flags: HMW
AnchorPoint: "Anchor-7" 345 890 basechar 0
AnchorPoint: "Anchor-6" 397 0 basechar 0
AnchorPoint: "Anchor-5" 345 0 basechar 0
LayerCount: 2
Fore
SplineSet
342 102 m 0
 413 102 470 153 488 230 c 2
 585 650 l 1
 697 650 l 1
 597 220 l 2
 564 79 452 -15 315 -15 c 0
 200.793831306 -15 133.842568564 50.3229582269 133.842568564 153.741557941 c 0
 133.842568564 174.382352941 136.509515087 196.540655371 142 220 c 2
 241 650 l 1
 353 650 l 1
 256 230 l 2
 252.74867969 216.09157423 251.161326268 203.031445305 251.161326268 190.966946812 c 0
 251.161326268 136.239818465 283.824652333 102 342 102 c 0
357 710 m 1
 451 890 l 1
 538 890 l 1
 445 710 l 1
 357 710 l 1
525 710 m 1
 618 890 l 1
 706 890 l 1
 612 710 l 1
 525 710 l 1
EndSplineSet
Validated: 524289
EndChar

StartChar: Umacron
Encoding: 362 362 101
Width: 637
GlyphClass: 2
Flags: HMW
AnchorPoint: "Anchor-7" 345 810 basechar 0
AnchorPoint: "Anchor-6" 397 0 basechar 0
AnchorPoint: "Anchor-5" 345 0 basechar 0
LayerCount: 2
Fore
SplineSet
342 102 m 0xe4
 413 102 470 153 488 230 c 2
 585 650 l 1
 697 650 l 1
 597 220 l 2
 564 79 452 -15 315 -15 c 0
 200.793831306 -15 133.842568564 50.3229582269 133.842568564 153.741557941 c 0
 133.842568564 174.382352941 136.509515087 196.540655371 142 220 c 2
 241 650 l 1
 353 650 l 1
 256 230 l 2
 252.74867969 216.09157423 251.161326268 203.031445305 251.161326268 190.966946812 c 0
 251.161326268 136.239818465 283.824652333 102 342 102 c 0xe4
334 730 m 1xd8
 352 810 l 1
 659 810 l 1
 641 730 l 1
 334 730 l 1xd8
EndSplineSet
Validated: 524289
EndChar

StartChar: Uogonek
Encoding: 370 370 102
Width: 637
GlyphClass: 2
Flags: HMW
AnchorPoint: "Anchor-7" 345 650 basechar 0
AnchorPoint: "Anchor-6" 397 0 basechar 0
AnchorPoint: "Anchor-5" 345 0 basechar 0
LayerCount: 2
Fore
SplineSet
342 102 m 0
 413 102 470 153 488 230 c 2
 585 650 l 1
 697 650 l 1
 597 220 l 2
 572 112 500 31 406 0 c 1
 326 -120 l 1
 436 -120 l 1
 418 -200 l 1
 195 -200 l 1
 318 -15 l 1
 315 -15 l 2
 200.793831306 -15 133.842568564 50.3229582269 133.842568564 153.741557941 c 0
 133.842568564 174.382352941 136.509515087 196.540655371 142 220 c 2
 241 650 l 1
 353 650 l 1
 256 230 l 2
 252.74867969 216.09157423 251.161326268 203.031445305 251.161326268 190.966946812 c 0
 251.161326268 136.239818465 283.824652333 102 342 102 c 0
EndSplineSet
Validated: 524289
EndChar

StartChar: Uring
Encoding: 366 366 103
Width: 637
GlyphClass: 2
Flags: HMW
AnchorPoint: "Anchor-7" 345 870 basechar 0
AnchorPoint: "Anchor-6" 397 0 basechar 0
AnchorPoint: "Anchor-5" 345 0 basechar 0
LayerCount: 2
Fore
SplineSet
342 102 m 0
 413 102 470 153 488 230 c 2
 585 650 l 1
 697 650 l 1
 597 220 l 2
 564 79 452 -15 315 -15 c 0
 200.793831306 -15 133.842568564 50.3229582269 133.842568564 153.741557941 c 0
 133.842568564 174.382352941 136.509515087 196.540655371 142 220 c 2
 241 650 l 1
 353 650 l 1
 256 230 l 2
 252.74867969 216.09157423 251.161326268 203.031445305 251.161326268 190.966946812 c 0
 251.161326268 136.239818465 283.824652333 102 342 102 c 0
420 784 m 0
 431 832 475 870 520 870 c 0
 558.049693161 870 582.515285659 842.831798673 582.515285659 805.422161094 c 0
 582.515285659 798.588769329 581.698963894 791.413660628 580 784 c 0
 569 736 525 698 480 698 c 0
 441.950306839 698 417.484714341 725.168201327 417.484714341 762.577838906 c 0
 417.484714341 769.411230671 418.301036106 776.586339372 420 784 c 0
467 784 m 0
 466.446221995 781.369554475 466.179947189 778.79660959 466.179947189 776.315661483 c 0
 466.179947189 760.876446037 476.492001024 749 492 749 c 0
 510 749 528 765 532 784 c 0
 532.590081968 786.802889346 532.875491798 789.540491806 532.875491798 792.171072379 c 0
 532.875491798 807.372459012 523.344631146 819 508 819 c 0
 490 819 471 803 467 784 c 0
EndSplineSet
Validated: 524289
EndChar

StartChar: Utilde
Encoding: 360 360 104
Width: 637
GlyphClass: 2
Flags: HMW
AnchorPoint: "Anchor-7" 345 815 basechar 0
AnchorPoint: "Anchor-6" 397 0 basechar 0
AnchorPoint: "Anchor-5" 345 0 basechar 0
LayerCount: 2
Fore
SplineSet
342 102 m 0xc440
 413 102 470 153 488 230 c 2
 585 650 l 1
 697 650 l 1
 597 220 l 2
 564 79 452 -15 315 -15 c 0
 200.793831306 -15 133.842568564 50.3229582269 133.842568564 153.741557941 c 0
 133.842568564 174.382352941 136.509515087 196.540655371 142 220 c 2
 241 650 l 1
 353 650 l 1
 256 230 l 2
 252.74867969 216.09157423 251.161326268 203.031445305 251.161326268 190.966946812 c 0
 251.161326268 136.239818465 283.824652333 102 342 102 c 0xc440
351 711 m 1x9240
 364 768 414 815 464 815 c 0x8a40
 505 815 510 776 545 776 c 0xc480
 561 776 573 791 577 810 c 1
 643 810 l 1xa480
 630 752 578 706 528 706 c 0xc480
 482 706 472 745 448 745 c 0x8940
 432 745 420 728 416 711 c 1x9140
 351 711 l 1x9240
EndSplineSet
Validated: 524289
EndChar

StartChar: V
Encoding: 86 86 105
Width: 593
GlyphClass: 2
Flags: HMW
AnchorPoint: "Anchor-7" 320 649 basechar 0
AnchorPoint: "Anchor-5" 320 0 basechar 0
LayerCount: 2
Fore
SplineSet
698 650 m 1
 376 0 l 1
 226 0 l 1
 196 650 l 1
 308 650 l 1
 328 111 l 1
 591 650 l 1
 698 650 l 1
EndSplineSet
Validated: 1048577
EndChar

StartChar: W
Encoding: 87 87 106
Width: 816
GlyphClass: 2
Flags: HMW
AnchorPoint: "Anchor-7" 440 650 basechar 0
AnchorPoint: "Anchor-5" 440 0 basechar 0
LayerCount: 2
Fore
SplineSet
235 0 m 1
 196 650 l 1
 308 650 l 1
 332 112 l 1
 435 316 l 1
 409 650 l 1
 517 650 l 1
 526 496 l 1
 604 650 l 1
 707 650 l 1
 536 323 l 1
 547 112 l 1
 814 650 l 1
 921 650 l 1
 590 0 l 1
 458 0 l 1
 447 154 l 1
 366 0 l 1
 235 0 l 1
EndSplineSet
Validated: 1048577
Substitution2: "'ss03' Style Set 3 in Latin lookup 11 subtable" W.ss03
Substitution2: "'aalt' Access All Alternates in Latin lookup 0 subtable" W.ss03
EndChar

StartChar: Wacute
Encoding: 7810 7810 107
Width: 816
GlyphClass: 2
Flags: HMW
AnchorPoint: "Anchor-7" 440 810 basechar 0
AnchorPoint: "Anchor-5" 440 0 basechar 0
LayerCount: 2
Fore
SplineSet
235 0 m 1
 196 650 l 1
 308 650 l 1
 332 112 l 1
 435 316 l 1
 409 650 l 1
 517 650 l 1
 526 496 l 1
 604 650 l 1
 707 650 l 1
 536 323 l 1
 547 112 l 1
 814 650 l 1
 921 650 l 1
 590 0 l 1
 458 0 l 1
 447 154 l 1
 366 0 l 1
 235 0 l 1
521 710 m 1
 595 810 l 1
 702 810 l 1
 628 710 l 1
 521 710 l 1
EndSplineSet
Validated: 1048577
Substitution2: "'ss03' Style Set 3 in Latin lookup 11 subtable" Wacute.ss03
Substitution2: "'aalt' Access All Alternates in Latin lookup 0 subtable" Wacute.ss03
EndChar

StartChar: Wcircumflex
Encoding: 372 372 108
Width: 816
GlyphClass: 2
Flags: HMW
AnchorPoint: "Anchor-7" 440 800 basechar 0
AnchorPoint: "Anchor-5" 440 0 basechar 0
LayerCount: 2
Fore
SplineSet
235 0 m 1
 196 650 l 1
 308 650 l 1
 332 112 l 1
 435 316 l 1
 409 650 l 1
 517 650 l 1
 526 496 l 1
 604 650 l 1
 707 650 l 1
 536 323 l 1
 547 112 l 1
 814 650 l 1
 921 650 l 1
 590 0 l 1
 458 0 l 1
 447 154 l 1
 366 0 l 1
 235 0 l 1
456 711 m 1
 585 800 l 1
 601 800 l 1
 689 711 l 1
 582 711 l 1
 574 720 l 1
 563 711 l 1
 456 711 l 1
EndSplineSet
Validated: 1048577
Substitution2: "'ss03' Style Set 3 in Latin lookup 11 subtable" Wcircumflex.ss03
Substitution2: "'aalt' Access All Alternates in Latin lookup 0 subtable" Wcircumflex.ss03
EndChar

StartChar: Wdieresis
Encoding: 7812 7812 109
Width: 816
GlyphClass: 2
Flags: HMW
AnchorPoint: "Anchor-7" 440 831 basechar 0
AnchorPoint: "Anchor-5" 440 0 basechar 0
LayerCount: 2
Fore
SplineSet
235 0 m 1
 196 650 l 1
 308 650 l 1
 332 112 l 1
 435 316 l 1
 409 650 l 1
 517 650 l 1
 526 496 l 1
 604 650 l 1
 707 650 l 1
 536 323 l 1
 547 112 l 1
 814 650 l 1
 921 650 l 1
 590 0 l 1
 458 0 l 1
 447 154 l 1
 366 0 l 1
 235 0 l 1
456 771 m 0
 464 805 494 831 526 831 c 0
 552.88850442 831 569.892357103 812.64278963 569.892357103 786.607170307 c 0
 569.892357103 781.657807896 569.277873895 776.430964054 568 771 c 0
 560 737 530 711 498 711 c 0
 471.11149558 711 454.107642897 729.35721037 454.107642897 755.392829693 c 0
 454.107642897 760.342192104 454.722126105 765.569035946 456 771 c 0
605 771 m 0
 613 805 642 831 674 831 c 0
 700.88850442 831 717.892357103 812.64278963 717.892357103 786.607170307 c 0
 717.892357103 781.657807896 717.277873895 776.430964054 716 771 c 0
 708 737 679 711 647 711 c 0
 620.11149558 711 603.107642897 729.35721037 603.107642897 755.392829693 c 0
 603.107642897 760.342192104 603.722126105 765.569035946 605 771 c 0
EndSplineSet
Validated: 1572865
Substitution2: "'ss03' Style Set 3 in Latin lookup 11 subtable" Wdieresis.ss03
Substitution2: "'aalt' Access All Alternates in Latin lookup 0 subtable" Wdieresis.ss03
EndChar

StartChar: Wgrave
Encoding: 7808 7808 110
Width: 816
GlyphClass: 2
Flags: HMW
AnchorPoint: "Anchor-7" 440 810 basechar 0
AnchorPoint: "Anchor-5" 440 0 basechar 0
LayerCount: 2
Fore
SplineSet
235 0 m 1
 196 650 l 1
 308 650 l 1
 332 112 l 1
 435 316 l 1
 409 650 l 1
 517 650 l 1
 526 496 l 1
 604 650 l 1
 707 650 l 1
 536 323 l 1
 547 112 l 1
 814 650 l 1
 921 650 l 1
 590 0 l 1
 458 0 l 1
 447 154 l 1
 366 0 l 1
 235 0 l 1
488 810 m 1
 595 810 l 1
 623 710 l 1
 516 710 l 1
 488 810 l 1
EndSplineSet
Validated: 1048577
Substitution2: "'ss03' Style Set 3 in Latin lookup 11 subtable" Wgrave.ss03
Substitution2: "'aalt' Access All Alternates in Latin lookup 0 subtable" Wgrave.ss03
EndChar

StartChar: X
Encoding: 88 88 111
Width: 498
GlyphClass: 2
Flags: HMW
AnchorPoint: "Anchor-7" 269 650 basechar 0
AnchorPoint: "Anchor-5" 269 0 basechar 0
LayerCount: 2
Fore
SplineSet
46 0 m 1
 263 325 l 1
 196 650 l 1
 309 650 l 1
 351 447 l 1
 489 650 l 1
 603 650 l 1
 384 330 l 1
 453 0 l 1
 339 0 l 1
 297 206 l 1
 159 0 l 1
 46 0 l 1
EndSplineSet
Validated: 1048577
EndChar

StartChar: Y
Encoding: 89 89 112
Width: 479
GlyphClass: 2
Flags: HMW
AnchorPoint: "Anchor-7" 259 650 basechar 0
AnchorPoint: "Anchor-5" 259 0 basechar 0
LayerCount: 2
Fore
SplineSet
184 0 m 1
 259 325 l 1
 186 650 l 1
 300 650 l 1
 344 452 l 1
 479 650 l 1
 593 650 l 1
 371 325 l 1
 296 0 l 1
 184 0 l 1
EndSplineSet
Validated: 1048577
EndChar

StartChar: Yacute
Encoding: 221 221 113
Width: 479
GlyphClass: 2
Flags: HMW
AnchorPoint: "Anchor-7" 259 810 basechar 0
AnchorPoint: "Anchor-5" 259 0 basechar 0
LayerCount: 2
Fore
SplineSet
184 0 m 1
 259 325 l 1
 186 650 l 1
 300 650 l 1
 344 452 l 1
 479 650 l 1
 593 650 l 1
 371 325 l 1
 296 0 l 1
 184 0 l 1
353 710 m 1
 427 810 l 1
 534 810 l 1
 460 710 l 1
 353 710 l 1
EndSplineSet
Validated: 1048577
EndChar

StartChar: Ycircumflex
Encoding: 374 374 114
Width: 479
GlyphClass: 2
Flags: HMW
AnchorPoint: "Anchor-7" 259 800 basechar 0
AnchorPoint: "Anchor-5" 259 0 basechar 0
LayerCount: 2
Fore
SplineSet
184 0 m 1
 259 325 l 1
 186 650 l 1
 300 650 l 1
 344 452 l 1
 479 650 l 1
 593 650 l 1
 371 325 l 1
 296 0 l 1
 184 0 l 1
288 711 m 1
 416 800 l 1
 433 800 l 1
 520 711 l 1
 414 711 l 1
 406 720 l 1
 395 711 l 1
 288 711 l 1
EndSplineSet
Validated: 1048577
EndChar

StartChar: Ydieresis
Encoding: 376 376 115
Width: 479
GlyphClass: 2
Flags: HMW
AnchorPoint: "Anchor-7" 259 831 basechar 0
AnchorPoint: "Anchor-5" 259 0 basechar 0
LayerCount: 2
Fore
SplineSet
184 0 m 1xa0
 259 325 l 1
 186 650 l 1
 300 650 l 1
 344 452 l 1
 479 650 l 1
 593 650 l 1
 371 325 l 1
 296 0 l 1
 184 0 l 1xa0
288 771 m 0xd0
 296 805 326 831 358 831 c 0
 384.704752192 831 400.963062152 812.892833467 400.963062152 787.139862315 c 0
 400.963062152 782.033341832 400.323811952 776.626200796 399 771 c 0
 391 737 362 711 330 711 c 0
 303.11149558 711 286.107642897 729.35721037 286.107642897 755.392829693 c 0
 286.107642897 760.342192104 286.722126105 765.569035946 288 771 c 0xd0
437 771 m 0
 445 805 474 831 506 831 c 0
 532.88850442 831 549.892357103 812.64278963 549.892357103 786.607170307 c 0
 549.892357103 781.657807896 549.277873895 776.430964054 548 771 c 0
 540 737 511 711 479 711 c 0
 452.11149558 711 435.107642897 729.35721037 435.107642897 755.392829693 c 0
 435.107642897 760.342192104 435.722126105 765.569035946 437 771 c 0
EndSplineSet
Validated: 1572865
EndChar

StartChar: Ygrave
Encoding: 7922 7922 116
Width: 479
GlyphClass: 2
Flags: HMW
AnchorPoint: "Anchor-7" 259 810 basechar 0
AnchorPoint: "Anchor-5" 259 0 basechar 0
LayerCount: 2
Fore
SplineSet
184 0 m 1
 259 325 l 1
 186 650 l 1
 300 650 l 1
 344 452 l 1
 479 650 l 1
 593 650 l 1
 371 325 l 1
 296 0 l 1
 184 0 l 1
320 810 m 1
 427 810 l 1
 455 710 l 1
 348 710 l 1
 320 810 l 1
EndSplineSet
Validated: 1048577
EndChar

StartChar: uni1EF8
Encoding: 7928 7928 117
Width: 479
GlyphClass: 2
Flags: HMW
AnchorPoint: "Anchor-7" 259 815 basechar 0
AnchorPoint: "Anchor-5" 259 0 basechar 0
LayerCount: 2
Fore
SplineSet
184 0 m 1x84
 259 325 l 1
 186 650 l 1
 300 650 l 1
 344 452 l 1
 479 650 l 1
 593 650 l 1
 371 325 l 1
 296 0 l 1
 184 0 l 1x84
272 711 m 1x2c
 285 768 335 815 385 815 c 0x1c
 426 815 431 776 466 776 c 0x86
 482 776 495 791 499 810 c 1
 564 810 l 1x46
 551 752 500 706 450 706 c 0x86
 404 706 393 745 369 745 c 0x1c
 353 745 341 728 337 711 c 1
 272 711 l 1x2c
EndSplineSet
Validated: 1048577
EndChar

StartChar: Z
Encoding: 90 90 118
Width: 503
GlyphClass: 2
Flags: HMW
AnchorPoint: "Anchor-7" 272 650 basechar 0
AnchorPoint: "Anchor-5" 272 0 basechar 0
LayerCount: 2
Fore
SplineSet
46 0 m 1
 408 530 l 1
 177 530 l 1
 205 650 l 1
 608 650 l 1
 246 120 l 1
 486 120 l 1
 458 0 l 1
 46 0 l 1
EndSplineSet
Validated: 1048577
EndChar

StartChar: Zacute
Encoding: 377 377 119
Width: 503
GlyphClass: 2
Flags: HMW
AnchorPoint: "Anchor-7" 272 810 basechar 0
AnchorPoint: "Anchor-5" 272 0 basechar 0
LayerCount: 2
Fore
SplineSet
46 0 m 1
 408 530 l 1
 177 530 l 1
 205 650 l 1
 608 650 l 1
 246 120 l 1
 486 120 l 1
 458 0 l 1
 46 0 l 1
365 710 m 1
 439 810 l 1
 546 810 l 1
 472 710 l 1
 365 710 l 1
EndSplineSet
Validated: 1048577
EndChar

StartChar: Zcaron
Encoding: 381 381 120
Width: 503
GlyphClass: 2
Flags: HMW
AnchorPoint: "Anchor-7" 272 800 basechar 0
AnchorPoint: "Anchor-5" 272 0 basechar 0
LayerCount: 2
Fore
SplineSet
46 0 m 1xd8
 408 530 l 1
 177 530 l 1
 205 650 l 1
 608 650 l 1
 246 120 l 1
 486 120 l 1
 458 0 l 1
 46 0 l 1xd8
322 809 m 1xa8
 429 809 l 1
 437 800 l 1
 448 809 l 1
 555 809 l 1xa8
 427 720 l 1
 410 720 l 1xd8
 322 809 l 1xa8
EndSplineSet
Validated: 1048577
EndChar

StartChar: Zdotaccent
Encoding: 379 379 121
Width: 503
GlyphClass: 2
Flags: HMW
AnchorPoint: "Anchor-7" 272 650 basechar 0
AnchorPoint: "Anchor-5" 272 0 basechar 0
LayerCount: 2
Fore
SplineSet
46 0 m 1
 408 530 l 1
 177 530 l 1
 205 650 l 1
 608 650 l 1
 246 120 l 1
 486 120 l 1
 458 0 l 1
 46 0 l 1
374 771 m 0
 382 805 412 831 444 831 c 0
 470.88850442 831 487.892357103 812.64278963 487.892357103 786.607170307 c 0
 487.892357103 781.657807896 487.277873895 776.430964054 486 771 c 0
 478 737 448 711 416 711 c 0
 389.11149558 711 372.107642897 729.35721037 372.107642897 755.392829693 c 0
 372.107642897 760.342192104 372.722126105 765.569035946 374 771 c 0
EndSplineSet
Validated: 1572865
EndChar

StartChar: K.ss02
Encoding: 65538 -1 122
Width: 545
GlyphClass: 2
Flags: HMW
AnchorPoint: "Anchor-7" 308 649 basechar 0
AnchorPoint: "Anchor-5" 308 0 basechar 0
LayerCount: 2
Fore
SplineSet
241 650 m 1
 353 650 l 1
 276 318 l 1
 305 318 l 1
 471 649 l 1
 642 649 l 1
 615 534 l 1
 525 534 l 1
 416 318 l 1
 456 318 l 1
 500 0 l 1
 386 0 l 1
 356 203 l 1
 249 203 l 1
 203 0 l 1
 91 0 l 1
 241 650 l 1
EndSplineSet
Validated: 1048577
EndChar

StartChar: W.ss03
Encoding: 65539 -1 123
Width: 816
GlyphClass: 2
Flags: HMW
AnchorPoint: "Anchor-7" 440 590 basechar 0
AnchorPoint: "Anchor-5" 440 0 basechar 0
LayerCount: 2
Fore
SplineSet
196 650 m 1
 308 650 l 1
 309 153 l 1
 452 480 l 1
 577 480 l 1
 569 132 l 1
 808 650 l 1
 921 650 l 1
 618 0 l 1
 469 0 l 1
 474 304 l 1
 338 0 l 1
 198 0 l 1
 196 650 l 1
EndSplineSet
Validated: 1048577
EndChar

StartChar: Wacute.ss03
Encoding: 65540 -1 124
Width: 816
GlyphClass: 2
Flags: HMW
AnchorPoint: "Anchor-7" 440 750 basechar 0
AnchorPoint: "Anchor-5" 440 0 basechar 0
LayerCount: 2
Fore
SplineSet
196 650 m 1
 308 650 l 1
 309 153 l 1
 452 480 l 1
 577 480 l 1
 569 132 l 1
 808 650 l 1
 921 650 l 1
 618 0 l 1
 469 0 l 1
 474 304 l 1
 338 0 l 1
 198 0 l 1
 196 650 l 1
507 650 m 1
 581 750 l 1
 688 750 l 1
 614 650 l 1
 507 650 l 1
EndSplineSet
Validated: 1048577
EndChar

StartChar: Wcircumflex.ss03
Encoding: 65541 -1 125
Width: 816
GlyphClass: 2
Flags: HMW
AnchorPoint: "Anchor-7" 440 740 basechar 0
AnchorPoint: "Anchor-5" 440 0 basechar 0
LayerCount: 2
Fore
SplineSet
196 650 m 1
 308 650 l 1
 309 153 l 1
 452 480 l 1
 577 480 l 1
 569 132 l 1
 808 650 l 1
 921 650 l 1
 618 0 l 1
 469 0 l 1
 474 304 l 1
 338 0 l 1
 198 0 l 1
 196 650 l 1
442 651 m 1
 571 740 l 1
 587 740 l 1
 675 651 l 1
 568 651 l 1
 561 660 l 1
 549 651 l 1
 442 651 l 1
EndSplineSet
Validated: 1048577
EndChar

StartChar: Wdieresis.ss03
Encoding: 65542 -1 126
Width: 816
GlyphClass: 2
Flags: HMW
AnchorPoint: "Anchor-7" 440 771 basechar 0
AnchorPoint: "Anchor-5" 440 0 basechar 0
LayerCount: 2
Fore
SplineSet
196 650 m 1
 308 650 l 1
 309 153 l 1
 452 480 l 1
 577 480 l 1
 569 132 l 1
 808 650 l 1
 921 650 l 1
 618 0 l 1
 469 0 l 1
 474 304 l 1
 338 0 l 1
 198 0 l 1
 196 650 l 1
442 711 m 0
 450 745 480 771 512 771 c 0
 538.88850442 771 555.892357103 752.64278963 555.892357103 726.607170307 c 0
 555.892357103 721.657807896 555.277873895 716.430964054 554 711 c 0
 546 677 516 651 484 651 c 0
 457.11149558 651 440.107642897 669.35721037 440.107642897 695.392829693 c 0
 440.107642897 700.342192104 440.722126105 705.569035946 442 711 c 0
591 711 m 0
 599 745 629 771 661 771 c 0
 687.88850442 771 704.892357103 752.64278963 704.892357103 726.607170307 c 0
 704.892357103 721.657807896 704.277873895 716.430964054 703 711 c 0
 695 677 665 651 633 651 c 0
 606.11149558 651 589.107642897 669.35721037 589.107642897 695.392829693 c 0
 589.107642897 700.342192104 589.722126105 705.569035946 591 711 c 0
EndSplineSet
Validated: 1572865
EndChar

StartChar: Wgrave.ss03
Encoding: 65543 -1 127
Width: 816
GlyphClass: 2
Flags: HMW
AnchorPoint: "Anchor-7" 440 750 basechar 0
AnchorPoint: "Anchor-5" 440 0 basechar 0
LayerCount: 2
Fore
SplineSet
196 650 m 1
 308 650 l 1
 309 153 l 1
 452 480 l 1
 577 480 l 1
 569 132 l 1
 808 650 l 1
 921 650 l 1
 618 0 l 1
 469 0 l 1
 474 304 l 1
 338 0 l 1
 198 0 l 1
 196 650 l 1
474 750 m 1
 581 750 l 1
 609 650 l 1
 502 650 l 1
 474 750 l 1
EndSplineSet
Validated: 1048577
EndChar

StartChar: O.ss04
Encoding: 65544 -1 128
Width: 740
GlyphClass: 2
Flags: HMW
AnchorPoint: "Anchor-7" 400 649 basechar 0
AnchorPoint: "Anchor-6" 482 10 basechar 0
AnchorPoint: "Anchor-5" 400 0 basechar 0
LayerCount: 2
Fore
SplineSet
367 -16 m 0
 228.023950268 -16 137.410856899 89.1368616588 137.410856899 234.861764551 c 0
 137.410856899 263.198032103 140.83702523 293.068972585 148 324 c 0
 192 514 358 664 524 664 c 0
 663.653639503 664 753.656059139 559.103056618 753.656059139 413.637169486 c 0
 753.656059139 385.152680262 750.205029113 355.112625715 743 324 c 0
 699 134 533 -16 367 -16 c 0
264 324 m 0
 259.289288568 303.811236718 257.041076869 284.330088302 257.041076869 265.889891696 c 0
 257.041076869 174.723394628 311.992209096 109 396 109 c 0
 497 109 599 204 627 324 c 0
 631.710711432 344.188763282 633.958923131 363.669911698 633.958923131 382.110108304 c 0
 633.958923131 473.276605372 579.007790904 539 495 539 c 0
 394 539 292 444 264 324 c 0
EndSplineSet
Validated: 524289
EndChar

StartChar: Oacute.ss04
Encoding: 65545 -1 129
Width: 740
GlyphClass: 2
Flags: HMW
AnchorPoint: "Anchor-7" 400 809 basechar 0
AnchorPoint: "Anchor-6" 482 10 basechar 0
AnchorPoint: "Anchor-5" 400 0 basechar 0
LayerCount: 2
Fore
SplineSet
367 -16 m 0
 228.023950268 -16 137.410856899 89.1368616588 137.410856899 234.861764551 c 0
 137.410856899 263.198032103 140.83702523 293.068972585 148 324 c 0
 192 514 358 664 524 664 c 0
 663.653639503 664 753.656059139 559.103056618 753.656059139 413.637169486 c 0
 753.656059139 385.152680262 750.205029113 355.112625715 743 324 c 0
 699 134 533 -16 367 -16 c 0
264 324 m 0
 259.289288568 303.811236718 257.041076869 284.330088302 257.041076869 265.889891696 c 0
 257.041076869 174.723394628 311.992209096 109 396 109 c 0
 497 109 599 204 627 324 c 0
 631.710711432 344.188763282 633.958923131 363.669911698 633.958923131 382.110108304 c 0
 633.958923131 473.276605372 579.007790904 539 495 539 c 0
 394 539 292 444 264 324 c 0
483 709 m 1
 557 809 l 1
 664 809 l 1
 590 709 l 1
 483 709 l 1
EndSplineSet
Validated: 524289
EndChar

StartChar: Ocircumflex.ss04
Encoding: 65546 -1 130
Width: 740
GlyphClass: 2
Flags: HMW
AnchorPoint: "Anchor-7" 400 799 basechar 0
AnchorPoint: "Anchor-6" 482 10 basechar 0
AnchorPoint: "Anchor-5" 400 0 basechar 0
LayerCount: 2
Fore
SplineSet
367 -16 m 0
 228.023950268 -16 137.410856899 89.1368616588 137.410856899 234.861764551 c 0
 137.410856899 263.198032103 140.83702523 293.068972585 148 324 c 0
 192 514 358 664 524 664 c 0
 663.653639503 664 753.656059139 559.103056618 753.656059139 413.637169486 c 0
 753.656059139 385.152680262 750.205029113 355.112625715 743 324 c 0
 699 134 533 -16 367 -16 c 0
264 324 m 0
 259.289288568 303.811236718 257.041076869 284.330088302 257.041076869 265.889891696 c 0
 257.041076869 174.723394628 311.992209096 109 396 109 c 0
 497 109 599 204 627 324 c 0
 631.710711432 344.188763282 633.958923131 363.669911698 633.958923131 382.110108304 c 0
 633.958923131 473.276605372 579.007790904 539 495 539 c 0
 394 539 292 444 264 324 c 0
418 710 m 1
 546 799 l 1
 563 799 l 1
 651 710 l 1
 544 710 l 1
 536 719 l 1
 525 710 l 1
 418 710 l 1
EndSplineSet
Validated: 524289
EndChar

StartChar: Odieresis.ss04
Encoding: 65547 -1 131
Width: 740
GlyphClass: 2
Flags: HMW
AnchorPoint: "Anchor-7" 400 830 basechar 0
AnchorPoint: "Anchor-6" 482 10 basechar 0
AnchorPoint: "Anchor-5" 400 0 basechar 0
LayerCount: 2
Fore
SplineSet
367 -16 m 0
 228.023950268 -16 137.410856899 89.1368616588 137.410856899 234.861764551 c 0
 137.410856899 263.198032103 140.83702523 293.068972585 148 324 c 0
 192 514 358 664 524 664 c 0
 663.653639503 664 753.656059139 559.103056618 753.656059139 413.637169486 c 0
 753.656059139 385.152680262 750.205029113 355.112625715 743 324 c 0
 699 134 533 -16 367 -16 c 0
264 324 m 0
 259.289288568 303.811236718 257.041076869 284.330088302 257.041076869 265.889891696 c 0
 257.041076869 174.723394628 311.992209096 109 396 109 c 0
 497 109 599 204 627 324 c 0
 631.710711432 344.188763282 633.958923131 363.669911698 633.958923131 382.110108304 c 0
 633.958923131 473.276605372 579.007790904 539 495 539 c 0
 394 539 292 444 264 324 c 0
418 770 m 0
 426 804 456 830 488 830 c 0
 514.88850442 830 531.892357103 811.64278963 531.892357103 785.607170307 c 0
 531.892357103 780.657807896 531.277873895 775.430964054 530 770 c 0
 522 736 492 710 460 710 c 0
 433.11149558 710 416.107642897 728.35721037 416.107642897 754.392829693 c 0
 416.107642897 759.342192104 416.722126105 764.569035946 418 770 c 0
567 770 m 0
 575 804 604 830 636 830 c 0
 662.88850442 830 679.892357103 811.64278963 679.892357103 785.607170307 c 0
 679.892357103 780.657807896 679.277873895 775.430964054 678 770 c 0
 670 736 641 710 609 710 c 0
 582.11149558 710 565.107642897 728.35721037 565.107642897 754.392829693 c 0
 565.107642897 759.342192104 565.722126105 764.569035946 567 770 c 0
EndSplineSet
Validated: 524289
EndChar

StartChar: Ograve.ss04
Encoding: 65548 -1 132
Width: 740
GlyphClass: 2
Flags: HMW
AnchorPoint: "Anchor-7" 400 809 basechar 0
AnchorPoint: "Anchor-6" 482 10 basechar 0
AnchorPoint: "Anchor-5" 400 0 basechar 0
LayerCount: 2
Fore
SplineSet
367 -16 m 0
 228.023950268 -16 137.410856899 89.1368616588 137.410856899 234.861764551 c 0
 137.410856899 263.198032103 140.83702523 293.068972585 148 324 c 0
 192 514 358 664 524 664 c 0
 663.653639503 664 753.656059139 559.103056618 753.656059139 413.637169486 c 0
 753.656059139 385.152680262 750.205029113 355.112625715 743 324 c 0
 699 134 533 -16 367 -16 c 0
264 324 m 0
 259.289288568 303.811236718 257.041076869 284.330088302 257.041076869 265.889891696 c 0
 257.041076869 174.723394628 311.992209096 109 396 109 c 0
 497 109 599 204 627 324 c 0
 631.710711432 344.188763282 633.958923131 363.669911698 633.958923131 382.110108304 c 0
 633.958923131 473.276605372 579.007790904 539 495 539 c 0
 394 539 292 444 264 324 c 0
450 809 m 1
 557 809 l 1
 585 709 l 1
 478 709 l 1
 450 809 l 1
EndSplineSet
Validated: 524289
EndChar

StartChar: Ohungarumlaut.ss04
Encoding: 65549 -1 133
Width: 740
GlyphClass: 2
Flags: HMW
AnchorPoint: "Anchor-7" 400 889 basechar 0
AnchorPoint: "Anchor-6" 482 10 basechar 0
AnchorPoint: "Anchor-5" 400 0 basechar 0
LayerCount: 2
Fore
SplineSet
367 -16 m 0
 228.023950268 -16 137.410856899 89.1368616588 137.410856899 234.861764551 c 0
 137.410856899 263.198032103 140.83702523 293.068972585 148 324 c 0
 192 514 358 664 524 664 c 0
 663.653639503 664 753.656059139 559.103056618 753.656059139 413.637169486 c 0
 753.656059139 385.152680262 750.205029113 355.112625715 743 324 c 0
 699 134 533 -16 367 -16 c 0
264 324 m 0
 259.289288568 303.811236718 257.041076869 284.330088302 257.041076869 265.889891696 c 0
 257.041076869 174.723394628 311.992209096 109 396 109 c 0
 497 109 599 204 627 324 c 0
 631.710711432 344.188763282 633.958923131 363.669911698 633.958923131 382.110108304 c 0
 633.958923131 473.276605372 579.007790904 539 495 539 c 0
 394 539 292 444 264 324 c 0
409 709 m 1
 502 889 l 1
 590 889 l 1
 496 709 l 1
 409 709 l 1
576 709 m 1
 670 889 l 1
 757 889 l 1
 663 709 l 1
 576 709 l 1
EndSplineSet
Validated: 524289
EndChar

StartChar: Omacron.ss04
Encoding: 65550 -1 134
Width: 740
GlyphClass: 2
Flags: HMW
AnchorPoint: "Anchor-7" 400 809 basechar 0
AnchorPoint: "Anchor-6" 482 10 basechar 0
AnchorPoint: "Anchor-5" 400 0 basechar 0
LayerCount: 2
Fore
SplineSet
367 -16 m 0
 228.023950268 -16 137.410856899 89.1368616588 137.410856899 234.861764551 c 0
 137.410856899 263.198032103 140.83702523 293.068972585 148 324 c 0
 192 514 358 664 524 664 c 0
 663.653639503 664 753.656059139 559.103056618 753.656059139 413.637169486 c 0
 753.656059139 385.152680262 750.205029113 355.112625715 743 324 c 0
 699 134 533 -16 367 -16 c 0
264 324 m 0
 259.289288568 303.811236718 257.041076869 284.330088302 257.041076869 265.889891696 c 0
 257.041076869 174.723394628 311.992209096 109 396 109 c 0
 497 109 599 204 627 324 c 0
 631.710711432 344.188763282 633.958923131 363.669911698 633.958923131 382.110108304 c 0
 633.958923131 473.276605372 579.007790904 539 495 539 c 0
 394 539 292 444 264 324 c 0
385 729 m 1xe8
 404 809 l 1
 711 809 l 1
 692 729 l 1
 385 729 l 1xe8
EndSplineSet
Validated: 524289
EndChar

StartChar: Oslash.ss04
Encoding: 65551 -1 135
Width: 759
GlyphClass: 2
Flags: HMW
AnchorPoint: "Anchor-7" 400 649 basechar 0
AnchorPoint: "Anchor-6" 482 10 basechar 0
AnchorPoint: "Anchor-5" 400 0 basechar 0
LayerCount: 2
Fore
SplineSet
82 0 m 1x5c
 171 95 l 1
 148.993814571 133.834444875 137.0417232 181.047301464 137.0417232 233.656002564 c 0
 137.0417232 262.328804937 140.592055706 292.604426564 148 324 c 0
 192 514 358 664 524 664 c 0
 579 664 626 648 663 619 c 1x5c
 691 649 l 1
 827 649 l 1
 726 541 l 1
 743.652444926 504.434221225 753.355685468 460.714158504 753.355685468 412.596154371 c 0
 753.355685468 384.390220297 750.021555229 354.673109684 743 324 c 0
 699 134 533 -16 367 -16 c 0
 317 -16 273 -3 238 21 c 1xac
 218 0 l 1
 82 0 l 1x5c
264 324 m 0
 259.183956091 303.422357845 256.859859506 283.611468713 256.859859506 264.819108709 c 0
 256.859859506 240.689110868 260.691688256 218.238401754 268 198 c 1
 569 518 l 1
 548 532 523 539 495 539 c 0
 394 539 292 444 264 324 c 0
334 123 m 1x9c
 351 114 373 109 396 109 c 0
 497 109 599 204 627 324 c 0
 631.250766878 343.364604668 633.270790664 362.059986408 633.270790664 379.770066259 c 0
 633.270790664 399.556918895 630.749233122 418.11383779 626 435 c 1
 334 123 l 1x9c
EndSplineSet
Validated: 524289
EndChar

StartChar: Otilde.ss04
Encoding: 65552 -1 136
Width: 740
GlyphClass: 2
Flags: HMW
AnchorPoint: "Anchor-7" 400 814 basechar 0
AnchorPoint: "Anchor-6" 482 10 basechar 0
AnchorPoint: "Anchor-5" 400 0 basechar 0
LayerCount: 2
Fore
SplineSet
367 -16 m 0xe240
 228.023950268 -16 137.410856899 89.1368616588 137.410856899 234.861764551 c 0
 137.410856899 263.198032103 140.83702523 293.068972585 148 324 c 0
 192 514 358 664 524 664 c 0
 663.653639503 664 753.656059139 559.103056618 753.656059139 413.637169486 c 0
 753.656059139 385.152680262 750.205029113 355.112625715 743 324 c 0
 699 134 533 -16 367 -16 c 0xe240
264 324 m 0
 259.289288568 303.811236718 257.041076869 284.330088302 257.041076869 265.889891696 c 0
 257.041076869 174.723394628 311.992209096 109 396 109 c 0
 497 109 599 204 627 324 c 0
 631.710711432 344.188763282 633.958923131 363.669911698 633.958923131 382.110108304 c 0
 633.958923131 473.276605372 579.007790904 539 495 539 c 0
 394 539 292 444 264 324 c 0
402 710 m 1xcb40
 415 767 466 814 516 814 c 0xc740
 557 814 561 775 596 775 c 0xe2c0
 612 775 625 790 629 809 c 1
 694 809 l 1xd2c0
 681 751 630 705 580 705 c 0xe2c0
 534 705 523 744 499 744 c 0xc740
 483 744 471 727 467 710 c 1
 402 710 l 1xcb40
EndSplineSet
Validated: 524289
EndChar

StartChar: Q.ss04
Encoding: 65553 -1 137
Width: 740
GlyphClass: 2
Flags: HMW
AnchorPoint: "Anchor-7" 400 650 basechar 0
AnchorPoint: "Anchor-5" 400 0 basechar 0
LayerCount: 2
Fore
SplineSet
523 0 m 1x78
 511 20 l 1
 465 -3 416 -16 367 -16 c 0xb8
 228.023950268 -16 137.410856899 89.1368616588 137.410856899 234.861764551 c 0
 137.410856899 263.198032103 140.83702523 293.068972585 148 324 c 0
 192 514 358 664 524 664 c 0
 663.653639503 664 753.656059139 559.103056618 753.656059139 413.637169486 c 0
 753.656059139 385.152680262 750.205029113 355.112625715 743 324 c 0
 722 234 673 152 610 92 c 1
 663 0 l 1
 523 0 l 1x78
264 324 m 0
 259.289288568 303.811236718 257.041076869 284.330088302 257.041076869 265.889891696 c 0
 257.041076869 174.723394628 311.992209096 109 396 109 c 0
 415 109 434 112 452 119 c 1xb8
 381 238 l 1
 527 238 l 1
 555 188 l 1x78
 589 225 615 272 627 324 c 0
 631.710711432 344.188763282 633.958923131 363.669911698 633.958923131 382.110108304 c 0
 633.958923131 473.276605372 579.007790904 539 495 539 c 0
 394 539 292 444 264 324 c 0
EndSplineSet
Validated: 1572865
EndChar

StartChar: O.ss05
Encoding: 65554 -1 138
Width: 924
GlyphClass: 2
Flags: HMW
AnchorPoint: "Anchor-7" 499 649 basechar 0
AnchorPoint: "Anchor-6" 906 10 basechar 0
AnchorPoint: "Anchor-5" 499 0 basechar 0
LayerCount: 2
Fore
SplineSet
379 0 m 2
 232.062041498 0 139.322062824 105.543434405 139.322062824 247.375149041 c 0
 139.322062824 273.496757006 142.467783087 300.849255684 149 329 c 0
 189 501 363 649 529 649 c 2
 696 649 l 2
 836.819484612 649 936.35078043 542.093082588 936.35078043 401.083131545 c 0
 936.35078043 377.87126318 933.653784241 353.735306055 928 329 c 0
 886 146 717 0 546 0 c 2
 379 0 l 2
265 329 m 0
 260.781568395 311.032606128 258.760070766 293.699882071 258.760070766 277.242099347 c 0
 258.760070766 188.362122648 317.717488212 125 408 125 c 2
 575 125 l 2
 682 125 785 214 812 329 c 0
 815.273613242 343.185657381 816.835556316 357.129448325 816.835556316 370.633428541 c 0
 816.835556316 456.13183536 754.223544274 524 667 524 c 2
 500 524 l 2
 399 524 289 433 265 329 c 0
EndSplineSet
Validated: 524289
EndChar

StartChar: Oacute.ss05
Encoding: 65555 -1 139
Width: 924
GlyphClass: 2
Flags: HMW
AnchorPoint: "Anchor-7" 499 809 basechar 0
AnchorPoint: "Anchor-6" 906 10 basechar 0
AnchorPoint: "Anchor-5" 499 0 basechar 0
LayerCount: 2
Fore
SplineSet
379 0 m 2
 232.062041498 0 139.322062824 105.543434405 139.322062824 247.375149041 c 0
 139.322062824 273.496757006 142.467783087 300.849255684 149 329 c 0
 189 501 363 649 529 649 c 2
 696 649 l 2
 836.819484612 649 936.35078043 542.093082588 936.35078043 401.083131545 c 0
 936.35078043 377.87126318 933.653784241 353.735306055 928 329 c 0
 886 146 717 0 546 0 c 2
 379 0 l 2
265 329 m 0
 260.781568395 311.032606128 258.760070766 293.699882071 258.760070766 277.242099347 c 0
 258.760070766 188.362122648 317.717488212 125 408 125 c 2
 575 125 l 2
 682 125 785 214 812 329 c 0
 815.273613242 343.185657381 816.835556316 357.129448325 816.835556316 370.633428541 c 0
 816.835556316 456.13183536 754.223544274 524 667 524 c 2
 500 524 l 2
 399 524 289 433 265 329 c 0
575 709 m 1
 649 809 l 1
 756 809 l 1
 682 709 l 1
 575 709 l 1
EndSplineSet
Validated: 524289
EndChar

StartChar: Ocircumflex.ss05
Encoding: 65556 -1 140
Width: 924
GlyphClass: 2
Flags: HMW
AnchorPoint: "Anchor-7" 499 799 basechar 0
AnchorPoint: "Anchor-6" 906 10 basechar 0
AnchorPoint: "Anchor-5" 499 0 basechar 0
LayerCount: 2
Fore
SplineSet
379 0 m 2
 232.062041498 0 139.322062824 105.543434405 139.322062824 247.375149041 c 0
 139.322062824 273.496757006 142.467783087 300.849255684 149 329 c 0
 189 501 363 649 529 649 c 2
 696 649 l 2
 836.819484612 649 936.35078043 542.093082588 936.35078043 401.083131545 c 0
 936.35078043 377.87126318 933.653784241 353.735306055 928 329 c 0
 886 146 717 0 546 0 c 2
 379 0 l 2
265 329 m 0
 260.781568395 311.032606128 258.760070766 293.699882071 258.760070766 277.242099347 c 0
 258.760070766 188.362122648 317.717488212 125 408 125 c 2
 575 125 l 2
 682 125 785 214 812 329 c 0
 815.273613242 343.185657381 816.835556316 357.129448325 816.835556316 370.633428541 c 0
 816.835556316 456.13183536 754.223544274 524 667 524 c 2
 500 524 l 2
 399 524 289 433 265 329 c 0
510 710 m 1
 639 799 l 1
 655 799 l 1
 743 710 l 1
 636 710 l 1
 628 719 l 1
 617 710 l 1
 510 710 l 1
EndSplineSet
Validated: 524289
EndChar

StartChar: Odieresis.ss05
Encoding: 65557 -1 141
Width: 924
GlyphClass: 2
Flags: HMW
AnchorPoint: "Anchor-7" 499 830 basechar 0
AnchorPoint: "Anchor-6" 906 10 basechar 0
AnchorPoint: "Anchor-5" 499 0 basechar 0
LayerCount: 2
Fore
SplineSet
379 0 m 2
 232.062041498 0 139.322062824 105.543434405 139.322062824 247.375149041 c 0
 139.322062824 273.496757006 142.467783087 300.849255684 149 329 c 0
 189 501 363 649 529 649 c 2
 696 649 l 2
 836.819484612 649 936.35078043 542.093082588 936.35078043 401.083131545 c 0
 936.35078043 377.87126318 933.653784241 353.735306055 928 329 c 0
 886 146 717 0 546 0 c 2
 379 0 l 2
265 329 m 0
 260.781568395 311.032606128 258.760070766 293.699882071 258.760070766 277.242099347 c 0
 258.760070766 188.362122648 317.717488212 125 408 125 c 2
 575 125 l 2
 682 125 785 214 812 329 c 0
 815.273613242 343.185657381 816.835556316 357.129448325 816.835556316 370.633428541 c 0
 816.835556316 456.13183536 754.223544274 524 667 524 c 2
 500 524 l 2
 399 524 289 433 265 329 c 0
510 770 m 0
 518 804 548 830 580 830 c 0
 606.88850442 830 623.892357103 811.64278963 623.892357103 785.607170307 c 0
 623.892357103 780.657807896 623.277873895 775.430964054 622 770 c 0
 614 736 584 710 552 710 c 0
 525.11149558 710 508.107642897 728.35721037 508.107642897 754.392829693 c 0
 508.107642897 759.342192104 508.722126105 764.569035946 510 770 c 0
659 770 m 0
 667 804 696 830 728 830 c 0
 754.88850442 830 771.892357103 811.64278963 771.892357103 785.607170307 c 0
 771.892357103 780.657807896 771.277873895 775.430964054 770 770 c 0
 762 736 733 710 701 710 c 0
 674.11149558 710 657.107642897 728.35721037 657.107642897 754.392829693 c 0
 657.107642897 759.342192104 657.722126105 764.569035946 659 770 c 0
EndSplineSet
Validated: 524289
EndChar

StartChar: Ograve.ss05
Encoding: 65558 -1 142
Width: 924
GlyphClass: 2
Flags: HMW
AnchorPoint: "Anchor-7" 499 809 basechar 0
AnchorPoint: "Anchor-6" 906 10 basechar 0
AnchorPoint: "Anchor-5" 499 0 basechar 0
LayerCount: 2
Fore
SplineSet
379 0 m 2
 232.062041498 0 139.322062824 105.543434405 139.322062824 247.375149041 c 0
 139.322062824 273.496757006 142.467783087 300.849255684 149 329 c 0
 189 501 363 649 529 649 c 2
 696 649 l 2
 836.819484612 649 936.35078043 542.093082588 936.35078043 401.083131545 c 0
 936.35078043 377.87126318 933.653784241 353.735306055 928 329 c 0
 886 146 717 0 546 0 c 2
 379 0 l 2
265 329 m 0
 260.781568395 311.032606128 258.760070766 293.699882071 258.760070766 277.242099347 c 0
 258.760070766 188.362122648 317.717488212 125 408 125 c 2
 575 125 l 2
 682 125 785 214 812 329 c 0
 815.273613242 343.185657381 816.835556316 357.129448325 816.835556316 370.633428541 c 0
 816.835556316 456.13183536 754.223544274 524 667 524 c 2
 500 524 l 2
 399 524 289 433 265 329 c 0
542 809 m 1
 649 809 l 1
 677 709 l 1
 570 709 l 1
 542 809 l 1
EndSplineSet
Validated: 524289
EndChar

StartChar: Ohungarumlaut.ss05
Encoding: 65559 -1 143
Width: 924
GlyphClass: 2
Flags: HMW
AnchorPoint: "Anchor-7" 499 889 basechar 0
AnchorPoint: "Anchor-6" 906 10 basechar 0
AnchorPoint: "Anchor-5" 499 0 basechar 0
LayerCount: 2
Fore
SplineSet
379 0 m 2
 232.062041498 0 139.322062824 105.543434405 139.322062824 247.375149041 c 0
 139.322062824 273.496757006 142.467783087 300.849255684 149 329 c 0
 189 501 363 649 529 649 c 2
 696 649 l 2
 836.819484612 649 936.35078043 542.093082588 936.35078043 401.083131545 c 0
 936.35078043 377.87126318 933.653784241 353.735306055 928 329 c 0
 886 146 717 0 546 0 c 2
 379 0 l 2
265 329 m 0
 260.781568395 311.032606128 258.760070766 293.699882071 258.760070766 277.242099347 c 0
 258.760070766 188.362122648 317.717488212 125 408 125 c 2
 575 125 l 2
 682 125 785 214 812 329 c 0
 815.273613242 343.185657381 816.835556316 357.129448325 816.835556316 370.633428541 c 0
 816.835556316 456.13183536 754.223544274 524 667 524 c 2
 500 524 l 2
 399 524 289 433 265 329 c 0
501 709 m 1
 594 889 l 1
 682 889 l 1
 588 709 l 1
 501 709 l 1
668 709 m 1
 762 889 l 1
 849 889 l 1
 755 709 l 1
 668 709 l 1
EndSplineSet
Validated: 524289
EndChar

StartChar: Omacron.ss05
Encoding: 65560 -1 144
Width: 924
GlyphClass: 2
Flags: HMW
AnchorPoint: "Anchor-7" 499 809 basechar 0
AnchorPoint: "Anchor-6" 906 10 basechar 0
AnchorPoint: "Anchor-5" 499 0 basechar 0
LayerCount: 2
Fore
SplineSet
379 0 m 2
 232.062041498 0 139.322062824 105.543434405 139.322062824 247.375149041 c 0
 139.322062824 273.496757006 142.467783087 300.849255684 149 329 c 0
 189 501 363 649 529 649 c 2
 696 649 l 2
 836.819484612 649 936.35078043 542.093082588 936.35078043 401.083131545 c 0
 936.35078043 377.87126318 933.653784241 353.735306055 928 329 c 0
 886 146 717 0 546 0 c 2
 379 0 l 2
265 329 m 0
 260.781568395 311.032606128 258.760070766 293.699882071 258.760070766 277.242099347 c 0
 258.760070766 188.362122648 317.717488212 125 408 125 c 2
 575 125 l 2
 682 125 785 214 812 329 c 0
 815.273613242 343.185657381 816.835556316 357.129448325 816.835556316 370.633428541 c 0
 816.835556316 456.13183536 754.223544274 524 667 524 c 2
 500 524 l 2
 399 524 289 433 265 329 c 0
477 729 m 1
 496 809 l 1
 803 809 l 1
 784 729 l 1
 477 729 l 1
EndSplineSet
Validated: 524289
EndChar

StartChar: Oslash.ss05
Encoding: 65561 -1 145
Width: 943
GlyphClass: 2
Flags: HMW
AnchorPoint: "Anchor-7" 499 649 basechar 0
AnchorPoint: "Anchor-6" 906 10 basechar 0
AnchorPoint: "Anchor-5" 499 0 basechar 0
LayerCount: 2
Fore
SplineSet
116 0 m 1xd8
 200 75 l 1
 160.952006142 119.109770839 139.159366264 178.906227113 139.159366264 247.205332814 c 0
 139.159366264 273.35798618 142.354663937 300.757321731 149 329 c 0
 189 501 363 649 529 649 c 2
 696 649 l 2
 739 649 778 639 811 621 c 1
 843 649 l 1
 979 649 l 1xd8
 883 563 l 1xb8
 917.134218047 520.150662452 936.499737331 464.642440249 936.499737331 402.221359045 c 0
 936.499737331 378.693765152 933.748540873 354.184083823 928 329 c 0
 886 146 717 0 546 0 c 2
 379 0 l 2
 340 0 305 7 275 21 c 1
 251 0 l 1
 116 0 l 1xd8
265 329 m 0
 260.811548447 311.199080899 258.815987695 294.083440173 258.815987695 277.850407873 c 0
 258.815987695 232.072810827 274.685794217 193.314205783 302 166 c 1
 699 521 l 1
 689 523 678 524 667 524 c 2
 500 524 l 2
 399 524 289 433 265 329 c 0
392 126 m 1
 397 125 402 125 408 125 c 2
 575 125 l 2
 682 125 785 214 812 329 c 0
 815.385652585 343.323914782 817.007821566 357.444350687 817.007821566 371.14933578 c 0
 817.007821566 410.067826292 803.926520759 445.636088126 781 473 c 1
 392 126 l 1
EndSplineSet
Validated: 524289
EndChar

StartChar: Otilde.ss05
Encoding: 65562 -1 146
Width: 924
GlyphClass: 2
Flags: HMW
AnchorPoint: "Anchor-7" 499 814 basechar 0
AnchorPoint: "Anchor-6" 906 10 basechar 0
AnchorPoint: "Anchor-5" 499 0 basechar 0
LayerCount: 2
Fore
SplineSet
379 0 m 2xcb40
 232.062041498 0 139.322062824 105.543434405 139.322062824 247.375149041 c 0
 139.322062824 273.496757006 142.467783087 300.849255684 149 329 c 0
 189 501 363 649 529 649 c 2
 696 649 l 2
 836.819484612 649 936.35078043 542.093082588 936.35078043 401.083131545 c 0
 936.35078043 377.87126318 933.653784241 353.735306055 928 329 c 0
 886 146 717 0 546 0 c 2
 379 0 l 2xcb40
265 329 m 0
 260.781568395 311.032606128 258.760070766 293.699882071 258.760070766 277.242099347 c 0
 258.760070766 188.362122648 317.717488212 125 408 125 c 2
 575 125 l 2
 682 125 785 214 812 329 c 0
 815.273613242 343.185657381 816.835556316 357.129448325 816.835556316 370.633428541 c 0
 816.835556316 456.13183536 754.223544274 524 667 524 c 2
 500 524 l 2
 399 524 289 433 265 329 c 0
494 710 m 1
 507 767 558 814 608 814 c 0xc740
 649 814 653 775 688 775 c 0xe3c0
 704 775 717 790 721 809 c 1
 786 809 l 1xd3c0
 773 751 722 705 672 705 c 0xe3c0
 626 705 615 744 591 744 c 0xc740
 575 744 563 727 559 710 c 1
 494 710 l 1
EndSplineSet
Validated: 524289
EndChar

StartChar: Q.ss05
Encoding: 65563 -1 147
Width: 934
GlyphClass: 2
Flags: HMW
AnchorPoint: "Anchor-7" 499 649 basechar 0
AnchorPoint: "Anchor-6" 906 10 basechar 0
AnchorPoint: "Anchor-5" 499 0 basechar 0
LayerCount: 2
Fore
SplineSet
721 0 m 1
 696 37 l 1
 649 13 597 0 546 0 c 2
 379 0 l 2
 232.062041498 0 139.322062824 105.543434405 139.322062824 247.375149041 c 0
 139.322062824 273.496757006 142.467783087 300.849255684 149 329 c 0
 189 501 363 649 529 649 c 2
 696 649 l 2
 836.819484612 649 936.35078043 542.093082588 936.35078043 401.083131545 c 0
 936.35078043 377.87126318 933.653784241 353.735306055 928 329 c 0
 908 241 859 162 794 103 c 1
 861 0 l 1
 721 0 l 1
265 329 m 0
 260.781568395 311.032606128 258.760070766 293.699882071 258.760070766 277.242099347 c 0
 258.760070766 188.362122648 317.717488212 125 408 125 c 2
 575 125 l 2
 682 125 785 214 812 329 c 0
 815.273613242 343.185657381 816.835556316 357.129448325 816.835556316 370.633428541 c 0
 816.835556316 456.13183536 754.223544274 524 667 524 c 2
 500 524 l 2
 399 524 289 433 265 329 c 0
EndSplineSet
Validated: 524289
EndChar

StartChar: A_O_N.dlig
Encoding: 65564 -1 148
Width: 1819
GlyphClass: 3
Flags: HMW
AnchorPoint: "Anchor-13" 1636 649 baselig 0
AnchorPoint: "Anchor-12" 1808 0 baselig 0
AnchorPoint: "Anchor-11" 1636 0 baselig 0
AnchorPoint: "Anchor-13" 320 650 baselig 1
AnchorPoint: "Anchor-12" 584 10 baselig 1
AnchorPoint: "Anchor-11" 320 0 baselig 1
LayerCount: 2
Fore
SplineSet
860 -16 m 0xdf
 747 -16 666 54 640 158 c 1
 542 158 l 1
 548 0 l 1
 441 0 l 1
 436 158 l 1
 236 158 l 1
 158 0 l 1
 46 0 l 1
 376 650 l 1
 526 650 l 1
 538 273 l 1
 632 273 l 1
 634 290 637 307 641 324 c 0
 685 514 851 664 1017 664 c 0
 1156.6536395 664 1246.65605914 559.103056618 1246.65605914 413.637169486 c 0
 1246.65605914 385.152680262 1243.20502911 355.112625715 1236 324 c 0
 1192 134 1026 -16 860 -16 c 0xdf
295 273 m 1
 434 273 l 1
 427 539 l 1
 295 273 l 1
757 324 m 0
 752.289288568 303.811236718 750.041076869 284.330088302 750.041076869 265.889891696 c 0
 750.041076869 174.723394628 804.992209096 109 889 109 c 0
 990 109 1092 204 1120 324 c 0
 1124.71071143 344.188763282 1126.95892313 363.669911698 1126.95892313 382.110108304 c 0
 1126.95892313 473.276605372 1072.0077909 539 988 539 c 0
 887 539 785 444 757 324 c 0
1324 0 m 1
 1474 650 l 1
 1586 650 l 1
 1705 382 l 1
 1767 650 l 1
 1879 650 l 1
 1729 0 l 1
 1617 0 l 1
 1679 267 l 1
 1632 267 l 1xaf
 1543 466 l 1
 1436 0 l 1
 1324 0 l 1
EndSplineSet
Validated: 524289
Ligature2: "'dlig' Discretionary Ligatures in Latin lookup 7 subtable" A O N
EndChar

StartChar: Eacute_E.dlig
Encoding: 65565 -1 149
Width: 666
GlyphClass: 3
Flags: HMW
LayerCount: 2
Fore
SplineSet
204 529 m 1xf8
 232 649 l 1xf8
 734 649 l 1
 706 529 l 1
 511 529 l 1
 477 384 l 1
 626 384 l 1
 599 264 l 1
 450 264 l 1
 417 120 l 1xf4
 612 120 l 1
 584 0 l 1
 82 0 l 1
 110 120 l 1xf8
 305 120 l 1
 338 264 l 1
 189 264 l 1
 217 384 l 1
 366 384 l 1
 399 529 l 1xf4
 204 529 l 1xf8
446 710 m 1
 520 810 l 1
 627 810 l 1
 553 710 l 1
 446 710 l 1
EndSplineSet
Validated: 1
Ligature2: "'dlig' Discretionary Ligatures in Latin lookup 7 subtable" Eacute E
EndChar

StartChar: F_V_E.dlig
Encoding: 65566 -1 150
Width: 1272
GlyphClass: 3
Flags: HMW
AnchorPoint: "Anchor-13" 260 650 baselig 0
AnchorPoint: "Anchor-11" 260 0 baselig 0
AnchorPoint: "Anchor-11" 1117 0 baselig 1
AnchorPoint: "Anchor-13" 1117 649 baselig 1
AnchorPoint: "Anchor-12" 1240 0 baselig 1
LayerCount: 2
Fore
SplineSet
487 377 m 1xd480
 502 179 l 1
 750 649 l 1
 856 649 l 1
 516 0 l 1
 403 0 l 1
 383 262 l 1
 263 262 l 1
 203 0 l 1xd880
 91 0 l 1
 241 650 l 1
 548 650 l 1
 521 535 l 1xd480
 326 535 l 1
 290 377 l 1xd880
 487 377 l 1xd480
883 0 m 1
 1033 650 l 1
 1340 650 l 1
 1314 535 l 1xd480
 1118 535 l 1
 1083 382 l 1xb6
 1232 382 l 1
 1205 267 l 1xb5
 1057 267 l 1
 1022 115 l 1xb6
 1217 115 l 1
 1190 0 l 1
 883 0 l 1
EndSplineSet
Validated: 1
Ligature2: "'dlig' Discretionary Ligatures in Latin lookup 7 subtable" F V E
EndChar

StartChar: I_E.dlig
Encoding: 65567 -1 151
Width: 479
GlyphClass: 3
Flags: HMW
LayerCount: 2
Fore
SplineSet
91 0 m 1xe2
 241 649 l 1xf2
 352 649 l 1
 291 382 l 1xe8
 440 382 l 1
 413 267 l 1xe4
 264 267 l 1
 229 115 l 1xe8
 424 115 l 1
 398 0 l 1
 91 0 l 1xe2
269 771 m 0
 277 805 307 831 339 831 c 0
 365.88850442 831 382.892357103 812.64278963 382.892357103 786.607170307 c 0
 382.892357103 781.657807896 382.277873895 776.430964054 381 771 c 0xf8
 373 737 343 711 311 711 c 0
 284.11149558 711 267.107642897 729.35721037 267.107642897 755.392829693 c 0
 267.107642897 760.342192104 267.722126105 765.569035946 269 771 c 0
368 534 m 1xe1
 394 649 l 1xe1
 548 649 l 1
 521 534 l 1xe2
 368 534 l 1xe1
EndSplineSet
Validated: 524289
Ligature2: "'dlig' Discretionary Ligatures in Latin lookup 7 subtable" I E
EndChar

StartChar: M_P.dlig
Encoding: 65568 -1 152
Width: 1056
GlyphClass: 3
Flags: HMW
LayerCount: 2
Fore
SplineSet
402 267 m 1x2e
 310 467 l 1
 203 0 l 1
 91 0 l 1x8e
 241 650 l 1
 353 650 l 1x2e
 475 382 l 1
 721 650 l 1
 925 650 l 2
 1024.20861977 650 1081.72395034 590.535800657 1081.72395034 495.905536944 c 0
 1081.72395034 476.073653394 1079.19784506 454.697256754 1074 432 c 0
 1044 301 944 214 824 214 c 2
 732 214 l 1x5e
 682 0 l 1
 571 0 l 1
 679 467 l 1
 495 267 l 1
 402 267 l 1x2e
758 329 m 1x5e
 846 329 l 2
 902 329 949 373 963 432 c 0
 965.402020254 442.12279964 966.567675943 451.804040507 966.567675943 460.897254219 c 0
 966.567675943 504.803173955 939.391918986 535 893 535 c 2
 806 535 l 1
 758 329 l 1x5e
EndSplineSet
Validated: 524289
Ligature2: "'dlig' Discretionary Ligatures in Latin lookup 7 subtable" M P
EndChar

StartChar: N_E.dlig
Encoding: 65569 -1 153
Width: 772
GlyphClass: 3
Flags: HMW
LayerCount: 2
Fore
SplineSet
534 650 m 1xac80
 646 650 l 1
 645 649 l 1
 841 649 l 1
 813 529 l 1xac80
 618 529 l 1
 584 384 l 1xae
 733 384 l 1
 706 266 l 1xad
 557 266 l 1
 523 120 l 1xae
 719 120 l 1
 691 0 l 1
 384 0 l 1
 446 267 l 1
 399 267 l 1x9480
 310 466 l 1
 203 0 l 1
 91 0 l 1x4480
 241 650 l 1
 353 650 l 1x9480
 472 382 l 1
 534 650 l 1xac80
EndSplineSet
Validated: 1
Ligature2: "'dlig' Discretionary Ligatures in Latin lookup 7 subtable" N E
EndChar

StartChar: T_E.dlig
Encoding: 65570 -1 154
Width: 876
GlyphClass: 3
Flags: HMW
LayerCount: 2
Fore
SplineSet
192 0 m 1xe9
 316 534 l 1xe9
 169 534 l 1
 195 649 l 1xf1
 944 649 l 1
 917 534 l 1
 427 534 l 1
 304 0 l 1
 192 0 l 1xe9
487 0 m 1
 600 489 l 1xe9
 712 489 l 1
 687 382 l 1xec
 836 382 l 1
 809 267 l 1xea
 660 267 l 1
 625 115 l 1xec
 821 115 l 1
 794 0 l 1
 487 0 l 1
EndSplineSet
Validated: 1
Ligature2: "'dlig' Discretionary Ligatures in Latin lookup 7 subtable" T E
EndChar

StartChar: T_T.liga
Encoding: 65571 -1 155
Width: 872
GlyphClass: 3
Flags: HMW
LayerCount: 2
Fore
SplineSet
169 534 m 1xd0
 195 649 l 1
 977 649 l 1
 950 534 l 1xc8
 804 534 l 1
 681 0 l 1
 569 0 l 1
 692 534 l 1
 427 534 l 1
 304 0 l 1
 192 0 l 1
 316 534 l 1xb0
 169 534 l 1xd0
EndSplineSet
Validated: 1
Ligature2: "'liga' Standard Ligatures in Latin lookup 8 subtable" T T
EndChar

StartChar: V_T_F.dlig
Encoding: 65572 -1 156
Width: 1518
GlyphClass: 3
Flags: HMW
LayerCount: 2
Fore
SplineSet
789 449 m 1xf4
 809 534 l 1
 169 534 l 1
 195 649 l 1
 1587 649 l 1
 1560 534 l 1
 920 534 l 1
 901 449 l 1
 1438 449 l 1
 1410 329 l 1
 1075 329 l 1
 1041 184 l 1xf8
 1237 184 l 1
 1209 64 l 1xf4
 1014 64 l 1
 953 -200 l 1xf8
 841 -200 l 1
 963 329 l 1
 873 329 l 1
 797 0 l 1
 685 0 l 1
 761 329 l 1
 681 329 l 1
 404 -200 l 1
 291 -200 l 1
 242 449 l 1
 355 449 l 1
 390 -21 l 1
 637 449 l 1
 789 449 l 1xf4
EndSplineSet
Validated: 1
Ligature2: "'dlig' Discretionary Ligatures in Latin lookup 7 subtable" V T F
EndChar

StartChar: a
Encoding: 97 97 157
Width: 480
GlyphClass: 2
Flags: W
HStem: 0 105<187 331> 196 100<208 288> 379 115<183 348.171>
VStem: 369.896 102.916<200.547 357.211>
AnchorPoint: "Anchor-7" 236 494 basechar 0
AnchorPoint: "Anchor-6" 413 0 basechar 0
AnchorPoint: "Anchor-5" 266 0 basechar 0
LayerCount: 2
Fore
SplineSet
364 247 m 2
 368.017172445 264.474700134 369.896103025 280.25494445 369.896103025 294.316422517 c 0
 369.896103025 350.261787625 340.1536344 379 297 379 c 2
 157 379 l 1
 183 494 l 1
 324 494 l 2
 412.715872116 494 472.81172254 437.410411655 472.81172254 331.575595001 c 0
 472.81172254 306.184402664 469.352698724 277.958731468 462 247 c 2
 405 0 l 1
 69 0 l 1
 138 296 l 1
 311 296 l 1
 288 196 l 1
 208 196 l 1
 187 105 l 1
 331 105 l 1
 364 247 l 2
EndSplineSet
Validated: 524289
EndChar

StartChar: aacute
Encoding: 225 225 158
Width: 480
GlyphClass: 2
Flags: W
HStem: 0 105<187 331> 196 100<208 288> 379 115<183 348.171>
VStem: 369.896 102.916<200.547 357.211>
AnchorPoint: "Anchor-7" 236 680 basechar 0
AnchorPoint: "Anchor-6" 413 0 basechar 0
AnchorPoint: "Anchor-5" 266 0 basechar 0
LayerCount: 2
Fore
SplineSet
364 247 m 2
 368.017172445 264.474700134 369.896103025 280.25494445 369.896103025 294.316422517 c 0
 369.896103025 350.261787625 340.1536344 379 297 379 c 2
 157 379 l 1
 183 494 l 1
 324 494 l 2
 412.715872116 494 472.81172254 437.410411655 472.81172254 331.575595001 c 0
 472.81172254 306.184402664 469.352698724 277.958731468 462 247 c 2
 405 0 l 1
 69 0 l 1
 138 296 l 1
 311 296 l 1
 288 196 l 1
 208 196 l 1
 187 105 l 1
 331 105 l 1
 364 247 l 2
296 580 m 1
 368 680 l 1
 468 680 l 1
 397 580 l 1
 296 580 l 1
EndSplineSet
Validated: 524289
EndChar

StartChar: abreve
Encoding: 259 259 159
Width: 480
GlyphClass: 2
Flags: W
HStem: 0 105<187 331> 196 100<208 288> 379 115<183 348.171> 563 81<318.143 381.11>
VStem: 273.591 73.4342<612.92 670.622> 369.896 102.916<200.547 357.211>
AnchorPoint: "Anchor-7" 236 671 basechar 0
AnchorPoint: "Anchor-6" 413 0 basechar 0
AnchorPoint: "Anchor-5" 266 0 basechar 0
LayerCount: 2
Fore
SplineSet
364 247 m 2
 368.017172445 264.474700134 369.896103025 280.25494445 369.896103025 294.316422517 c 0
 369.896103025 350.261787625 340.1536344 379 297 379 c 2
 157 379 l 1
 183 494 l 1
 324 494 l 2
 412.715872116 494 472.81172254 437.410411655 472.81172254 331.575595001 c 0
 472.81172254 306.184402664 469.352698724 277.958731468 462 247 c 2
 405 0 l 1
 69 0 l 1
 138 296 l 1
 311 296 l 1
 288 196 l 1
 208 196 l 1
 187 105 l 1
 331 105 l 1
 364 247 l 2
278 671 m 1
 348 671 l 1
 347.346989949 667.734949747 347.025641552 664.612040202 347.025641552 661.724090678 c 0
 347.025641552 651.34448243 351.176700169 644 359 644 c 0
 369 644 380 656 383 671 c 1
 451 671 l 1
 436 606 391 563 339 563 c 0
 297.286993226 563 273.591478374 590.669719736 273.591478374 635.169297248 c 0
 273.591478374 646.143496613 275.032598108 658.141258467 278 671 c 1
EndSplineSet
Validated: 524289
EndChar

StartChar: acircumflex
Encoding: 226 226 160
Width: 480
GlyphClass: 2
Flags: W
HStem: 0 105<187 331> 196 100<208 288> 379 115<183 348.171>
VStem: 369.896 102.916<200.547 357.211>
AnchorPoint: "Anchor-7" 236 670 basechar 0
AnchorPoint: "Anchor-6" 413 0 basechar 0
AnchorPoint: "Anchor-5" 266 0 basechar 0
LayerCount: 2
Fore
SplineSet
364 247 m 2
 368.017172445 264.474700134 369.896103025 280.25494445 369.896103025 294.316422517 c 0
 369.896103025 350.261787625 340.1536344 379 297 379 c 2
 157 379 l 1
 183 494 l 1
 324 494 l 2
 412.715872116 494 472.81172254 437.410411655 472.81172254 331.575595001 c 0
 472.81172254 306.184402664 469.352698724 277.958731468 462 247 c 2
 405 0 l 1
 69 0 l 1
 138 296 l 1
 311 296 l 1
 288 196 l 1
 208 196 l 1
 187 105 l 1
 331 105 l 1
 364 247 l 2
230 566 m 1
 357 670 l 1
 373 670 l 1
 450 566 l 1
 350 566 l 1
 344 576 l 1
 332 566 l 1
 230 566 l 1
EndSplineSet
Validated: 524289
EndChar

StartChar: adieresis
Encoding: 228 228 161
Width: 482
GlyphClass: 2
Flags: W
HStem: 0 105<187 334> 196 100<208 288> 379 115<183 349.387> 581 120<254.947 320.053 398.119 461.881>
VStem: 232.099 110.801<603.592 678.408> 371.793 103.012<200.547 357.092> 375.028 109.944<604.158 677.842>
AnchorPoint: "Anchor-7" 236 701 basechar 0
AnchorPoint: "Anchor-6" 415 0 basechar 0
AnchorPoint: "Anchor-5" 267 0 basechar 0
LayerCount: 2
Fore
SplineSet
366 247 m 2xfc
 369.949199018 264.179015726 371.792914696 279.7204333 371.792914696 293.601155575 c 0
 371.792914696 350.01682613 341.337162653 379 298 379 c 2
 157 379 l 1
 183 494 l 1
 325 494 l 2
 414.544821735 494 474.804489709 437.382036064 474.804489709 331.495992921 c 0
 474.804489709 306.125414394 471.345015983 277.926383085 464 247 c 2
 407 0 l 1
 69 0 l 1
 138 296 l 1
 311 296 l 1
 288 196 l 1
 208 196 l 1
 187 105 l 1
 334 105 l 1
 366 247 l 2xfc
234 641 m 0
 242 675 271 701 301 701 c 0
 326.175751802 701 342.900590553 682.689688391 342.900590553 656.706969645 c 0
 342.900590553 651.728088177 342.286466186 646.467481292 341 641 c 0
 333 607 304 581 274 581 c 0
 248.824248198 581 232.099409447 599.310311609 232.099409447 625.293030355 c 0
 232.099409447 630.271911823 232.713533814 635.532518708 234 641 c 0
377 641 m 0
 385 675 414 701 444 701 c 0
 469 701 484.972222222 682.944444444 484.972222222 657.25 c 0
 484.972222222 652.111111111 484.333333333 646.666666667 483 641 c 0
 475 607 446 581 416 581 c 0
 391 581 375.027777778 599.055555556 375.027777778 624.75 c 0xfa
 375.027777778 629.888888889 375.666666667 635.333333333 377 641 c 0
EndSplineSet
Validated: 524289
EndChar

StartChar: agrave
Encoding: 224 224 162
Width: 480
GlyphClass: 2
Flags: W
HStem: 0 105<187 331> 196 100<208 288> 379 115<183 348.171> 580 100<291 368>
VStem: 369.896 102.916<200.547 357.211>
AnchorPoint: "Anchor-7" 236 680 basechar 0
AnchorPoint: "Anchor-6" 413 0 basechar 0
AnchorPoint: "Anchor-5" 266 0 basechar 0
LayerCount: 2
Fore
SplineSet
364 247 m 2
 368.017172445 264.474700134 369.896103025 280.25494445 369.896103025 294.316422517 c 0
 369.896103025 350.261787625 340.1536344 379 297 379 c 2
 157 379 l 1
 183 494 l 1
 324 494 l 2
 412.715872116 494 472.81172254 437.410411655 472.81172254 331.575595001 c 0
 472.81172254 306.184402664 469.352698724 277.958731468 462 247 c 2
 405 0 l 1
 69 0 l 1
 138 296 l 1
 311 296 l 1
 288 196 l 1
 208 196 l 1
 187 105 l 1
 331 105 l 1
 364 247 l 2
265 680 m 1
 368 680 l 1
 393 580 l 1
 291 580 l 1
 265 680 l 1
EndSplineSet
Validated: 524289
EndChar

StartChar: amacron
Encoding: 257 257 163
Width: 480
GlyphClass: 2
Flags: W
HStem: 0 105<187 331> 196 100<208 288> 379 115<183 348.171> 600 80<221 493>
VStem: 369.896 102.916<200.547 357.211>
AnchorPoint: "Anchor-7" 236 680 basechar 0
AnchorPoint: "Anchor-6" 413 0 basechar 0
AnchorPoint: "Anchor-5" 266 0 basechar 0
LayerCount: 2
Fore
SplineSet
364 247 m 2
 368.017172445 264.474700134 369.896103025 280.25494445 369.896103025 294.316422517 c 0
 369.896103025 350.261787625 340.1536344 379 297 379 c 2
 157 379 l 1
 183 494 l 1
 324 494 l 2
 412.715872116 494 472.81172254 437.410411655 472.81172254 331.575595001 c 0
 472.81172254 306.184402664 469.352698724 277.958731468 462 247 c 2
 405 0 l 1
 69 0 l 1
 138 296 l 1
 311 296 l 1
 288 196 l 1
 208 196 l 1
 187 105 l 1
 331 105 l 1
 364 247 l 2
202 600 m 1
 221 680 l 1
 512 680 l 1
 493 600 l 1
 202 600 l 1
EndSplineSet
Validated: 524289
EndChar

StartChar: aogonek
Encoding: 261 261 164
Width: 476
GlyphClass: 2
Flags: W
HStem: -200 80<327 412> 0 105<187 330> 196 100<208 288> 379 115<183 348.171>
VStem: 369.896 102.916<200.547 357.211>
AnchorPoint: "Anchor-7" 236 494 basechar 0
AnchorPoint: "Anchor-6" 412 0 basechar 0
AnchorPoint: "Anchor-5" 266 0 basechar 0
LayerCount: 2
Fore
SplineSet
364 247 m 2
 368.017172445 264.474700134 369.896103025 280.25494445 369.896103025 294.316422517 c 0
 369.896103025 350.261787625 340.1536344 379 297 379 c 2
 157 379 l 1
 183 494 l 1
 324 494 l 2
 412.715872116 494 472.81172254 437.410411655 472.81172254 331.575595001 c 0
 472.81172254 306.184402664 469.352698724 277.958731468 462 247 c 2
 405 0 l 1
 327 -120 l 1
 430 -120 l 1
 412 -200 l 1
 203 -200 l 1
 330 0 l 1
 69 0 l 1
 138 296 l 1
 311 296 l 1
 288 196 l 1
 208 196 l 1
 187 105 l 1
 331 105 l 1
 364 247 l 2
EndSplineSet
Validated: 524289
EndChar

StartChar: aring
Encoding: 229 229 165
Width: 482
GlyphClass: 2
Flags: W
HStem: 0 105<187 333> 196 100<208 288> 379 115<183 348.452> 553 51<328.361 381.603> 689 51<338.26 391.536>
VStem: 279.916 47.7082<604.139 679.296> 371.793 102.915<200.547 356.81> 392.376 46.7902<613.768 688.431>
AnchorPoint: "Anchor-7" 236 740 basechar 0
AnchorPoint: "Anchor-6" 414 0 basechar 0
AnchorPoint: "Anchor-5" 267 0 basechar 0
LayerCount: 2
Fore
SplineSet
366 247 m 2xfe
 369.949199018 264.179015726 371.792914696 279.7204333 371.792914696 293.601155575 c 0
 371.792914696 350.01682613 341.337162653 379 298 379 c 2
 157 379 l 1
 183 494 l 1
 324 494 l 2
 413.730410961 494 474.707632031 437.147101805 474.707632031 330.836984701 c 0
 474.707632031 305.637361996 471.281480932 277.658867083 464 247 c 2
 406 0 l 1
 69 0 l 1
 138 296 l 1
 311 296 l 1
 288 196 l 1
 208 196 l 1
 187 105 l 1
 333 105 l 1
 366 247 l 2xfe
283 646 m 0
 295 698 339 740 382 740 c 0
 417.335851285 740 439.165781682 711.637566137 439.165781682 672.670585367 c 0xfd
 439.165781682 664.218864954 438.1388322 655.268272865 436 646 c 0
 424 594 381 553 338 553 c 0
 302.473341106 553 279.916247572 580.98695683 279.916247572 620.041703126 c 0
 279.916247572 628.257208045 280.914416436 636.962471221 283 646 c 0
329 646 m 0
 328.070082272 641.722378452 327.624422854 637.583116422 327.624422854 633.678711134 c 0
 327.624422854 616.589832974 336.161720274 604 350 604 c 0
 367 604 386 623 391 646 c 0
 391.929917728 650.277621548 392.375577146 654.451473457 392.375577146 658.412192207 c 0
 392.375577146 675.747544238 383.838279726 689 370 689 c 0
 353 689 334 669 329 646 c 0
EndSplineSet
Validated: 524289
EndChar

StartChar: atilde
Encoding: 227 227 166
Width: 482
GlyphClass: 2
Flags: W
HStem: 0 105<187 332> 196 100<208 288> 379 115<183 348.387> 576 70<365.362 429.92> 615 70<285.4 343.931>
VStem: 370.793 103.012<200.547 357.092>
AnchorPoint: "Anchor-7" 236 685 basechar 0
AnchorPoint: "Anchor-6" 414 0 basechar 0
AnchorPoint: "Anchor-5" 266 0 basechar 0
LayerCount: 2
Fore
SplineSet
365 247 m 2xe4
 368.949199018 264.179015726 370.792914696 279.7204333 370.792914696 293.601155575 c 0
 370.792914696 350.01682613 340.337162653 379 297 379 c 2
 157 379 l 1
 183 494 l 1
 324 494 l 2
 413.544821735 494 473.804489709 437.382036064 473.804489709 331.495992921 c 0
 473.804489709 306.125414394 470.345015983 277.926383085 463 247 c 2
 406 0 l 1
 69 0 l 1
 138 296 l 1
 311 296 l 1
 288 196 l 1
 208 196 l 1
 187 105 l 1
 332 105 l 1
 365 247 l 2xe4
219 581 m 1
 232 638 279 685 327 685 c 0xec
 366 685 369 646 403 646 c 0
 418 646 431 661 435 680 c 1
 497 680 l 1
 484 622 435 576 387 576 c 0xf4
 343 576 335 615 312 615 c 0xec
 297 615 285 598 281 581 c 1
 219 581 l 1
EndSplineSet
Validated: 524289
EndChar

StartChar: ae
Encoding: 230 230 167
Width: 700
GlyphClass: 1
Flags: W
HStem: 0 115<189 290.46 466.062 571> 197 100<208 279 529 600> 379 115<183 341.185 517.903 619>
VStem: 355 98<187.455 305.594>
CounterMasks: 1 e0
LayerCount: 2
Fore
SplineSet
355 247 m 1
 355 249 l 2
 358.825686625 266.316265778 360.624243312 281.929742408 360.624243312 295.824103229 c 0
 360.624243312 350.935095288 332.328347834 379 290 379 c 2
 157 379 l 1
 183 494 l 1
 315 494 l 2
 374 494 420 468 443 417 c 1
 490 468 548 494 607 494 c 2
 739 494 l 1
 670 197 l 1
 506 197 l 1
 529 297 l 1
 600 297 l 1
 619 379 l 1
 579 379 l 2
 526 379 474 335 453 249 c 2
 453 247 l 2
 453 246 452 246 452 245 c 0
 448.034165586 227.352036859 446.191589923 211.59141483 446.191589923 197.663556646 c 0
 446.191589923 141.35218277 476.311169475 115 518 115 c 2
 598 115 l 1
 571 0 l 1
 493 0 l 2
 433 0 389 26 365 76 c 1
 318 26 261 0 201 0 c 2
 69 0 l 1
 138 297 l 1
 302 297 l 1
 279 197 l 1
 208 197 l 1
 189 115 l 1
 229 115 l 2
 281 115 334 156 355 245 c 2
 355 247 l 1
EndSplineSet
Validated: 524289
EndChar

StartChar: b
Encoding: 98 98 168
Width: 494
GlyphClass: 1
Flags: W
HStem: 0 110<206 320.734> 384 110<294 374.175>
VStem: 397.131 106.495<209.51 363.787>
LayerCount: 2
Fore
SplineSet
265 110 m 2
 316 110 370 157 391 247 c 0
 395.178307672 265.175638371 397.130687831 281.736388155 397.130687831 296.563712165 c 0
 397.130687831 352.709256483 369.136400054 384 328 384 c 2
 269 384 l 1
 206 110 l 1
 265 110 l 2
78 0 m 1
 244 720 l 1
 346 720 l 1
 294 494 l 1
 354 494 l 2
 442.251295284 494 503.626070419 436.969335294 503.626070419 330.338399262 c 0
 503.626070419 305.268469147 500.233493387 277.456814262 493 247 c 0
 456 88 351 0 239 0 c 2
 78 0 l 1
EndSplineSet
Validated: 524289
EndChar

StartChar: c
Encoding: 99 99 169
Width: 386
GlyphClass: 2
Flags: W
HStem: 0 110<223.746 329> 384 110<275.555 418>
VStem: 98.1753 102.405<130.989 284.089>
AnchorPoint: "Anchor-7" 274 494 basechar 0
AnchorPoint: "Anchor-5" 274 0 basechar 0
LayerCount: 2
Fore
SplineSet
355 110 m 1
 329 0 l 1
 244 0 l 2
 155.024283664 0 98.1753350322 56.5431111576 98.1753350322 160.87356106 c 0
 98.1753350322 186.698623427 101.658572112 215.451701778 109 247 c 0
 145 407 250 494 358 494 c 2
 443 494 l 1
 418 384 l 1
 333 384 l 2
 281 384 227 334 207 247 c 0
 202.610883423 228.189500386 200.580666152 211.257383552 200.580666152 196.240169724 c 0
 200.580666152 139.406594243 229.659283114 110 270 110 c 2
 355 110 l 1
EndSplineSet
Validated: 1572865
EndChar

StartChar: cacute
Encoding: 263 263 170
Width: 384
GlyphClass: 2
Flags: W
HStem: 0 110<223.746 329> 384 110<275.555 418>
VStem: 98.1753 102.405<130.989 284.089>
AnchorPoint: "Anchor-7" 274 680 basechar 0
AnchorPoint: "Anchor-5" 274 0 basechar 0
LayerCount: 2
Fore
SplineSet
355 110 m 1
 329 0 l 1
 244 0 l 2
 155.024283664 0 98.1753350322 56.5431111576 98.1753350322 160.87356106 c 0
 98.1753350322 186.698623427 101.658572112 215.451701778 109 247 c 0
 145 407 250 494 358 494 c 2
 443 494 l 1
 418 384 l 1
 333 384 l 2
 281 384 227 334 207 247 c 0
 202.610883423 228.189500386 200.580666152 211.257383552 200.580666152 196.240169724 c 0
 200.580666152 139.406594243 229.659283114 110 270 110 c 2
 355 110 l 1
332 580 m 1
 402 680 l 1
 500 680 l 1
 430 580 l 1
 332 580 l 1
EndSplineSet
Validated: 1572865
EndChar

StartChar: ccaron
Encoding: 269 269 171
Width: 384
GlyphClass: 2
Flags: W
HStem: 0 110<223.746 329> 384 110<275.555 418>
VStem: 98.1753 102.405<130.989 284.089>
AnchorPoint: "Anchor-7" 274 669 basechar 0
AnchorPoint: "Anchor-5" 274 0 basechar 0
LayerCount: 2
Fore
SplineSet
355 110 m 1
 329 0 l 1
 244 0 l 2
 155.024283664 0 98.1753350322 56.5431111576 98.1753350322 160.87356106 c 0
 98.1753350322 186.698623427 101.658572112 215.451701778 109 247 c 0
 145 407 250 494 358 494 c 2
 443 494 l 1
 418 384 l 1
 333 384 l 2
 281 384 227 334 207 247 c 0
 202.610883423 228.189500386 200.580666152 211.257383552 200.580666152 196.240169724 c 0
 200.580666152 139.406594243 229.659283114 110 270 110 c 2
 355 110 l 1
294 679 m 1
 393 679 l 1
 399 669 l 1
 410 679 l 1
 508 679 l 1
 385 575 l 1
 370 575 l 1
 294 679 l 1
EndSplineSet
Validated: 1572865
EndChar

StartChar: ccedilla
Encoding: 231 231 172
Width: 389
GlyphClass: 2
Flags: W
HStem: 0 110<224.565 332> 384 110<276.482 421>
VStem: 98.1831 102.517<131.773 284.089> 210 75.742<-164.993 -125.007>
AnchorPoint: "Anchor-7" 275 494 basechar 0
AnchorPoint: "Anchor-5" 254 -244 basechar 0
LayerCount: 2
Fore
SplineSet
358 110 m 1
 332 0 l 1
 245 0 l 2
 155.197839449 0 98.1831334594 56.5744314006 98.1831334594 160.960245813 c 0
 98.1831334594 186.762960746 101.666785182 215.486995782 109 247 c 0
 145 407 251 494 360 494 c 2
 446 494 l 1
 421 384 l 1
 335 384 l 2
 282 384 227 334 207 247 c 0
 202.693909342 228.545325752 200.700364991 211.898642252 200.700364991 197.094436201 c 0
 200.700364991 139.701293942 230.662700677 110 272 110 c 2
 358 110 l 1
170 -244 m 1
 189 -165 l 1
 198 -165 207 -156 210 -145 c 0
 213 -134 207 -125 198 -125 c 1
 216 -46 l 1
 260.287991356 -46 285.741986486 -72.9057088935 285.741986486 -115.132128597 c 0
 285.741986486 -124.39205077 284.517928167 -134.388731296 282 -145 c 0
 268 -204 224 -244 170 -244 c 1
EndSplineSet
Validated: 1572865
EndChar

StartChar: cdotaccent
Encoding: 267 267 173
Width: 389
GlyphClass: 2
Flags: W
HStem: 0 110<222.05 334> 384 110<279.438 422> 581 120<362.291 426.881>
VStem: 98.1909 102.509<131.809 284.089> 339.099 110.873<603.592 677.27>
AnchorPoint: "Anchor-7" 277 494 basechar 0
AnchorPoint: "Anchor-5" 277 0 basechar 0
LayerCount: 2
Fore
SplineSet
359 110 m 1
 334 0 l 1
 246 0 l 2
 155.371066077 0 98.1909057882 56.6056169181 98.1909057882 161.046555686 c 0
 98.1909057882 186.827010572 101.674960665 215.522128263 109 247 c 0
 145 407 250 494 360 494 c 2
 448 494 l 1
 422 384 l 1
 336 384 l 2
 283 384 227 334 207 247 c 0
 202.693909342 228.545325752 200.700364991 211.898642252 200.700364991 197.094436201 c 0
 200.700364991 139.701293942 230.662700677 110 272 110 c 2
 359 110 l 1
341 641 m 0
 349 675 379 701 409 701 c 0
 434 701 449.972222222 682.944444444 449.972222222 657.25 c 0
 449.972222222 652.111111111 449.333333333 646.666666667 448 641 c 0
 440 607 411 581 381 581 c 0
 355.824248198 581 339.099409447 599.310311609 339.099409447 625.293030355 c 0
 339.099409447 630.271911823 339.713533814 635.532518708 341 641 c 0
EndSplineSet
Validated: 1572865
EndChar

StartChar: d
Encoding: 100 100 174
Width: 494
GlyphClass: 1
Flags: W
HStem: 0 110<221.162 333> 384 110<277.469 397>
VStem: 98.4608 102.409<129.709 284.49>
LayerCount: 2
Fore
SplineSet
333 384 m 2
 282 384 228 337 207 247 c 0
 202.821692328 228.824361629 200.869312169 212.263611845 200.869312169 197.436287835 c 0
 200.869312169 141.290743517 228.863599946 110 270 110 c 2
 333 110 l 1
 397 384 l 1
 333 384 l 2
109 247 m 0
 146 406 247 494 358 494 c 2
 422 494 l 1
 474 720 l 1
 577 720 l 1
 410 0 l 1
 245 0 l 2
 157.097403198 0 98.4607767356 56.5808759897 98.4607767356 162.399963938 c 0
 98.4607767356 187.797483986 101.838496162 216.031334755 109 247 c 0
EndSplineSet
Validated: 524289
EndChar

StartChar: eth
Encoding: 240 240 175
Width: 522
GlyphClass: 1
Flags: W
HStem: -5 111<229.699 346.909> 360 112<276.611 398.332> 580 70<248 386 488 570>
VStem: 97.9134 102.215<134.886 276.029> 424.94 102.41<190.187 324.425>
LayerCount: 2
Fore
SplineSet
527 317 m 1
 526 317 l 1
 526.9 309.2 527.35 301.22 527.35 293.06 c 0
 527.35 274.02 524.9 254 520 233 c 0
 490 102 371 -5 257 -5 c 0
 161.221695767 -5 97.9134010636 70.5280656433 97.9134010636 172.361549439 c 0
 97.9134010636 191.735235114 100.204816903 212.061033811 105 233 c 0
 135 364 253 472 367 472 c 0
 383 472 396 470 410 466 c 1
 395 580 l 1
 232 580 l 1
 248 650 l 1
 386 650 l 1
 372 755 l 1
 465 755 l 1
 479 650 l 1
 587 650 l 1
 570 580 l 1
 488 580 l 1
 527 317 l 1
204 233 m 0
 201.380912966 221.541494227 200.128390235 210.431328375 200.128390235 199.86249587 c 0
 200.128390235 145.866341457 232.821576377 106 283 106 c 0
 344 106 405 163 421 233 c 0
 423.66185355 244.811975126 424.939827349 256.208786328 424.939827349 267.001644736 c 0
 424.939827349 321.083029527 392.851683342 360 342 360 c 0
 282 360 220 304 204 233 c 0
EndSplineSet
Validated: 524289
EndChar

StartChar: dcaron
Encoding: 271 271 176
Width: 628
GlyphClass: 1
Flags: W
HStem: 0 110<221.162 333> 384 110<277.469 397>
VStem: 98.4608 102.409<129.709 284.49>
LayerCount: 2
Fore
SplineSet
333 384 m 2
 282 384 228 337 207 247 c 0
 202.821692328 228.824361629 200.869312169 212.263611845 200.869312169 197.436287835 c 0
 200.869312169 141.290743517 228.863599946 110 270 110 c 2
 333 110 l 1
 397 384 l 1
 333 384 l 2
109 247 m 0
 146 406 247 494 358 494 c 2
 422 494 l 1
 473 713 l 1
 575 713 l 1
 410 0 l 1
 245 0 l 2
 157.097403198 0 98.4607767356 56.5808759897 98.4607767356 162.399963938 c 0
 98.4607767356 187.797483986 101.838496162 216.031334755 109 247 c 0
625 577 m 1
 676 800 l 1
 765 800 l 1
 714 577 l 1
 625 577 l 1
EndSplineSet
Validated: 524289
EndChar

StartChar: dcroat
Encoding: 273 273 177
Width: 496
GlyphClass: 1
Flags: W
HStem: 0 110<221.162 333> 384 110<277.469 397> 566 70<292 439 557 588>
VStem: 98.4608 102.409<129.709 284.49>
LayerCount: 2
Fore
SplineSet
604 636 m 1
 588 566 l 1
 541 566 l 1
 410 0 l 1
 245 0 l 2
 157.097403198 0 98.4607767356 56.5808759897 98.4607767356 162.399963938 c 0
 98.4607767356 187.797483986 101.838496162 216.031334755 109 247 c 0
 146 406 247 494 358 494 c 2
 422 494 l 1
 439 566 l 1
 276 566 l 1
 292 636 l 1
 455 636 l 1
 474 720 l 1
 577 720 l 1
 557 636 l 1
 604 636 l 1
207 247 m 0
 202.821692328 228.824361629 200.869312169 212.263611845 200.869312169 197.436287835 c 0
 200.869312169 141.290743517 228.863599946 110 270 110 c 2
 333 110 l 1
 397 384 l 1
 333 384 l 2
 282 384 228 337 207 247 c 0
EndSplineSet
Validated: 524289
EndChar

StartChar: e
Encoding: 101 101 178
Width: 475
GlyphClass: 2
Flags: W
HStem: 0 115<222.344 348> 197 100<283 376> 379 115<275.427 395>
VStem: 98.2921 102.524<136.125 285.463>
CounterMasks: 1 e0
AnchorPoint: "Anchor-7" 315 494 basechar 0
AnchorPoint: "Anchor-6" 348 0 basechar 0
AnchorPoint: "Anchor-5" 315 0 basechar 0
LayerCount: 2
Fore
SplineSet
109 247 m 0
 145 407 251 494 361 494 c 2
 515 494 l 1
 446 197 l 1
 259 197 l 1
 283 297 l 1
 376 297 l 1
 395 379 l 1
 334 379 l 2
 281 379 227 333 207 247 c 0
 202.773954261 228.888375404 200.815776787 212.720637892 200.815776787 198.447888919 c 0
 200.815776787 141.796718243 231.665734484 115 274 115 c 2
 375 115 l 1
 348 0 l 1
 247 0 l 2
 156.170683959 0 98.2921234417 56.8562056083 98.2921234417 161.740019223 c 0
 98.2921234417 187.341289665 101.740572509 215.804081862 109 247 c 0
EndSplineSet
Validated: 524289
EndChar

StartChar: eacute
Encoding: 233 233 179
Width: 475
GlyphClass: 2
Flags: W
HStem: 0 115<222.344 348> 197 100<283 376> 379 115<275.427 395>
VStem: 98.2921 102.524<136.125 285.463>
CounterMasks: 1 e0
AnchorPoint: "Anchor-7" 315 680 basechar 0
AnchorPoint: "Anchor-6" 348 0 basechar 0
AnchorPoint: "Anchor-5" 315 0 basechar 0
LayerCount: 2
Fore
SplineSet
109 247 m 0
 145 407 251 494 361 494 c 2
 515 494 l 1
 446 197 l 1
 259 197 l 1
 283 297 l 1
 376 297 l 1
 395 379 l 1
 334 379 l 2
 281 379 227 333 207 247 c 0
 202.773954261 228.888375404 200.815776787 212.720637892 200.815776787 198.447888919 c 0
 200.815776787 141.796718243 231.665734484 115 274 115 c 2
 375 115 l 1
 348 0 l 1
 247 0 l 2
 156.170683959 0 98.2921234417 56.8562056083 98.2921234417 161.740019223 c 0
 98.2921234417 187.341289665 101.740572509 215.804081862 109 247 c 0
366 580 m 1
 438 680 l 1
 540 680 l 1
 468 580 l 1
 366 580 l 1
EndSplineSet
Validated: 524289
EndChar

StartChar: ecaron
Encoding: 283 283 180
Width: 475
GlyphClass: 2
Flags: W
HStem: 0 115<222.344 348> 197 100<283 376> 379 115<275.427 395>
VStem: 98.2921 102.524<136.125 285.463>
CounterMasks: 1 e0
AnchorPoint: "Anchor-7" 315 669 basechar 0
AnchorPoint: "Anchor-6" 348 0 basechar 0
AnchorPoint: "Anchor-5" 315 0 basechar 0
LayerCount: 2
Fore
SplineSet
109 247 m 0
 145 407 251 494 361 494 c 2
 515 494 l 1
 446 197 l 1
 259 197 l 1
 283 297 l 1
 376 297 l 1
 395 379 l 1
 334 379 l 2
 281 379 227 333 207 247 c 0
 202.773954261 228.888375404 200.815776787 212.720637892 200.815776787 198.447888919 c 0
 200.815776787 141.796718243 231.665734484 115 274 115 c 2
 375 115 l 1
 348 0 l 1
 247 0 l 2
 156.170683959 0 98.2921234417 56.8562056083 98.2921234417 161.740019223 c 0
 98.2921234417 187.341289665 101.740572509 215.804081862 109 247 c 0
328 679 m 1
 429 679 l 1
 435 669 l 1
 446 679 l 1
 549 679 l 1
 422 575 l 1
 406 575 l 1
 328 679 l 1
EndSplineSet
Validated: 524289
EndChar

StartChar: ecircumflex
Encoding: 234 234 181
Width: 475
GlyphClass: 2
Flags: W
HStem: 0 115<222.344 348> 197 100<283 376> 379 115<275.427 395>
VStem: 98.2921 102.524<136.125 285.463>
CounterMasks: 1 e0
AnchorPoint: "Anchor-7" 315 670 basechar 0
AnchorPoint: "Anchor-6" 348 0 basechar 0
AnchorPoint: "Anchor-5" 315 0 basechar 0
LayerCount: 2
Fore
SplineSet
109 247 m 0
 145 407 251 494 361 494 c 2
 515 494 l 1
 446 197 l 1
 259 197 l 1
 283 297 l 1
 376 297 l 1
 395 379 l 1
 334 379 l 2
 281 379 227 333 207 247 c 0
 202.773954261 228.888375404 200.815776787 212.720637892 200.815776787 198.447888919 c 0
 200.815776787 141.796718243 231.665734484 115 274 115 c 2
 375 115 l 1
 348 0 l 1
 247 0 l 2
 156.170683959 0 98.2921234417 56.8562056083 98.2921234417 161.740019223 c 0
 98.2921234417 187.341289665 101.740572509 215.804081862 109 247 c 0
302 566 m 1
 427 670 l 1
 443 670 l 1
 523 566 l 1
 420 566 l 1
 414 576 l 1
 402 566 l 1
 302 566 l 1
EndSplineSet
Validated: 524289
EndChar

StartChar: edieresis
Encoding: 235 235 182
Width: 477
GlyphClass: 2
Flags: W
HStem: 0 115<223.128 351> 197 100<285 378> 379 115<275.823 397> 581 120<327.291 391.881 470.119 534.709>
VStem: 98.2997 102.62<136.882 285.463> 304.099 110.873<603.592 677.27> 447.028 110.873<604.73 678.408>
AnchorPoint: "Anchor-7" 318 701 basechar 0
AnchorPoint: "Anchor-6" 351 0 basechar 0
AnchorPoint: "Anchor-5" 318 0 basechar 0
LayerCount: 2
Fore
SplineSet
109 247 m 0
 145 407 251 494 362 494 c 2
 517 494 l 1
 449 197 l 1
 262 197 l 1
 285 297 l 1
 378 297 l 1
 397 379 l 1
 336 379 l 2
 282 379 227 333 207 247 c 0
 202.842821503 229.183520726 200.919388095 213.248089949 200.919388095 199.147160915 c 0
 200.919388095 142.017203445 232.491926683 115 275 115 c 2
 377 115 l 1
 351 0 l 1
 248 0 l 2
 156.342445945 0 98.2996637579 56.8865370077 98.2996637579 161.823947716 c 0
 98.2996637579 187.403491602 101.748504386 215.838167498 109 247 c 0
306 641 m 0
 314 675 344 701 374 701 c 0
 399 701 414.972222222 682.944444444 414.972222222 657.25 c 0
 414.972222222 652.111111111 414.333333333 646.666666667 413 641 c 0
 405 607 376 581 346 581 c 0
 320.824248198 581 304.099409447 599.310311609 304.099409447 625.293030355 c 0
 304.099409447 630.271911823 304.713533814 635.532518708 306 641 c 0
449 641 m 0
 457 675 486 701 516 701 c 0
 541.175751802 701 557.900590553 682.689688391 557.900590553 656.706969645 c 0
 557.900590553 651.728088177 557.286466186 646.467481292 556 641 c 0
 548 607 518 581 488 581 c 0
 463 581 447.027777778 599.055555556 447.027777778 624.75 c 0
 447.027777778 629.888888889 447.666666667 635.333333333 449 641 c 0
EndSplineSet
Validated: 524289
EndChar

StartChar: edotaccent
Encoding: 279 279 183
Width: 475
GlyphClass: 2
Flags: W
HStem: 0 115<222.344 348> 197 100<283 376> 379 115<275.427 395> 581 120<396.291 460.881>
VStem: 98.2921 102.524<136.125 285.463> 373.099 110.873<603.592 677.27>
AnchorPoint: "Anchor-7" 315 494 basechar 0
AnchorPoint: "Anchor-6" 348 0 basechar 0
AnchorPoint: "Anchor-5" 315 0 basechar 0
LayerCount: 2
Fore
SplineSet
109 247 m 0
 145 407 251 494 361 494 c 2
 515 494 l 1
 446 197 l 1
 259 197 l 1
 283 297 l 1
 376 297 l 1
 395 379 l 1
 334 379 l 2
 281 379 227 333 207 247 c 0
 202.773954261 228.888375404 200.815776787 212.720637892 200.815776787 198.447888919 c 0
 200.815776787 141.796718243 231.665734484 115 274 115 c 2
 375 115 l 1
 348 0 l 1
 247 0 l 2
 156.170683959 0 98.2921234417 56.8562056083 98.2921234417 161.740019223 c 0
 98.2921234417 187.341289665 101.740572509 215.804081862 109 247 c 0
375 641 m 0
 383 675 413 701 443 701 c 0
 468 701 483.972222222 682.944444444 483.972222222 657.25 c 0
 483.972222222 652.111111111 483.333333333 646.666666667 482 641 c 0
 474 607 445 581 415 581 c 0
 389.824248198 581 373.099409447 599.310311609 373.099409447 625.293030355 c 0
 373.099409447 630.271911823 373.713533814 635.532518708 375 641 c 0
EndSplineSet
Validated: 524289
EndChar

StartChar: egrave
Encoding: 232 232 184
Width: 475
GlyphClass: 2
Flags: W
HStem: 0 115<222.344 348> 197 100<283 376> 379 115<275.427 395> 580 100<361 438>
VStem: 98.2921 102.524<136.125 285.463>
AnchorPoint: "Anchor-7" 315 680 basechar 0
AnchorPoint: "Anchor-6" 348 0 basechar 0
AnchorPoint: "Anchor-5" 315 0 basechar 0
LayerCount: 2
Fore
SplineSet
109 247 m 0
 145 407 251 494 361 494 c 2
 515 494 l 1
 446 197 l 1
 259 197 l 1
 283 297 l 1
 376 297 l 1
 395 379 l 1
 334 379 l 2
 281 379 227 333 207 247 c 0
 202.773954261 228.888375404 200.815776787 212.720637892 200.815776787 198.447888919 c 0
 200.815776787 141.796718243 231.665734484 115 274 115 c 2
 375 115 l 1
 348 0 l 1
 247 0 l 2
 156.170683959 0 98.2921234417 56.8562056083 98.2921234417 161.740019223 c 0
 98.2921234417 187.341289665 101.740572509 215.804081862 109 247 c 0
337 680 m 1
 438 680 l 1
 464 580 l 1
 361 580 l 1
 337 680 l 1
EndSplineSet
Validated: 524289
EndChar

StartChar: emacron
Encoding: 275 275 185
Width: 474
GlyphClass: 2
Flags: W
HStem: 0 115<222.344 348> 197 100<283 376> 379 115<275.427 395> 600 80<293 565>
VStem: 98.2921 102.524<136.125 285.463>
AnchorPoint: "Anchor-7" 315 680 basechar 0
AnchorPoint: "Anchor-6" 348 0 basechar 0
AnchorPoint: "Anchor-5" 315 0 basechar 0
LayerCount: 2
Fore
SplineSet
109 247 m 0
 145 407 251 494 361 494 c 2
 515 494 l 1
 446 197 l 1
 259 197 l 1
 283 297 l 1
 376 297 l 1
 395 379 l 1
 334 379 l 2
 281 379 227 333 207 247 c 0
 202.773954261 228.888375404 200.815776787 212.720637892 200.815776787 198.447888919 c 0
 200.815776787 141.796718243 231.665734484 115 274 115 c 2
 375 115 l 1
 348 0 l 1
 247 0 l 2
 156.170683959 0 98.2921234417 56.8562056083 98.2921234417 161.740019223 c 0
 98.2921234417 187.341289665 101.740572509 215.804081862 109 247 c 0
275 600 m 1
 293 680 l 1
 583 680 l 1
 565 600 l 1
 275 600 l 1
EndSplineSet
Validated: 524289
EndChar

StartChar: eogonek
Encoding: 281 281 186
Width: 475
GlyphClass: 2
Flags: W
HStem: -200 80<270 356> 0 115<221.412 273 347 348> 197 100<283 376> 379 115<275.427 395>
VStem: 98.1909 102.625<135.828 285.463>
AnchorPoint: "Anchor-7" 315 494 basechar 0
AnchorPoint: "Anchor-6" 348 0 basechar 0
AnchorPoint: "Anchor-5" 315 0 basechar 0
LayerCount: 2
Fore
SplineSet
109 247 m 0
 145 407 251 494 361 494 c 2
 515 494 l 1
 446 197 l 1
 259 197 l 1
 283 297 l 1
 376 297 l 1
 395 379 l 1
 334 379 l 2
 281 379 227 333 207 247 c 0
 202.773954261 228.888375404 200.815776787 212.720637892 200.815776787 198.447888919 c 0
 200.815776787 141.796718243 231.665734484 115 274 115 c 2
 375 115 l 1
 348 0 l 1
 347 0 l 1
 270 -120 l 1
 375 -120 l 1
 356 -200 l 1
 144 -200 l 1
 273 0 l 1
 246 0 l 2
 155.371066077 0 98.1909057882 56.6056169181 98.1909057882 161.046555686 c 0
 98.1909057882 186.827010572 101.674960665 215.522128263 109 247 c 0
EndSplineSet
Validated: 524289
EndChar

StartChar: uni1EBD
Encoding: 7869 7869 187
Width: 477
GlyphClass: 2
Flags: W
HStem: 0 115<223.128 351> 197 100<285 378> 379 115<276.649 397> 576 70<438.543 504.595> 615 70<357.794 416.058>
VStem: 98.2997 102.62<136.882 285.463>
AnchorPoint: "Anchor-7" 318 685 basechar 0
AnchorPoint: "Anchor-6" 351 0 basechar 0
AnchorPoint: "Anchor-5" 318 0 basechar 0
LayerCount: 2
Fore
SplineSet
109 247 m 0xe4
 145 407 252 494 363 494 c 2
 517 494 l 1
 449 197 l 1
 262 197 l 1
 285 297 l 1
 378 297 l 1
 397 379 l 1
 336 379 l 2
 282 379 227 333 207 247 c 0
 202.842821503 229.183520726 200.919388095 213.248089949 200.919388095 199.147160915 c 0
 200.919388095 142.017203445 232.491926683 115 275 115 c 2
 377 115 l 1
 351 0 l 1
 248 0 l 2
 156.342445945 0 98.2996637579 56.8865370077 98.2996637579 161.823947716 c 0
 98.2996637579 187.403491602 101.748504386 215.838167498 109 247 c 0xe4
291 581 m 1
 304 638 352 685 400 685 c 0xec
 439 685 443 646 477 646 c 0
 492 646 505 661 509 680 c 1
 571 680 l 1
 558 622 508 576 460 576 c 0xf4
 416 576 407 615 384 615 c 0xec
 369 615 357 598 353 581 c 1
 291 581 l 1
EndSplineSet
Validated: 524289
EndChar

StartChar: f
Encoding: 102 102 188
Width: 340
GlyphClass: 1
Flags: W
HStem: 384 110<294 371> 600 110<319 421>
LayerCount: 2
Fore
SplineSet
421 600 m 1
 319 600 l 1
 294 494 l 1
 397 494 l 1
 371 384 l 1
 269 384 l 1
 159 -90 l 1
 178 -10 l 1
 76 -10 l 1
 101 100 l 1
 203 100 l 1
 292 484 l 1
 292 484 237 -200 32 -200 c 1
 242 710 l 1
 446 710 l 1
 421 600 l 1
EndSplineSet
Validated: 5
EndChar

StartChar: g
Encoding: 103 103 189
Width: 539
GlyphClass: 2
Flags: W
HStem: -175 100<134 339.536> 0 100<86 146 244 383> 150 105<253.659 373.818> 435 105<278.165 405>
VStem: 126.43 100.161<274.83 385.736> 424.46 101.178<304.264 416.22>
AnchorPoint: "Anchor-7" 277 540 basechar 0
AnchorPoint: "Anchor-5" 276 -175 basechar 0
LayerCount: 2
Fore
SplineSet
229 345 m 0
 227.372394383 337.811408525 226.591029058 330.917161499 226.591029058 324.369657935 c 0
 226.591029058 282.643770234 258.324225276 255 305 255 c 0
 359 255 410 292 422 345 c 0
 423.661334016 352.33755857 424.460158434 359.368447061 424.460158434 366.03694094 c 0
 424.460158434 407.53571854 393.523996929 435 347 435 c 0
 293 435 241 398 229 345 c 0
132 345 m 0
 155 443 244 540 370 540 c 0
 426 540 465 521 491 491 c 1
 521 620 l 1
 610 620 l 1
 564 420 l 1
 524 420 l 1
 525.076696831 411.386425355 525.638159855 402.644042258 525.638159855 393.77285071 c 0
 525.638159855 377.926244371 523.846606339 361.668627468 520 345 c 0
 497 247 408 150 283 150 c 0
 273 150 264 151 256 152 c 1
 244 100 l 1
 497 100 l 1
 479 22 l 2
 453.293324658 -88.7364476257 372.84307417 -175.033799204 252.147277176 -175.033799204 c 0
 250.770084173 -175.033799204 249.387651268 -175.022563435 248 -175 c 2
 111 -175 l 1
 134 -75 l 1
 270 -75 l 2
 331 -75 366 -43 383 0 c 1
 63 0 l 1
 86 100 l 1
 146 100 l 1
 167 191 l 1
 138.962467617 217.59971021 126.429929753 255.569749734 126.429929753 296.364305687 c 0
 126.429929753 312.314675086 128.345844128 328.696843032 132 345 c 0
EndSplineSet
Validated: 1572865
EndChar

StartChar: gbreve
Encoding: 287 287 190
Width: 539
GlyphClass: 2
Flags: W
HStem: -175 100<134 339.536> 0 100<86 146 244 383> 150 105<253.659 373.818> 435 105<278.165 405> 581 81<359.435 435.923>
VStem: 126.43 100.161<274.83 385.736> 424.46 101.178<304.264 416.22>
AnchorPoint: "Anchor-7" 281 682 basechar 0
AnchorPoint: "Anchor-5" 276 -175 basechar 0
LayerCount: 2
Fore
SplineSet
229 345 m 0
 227.372394383 337.811408525 226.591029058 330.917161499 226.591029058 324.369657935 c 0
 226.591029058 282.643770234 258.324225276 255 305 255 c 0
 359 255 410 292 422 345 c 0
 423.661334016 352.33755857 424.460158434 359.368447061 424.460158434 366.03694094 c 0
 424.460158434 407.53571854 393.523996929 435 347 435 c 0
 293 435 241 398 229 345 c 0
132 345 m 0
 155 443 244 540 370 540 c 0
 426 540 465 521 491 491 c 1
 521 620 l 1
 610 620 l 1
 564 420 l 1
 524 420 l 1
 525.076696831 411.386425355 525.638159855 402.644042258 525.638159855 393.77285071 c 0
 525.638159855 377.926244371 523.846606339 361.668627468 520 345 c 0
 497 247 408 150 283 150 c 0
 273 150 264 151 256 152 c 1
 244 100 l 1
 497 100 l 1
 479 22 l 2
 453.293324658 -88.7364476257 372.84307417 -175.033799204 252.147277176 -175.033799204 c 0
 250.770084173 -175.033799204 249.387651268 -175.022563435 248 -175 c 2
 111 -175 l 1
 134 -75 l 1
 270 -75 l 2
 331 -75 366 -43 383 0 c 1
 63 0 l 1
 86 100 l 1
 146 100 l 1
 167 191 l 1
 138.962467617 217.59971021 126.429929753 255.569749734 126.429929753 296.364305687 c 0
 126.429929753 312.314675086 128.345844128 328.696843032 132 345 c 0
322 682 m 1
 392 682 l 1
 389 671 396 662 405 662 c 0
 414 662 423 671 426 682 c 1
 494 682 l 1
 480 621 436 581 385 581 c 0
 343.2388072 581 318.240371264 607.820410981 318.240371264 651.029372784 c 0
 318.240371264 660.588469176 319.463856847 670.949661976 322 682 c 1
EndSplineSet
Validated: 1572865
EndChar

StartChar: uni0123
Encoding: 291 291 191
Width: 542
GlyphClass: 2
Flags: W
HStem: -175 100<134 345.875> 0 100<86 146 244 386> 150 105<253.781 375.642> 435 105<278.858 407.474>
VStem: 126.43 100.164<274.835 385.736> 427.406 101.232<304.264 415.953>
AnchorPoint: "Anchor-7" 306 812 basechar 0
AnchorPoint: "Anchor-5" 278 -175 basechar 0
LayerCount: 2
Fore
SplineSet
229 345 m 0
 227.374984723 337.822849191 226.593518292 330.939106677 226.593518292 324.400921688 c 0
 226.593518292 282.657579137 258.447986688 255 306 255 c 0
 361 255 413 292 425 345 c 0
 426.625015277 352.177150809 427.406481708 359.060893323 427.406481708 365.599078312 c 0
 427.406481708 407.342420863 395.552013312 435 348 435 c 0
 293 435 241 398 229 345 c 0
132 345 m 0
 155 443 245 540 372 540 c 0
 429 540 468 521 494 491 c 1
 524 620 l 1
 613 620 l 1
 567 420 l 1
 527 420 l 1
 528.076696831 411.386425355 528.638159855 402.644042258 528.638159855 393.77285071 c 0
 528.638159855 377.926244371 526.846606339 361.668627468 523 345 c 0
 500 247 410 150 283 150 c 0
 273 150 265 151 256 152 c 1
 244 100 l 1
 500 100 l 1
 482 22 l 2
 456.293324658 -88.7364476257 374.865510329 -175.033799204 253.181120893 -175.033799204 c 0
 251.792647608 -175.033799204 250.398932986 -175.022563435 249 -175 c 2
 111 -175 l 1
 134 -75 l 1
 272 -75 l 2
 334 -75 369 -43 386 0 c 1
 63 0 l 1
 86 100 l 1
 146 100 l 1
 167 191 l 1
 138.962467617 217.59971021 126.429929753 255.569749734 126.429929753 296.364305687 c 0
 126.429929753 312.314675086 128.345844128 328.696843032 132 345 c 0
342 598 m 1
 366 702 l 1
 441 812 l 1
 528 812 l 1
 455 702 l 1
 431 598 l 1
 342 598 l 1
EndSplineSet
Validated: 1572865
EndChar

StartChar: gdotaccent
Encoding: 289 289 192
Width: 543
GlyphClass: 2
Flags: W
HStem: -175 100<134 345.955> 0 100<86 146 244 387> 150 105<254.036 375.927> 435 105<278.858 407.535> 601 120<369.119 433.709>
VStem: 126.43 100.213<275.472 385.736> 346.028 110.873<624.73 698.408> 427.406 101.232<304.264 415.953>
AnchorPoint: "Anchor-7" 279 540 basechar 0
AnchorPoint: "Anchor-5" 278 -175 basechar 0
LayerCount: 2
Fore
SplineSet
229 345 m 0xfd
 227.407371863 337.965892396 226.642617518 331.213614167 226.642617518 324.792258217 c 0
 226.642617518 282.830523588 259.299545627 255 307 255 c 0
 362 255 413 292 425 345 c 0
 426.625015277 352.177150809 427.406481708 359.060893323 427.406481708 365.599078312 c 0
 427.406481708 407.342420863 395.552013312 435 348 435 c 0
 293 435 241 398 229 345 c 0xfd
132 345 m 0
 155 443 245 540 372 540 c 0
 429 540 469 521 495 491 c 1
 524 620 l 1
 613 620 l 1
 567 420 l 1
 527 420 l 1
 528.076696831 411.386425355 528.638159855 402.644042258 528.638159855 393.77285071 c 0
 528.638159855 377.926244371 526.846606339 361.668627468 523 345 c 0
 500 247 410 150 283 150 c 0
 273 150 265 151 256 152 c 1
 244 100 l 1
 500 100 l 1
 482 22 l 2
 456.293324658 -88.7364476257 374.865510329 -175.033799204 253.181120893 -175.033799204 c 0
 251.792647608 -175.033799204 250.398932986 -175.022563435 249 -175 c 2
 111 -175 l 1
 134 -75 l 1
 272 -75 l 2
 334 -75 370 -43 387 0 c 1
 63 0 l 1
 86 100 l 1
 146 100 l 1
 167 191 l 1
 138.962467617 217.59971021 126.429929753 255.569749734 126.429929753 296.364305687 c 0
 126.429929753 312.314675086 128.345844128 328.696843032 132 345 c 0
348 661 m 0
 356 695 385 721 415 721 c 0
 440.175751802 721 456.900590553 702.689688391 456.900590553 676.706969645 c 0
 456.900590553 671.728088177 456.286466186 666.467481292 455 661 c 0
 447 627 417 601 387 601 c 0
 362 601 346.027777778 619.055555556 346.027777778 644.75 c 0xfe
 346.027777778 649.888888889 346.666666667 655.333333333 348 661 c 0
EndSplineSet
Validated: 1572865
EndChar

StartChar: h
Encoding: 104 104 193
Width: 478
GlyphClass: 1
Flags: W
HStem: 0 21G<78 184.635 300 406.625> 384 110<294 373.572> 690 20G<237.38 344>
VStem: 377.713 106.137<304.521 380.052>
LayerCount: 2
Fore
SplineSet
78 0 m 1
 242 710 l 1
 344 710 l 1
 294 494 l 1
 367 494 l 2
 437.888346883 494 483.850316167 443.435062587 483.850316167 373.558066839 c 0
 483.850316167 360.633475288 482.277913279 347.048199769 479 333 c 2
 402 0 l 1
 300 0 l 1
 376 329 l 2
 377.157107035 334.124331157 377.713076781 339.057391358 377.713076781 343.722395777 c 0
 377.713076781 367.278662108 363.536872863 384 341 384 c 2
 269 384 l 1
 180 0 l 1
 78 0 l 1
EndSplineSet
Validated: 524289
EndChar

StartChar: hbar
Encoding: 295 295 194
Width: 475
GlyphClass: 1
Flags: W
HStem: 0 21G<77 184.583 300 406.625> 384 110<294 370.305> 567 70<182 208 327 479> 690 20G<236.342 344>
VStem: 376.713 107.137<304.521 380.052>
LayerCount: 2
Fore
SplineSet
496 637 m 1
 479 567 l 1
 311 567 l 1
 294 494 l 1
 367 494 l 2
 437.888346883 494 483.850316167 443.435062587 483.850316167 373.558066839 c 0
 483.850316167 360.633475288 482.277913279 347.048199769 479 333 c 2
 402 0 l 1
 300 0 l 1
 375 329 l 2
 376.157107035 334.124331157 376.713076781 339.057391358 376.713076781 343.722395777 c 0
 376.713076781 367.278662108 362.536872863 384 340 384 c 2
 268 384 l 1
 180 0 l 1
 77 0 l 1
 208 567 l 1
 165 567 l 1
 182 637 l 1
 224 637 l 1
 241 710 l 1
 344 710 l 1
 327 637 l 1
 496 637 l 1
EndSplineSet
Validated: 524289
EndChar

StartChar: i
Encoding: 105 105 195
Width: 265
GlyphClass: 2
Flags: W
HStem: 0 21G<78 184.615> 581 120<244.947 310.053>
VStem: 222.099 110.801<603.592 678.408>
AnchorPoint: "Anchor-7" 145 520 basechar 0
AnchorPoint: "Anchor-6" 160 0 basechar 0
AnchorPoint: "Anchor-5" 145 0 basechar 0
LayerCount: 2
Fore
SplineSet
78 0 m 1
 198 520 l 1
 300 520 l 1
 180 0 l 1
 78 0 l 1
224 641 m 0
 232 675 261 701 291 701 c 0
 316.175751802 701 332.900590553 682.689688391 332.900590553 656.706969645 c 0
 332.900590553 651.728088177 332.286466186 646.467481292 331 641 c 0
 323 607 294 581 264 581 c 0
 238.824248198 581 222.099409447 599.310311609 222.099409447 625.293030355 c 0
 222.099409447 630.271911823 222.713533814 635.532518708 224 641 c 0
EndSplineSet
Validated: 524289
Substitution2: "Single Substitution lookup 14 subtable" dotlessi
Substitution2: "'locl' Localized Forms in Latin lookup 3 subtable" i.loclTRK
Substitution2: "'aalt' Access All Alternates in Latin lookup 0 subtable" i.loclTRK
EndChar

StartChar: dotlessi
Encoding: 305 305 196
Width: 265
GlyphClass: 2
Flags: W
HStem: 0 21G<78 184.615> 474 20G<187.385 294>
VStem: 78 216
AnchorPoint: "Anchor-7" 144 494 basechar 0
AnchorPoint: "Anchor-6" 159 0 basechar 0
AnchorPoint: "Anchor-5" 144 0 basechar 0
LayerCount: 2
Fore
SplineSet
78 0 m 1
 192 494 l 1
 294 494 l 1
 180 0 l 1
 78 0 l 1
EndSplineSet
Validated: 1
EndChar

StartChar: iacute
Encoding: 237 237 197
Width: 262
GlyphClass: 2
Flags: W
HStem: 0 21G<78 184.615>
VStem: 78 309
AnchorPoint: "Anchor-7" 145 680 basechar 0
AnchorPoint: "Anchor-6" 160 0 basechar 0
AnchorPoint: "Anchor-5" 145 0 basechar 0
LayerCount: 2
Fore
SplineSet
78 0 m 1
 198 520 l 1
 300 520 l 1
 180 0 l 1
 78 0 l 1
214 580 m 1
 287 680 l 1
 387 680 l 1
 317 580 l 1
 214 580 l 1
EndSplineSet
Validated: 1
EndChar

StartChar: icircumflex
Encoding: 238 238 198
Width: 257
GlyphClass: 2
Flags: W
HStem: 0 21G<77 184.615>
VStem: 77 293
AnchorPoint: "Anchor-7" 145 671 basechar 0
AnchorPoint: "Anchor-6" 160 0 basechar 0
AnchorPoint: "Anchor-5" 145 0 basechar 0
LayerCount: 2
Fore
SplineSet
77 0 m 1
 197 520 l 1
 300 520 l 1
 180 0 l 1
 77 0 l 1
152 572 m 1
 276 671 l 1
 292 671 l 1
 370 572 l 1
 152 572 l 1
EndSplineSet
Validated: 1
EndChar

StartChar: idieresis
Encoding: 239 239 199
Width: 261
GlyphClass: 2
Flags: W
HStem: 0 21G<80 186.615> 581 120<176.119 240.709 318.291 382.881>
VStem: 153.028 110.873<604.73 678.408> 295.099 110.873<603.592 677.27>
AnchorPoint: "Anchor-7" 148 701 basechar 0
AnchorPoint: "Anchor-6" 163 0 basechar 0
AnchorPoint: "Anchor-5" 148 0 basechar 0
LayerCount: 2
Fore
SplineSet
80 0 m 1
 200 520 l 1
 302 520 l 1
 182 0 l 1
 80 0 l 1
155 641 m 0
 163 675 192 701 222 701 c 0
 247.175751802 701 263.900590553 682.689688391 263.900590553 656.706969645 c 0
 263.900590553 651.728088177 263.286466186 646.467481292 262 641 c 0
 254 607 224 581 194 581 c 0
 169 581 153.027777778 599.055555556 153.027777778 624.75 c 0
 153.027777778 629.888888889 153.666666667 635.333333333 155 641 c 0
297 641 m 0
 305 675 335 701 365 701 c 0
 390 701 405.972222222 682.944444444 405.972222222 657.25 c 0
 405.972222222 652.111111111 405.333333333 646.666666667 404 641 c 0
 396 607 367 581 337 581 c 0
 311.824248198 581 295.099409447 599.310311609 295.099409447 625.293030355 c 0
 295.099409447 630.271911823 295.713533814 635.532518708 297 641 c 0
EndSplineSet
Validated: 524289
EndChar

StartChar: i.loclTRK
Encoding: 65573 -1 200
Width: 265
GlyphClass: 2
Flags: W
HStem: 0 21G<78 184.615> 581 120<244.947 310.053>
VStem: 222.099 110.801<603.592 678.408>
AnchorPoint: "Anchor-7" 145 520 basechar 0
AnchorPoint: "Anchor-6" 160 0 basechar 0
AnchorPoint: "Anchor-5" 145 0 basechar 0
LayerCount: 2
Fore
SplineSet
78 0 m 1
 198 520 l 1
 300 520 l 1
 180 0 l 1
 78 0 l 1
224 641 m 0
 232 675 261 701 291 701 c 0
 316.175751802 701 332.900590553 682.689688391 332.900590553 656.706969645 c 0
 332.900590553 651.728088177 332.286466186 646.467481292 331 641 c 0
 323 607 294 581 264 581 c 0
 238.824248198 581 222.099409447 599.310311609 222.099409447 625.293030355 c 0
 222.099409447 630.271911823 222.713533814 635.532518708 224 641 c 0
EndSplineSet
Validated: 524289
EndChar

StartChar: igrave
Encoding: 236 236 201
Width: 262
GlyphClass: 2
Flags: W
HStem: 0 21G<77 184.615> 580 100<209 286>
VStem: 77 235
AnchorPoint: "Anchor-7" 145 680 basechar 0
AnchorPoint: "Anchor-6" 160 0 basechar 0
AnchorPoint: "Anchor-5" 145 0 basechar 0
LayerCount: 2
Fore
SplineSet
77 0 m 1
 197 520 l 1
 300 520 l 1
 180 0 l 1
 77 0 l 1
186 680 m 1
 286 680 l 1
 312 580 l 1
 209 580 l 1
 186 680 l 1
EndSplineSet
Validated: 1
EndChar

StartChar: imacron
Encoding: 299 299 202
Width: 257
GlyphClass: 2
Flags: W
HStem: 0 21G<77 183.615> 591 80<166 383>
VStem: 77 324
AnchorPoint: "Anchor-7" 145 671 basechar 0
AnchorPoint: "Anchor-6" 160 0 basechar 0
AnchorPoint: "Anchor-5" 145 0 basechar 0
LayerCount: 2
Fore
SplineSet
77 0 m 1
 197 520 l 1
 299 520 l 1
 179 0 l 1
 77 0 l 1
148 591 m 1
 166 671 l 1
 401 671 l 1
 383 591 l 1
 148 591 l 1
EndSplineSet
Validated: 1
EndChar

StartChar: iogonek
Encoding: 303 303 203
Width: 258
GlyphClass: 2
Flags: W
HStem: -200 80<102 186> 581 120<244.291 308.881>
VStem: 221.099 110.873<603.592 677.27>
AnchorPoint: "Anchor-7" 145 520 basechar 0
AnchorPoint: "Anchor-6" 160 0 basechar 0
AnchorPoint: "Anchor-5" 145 0 basechar 0
LayerCount: 2
Fore
SplineSet
77 0 m 1
 197 520 l 1
 300 520 l 1
 180 0 l 1
 102 -120 l 1
 205 -120 l 1
 186 -200 l 1
 -23 -200 l 1
 105 0 l 1
 77 0 l 1
223 641 m 0
 231 675 261 701 291 701 c 0
 316 701 331.972222222 682.944444444 331.972222222 657.25 c 0
 331.972222222 652.111111111 331.333333333 646.666666667 330 641 c 0
 322 607 293 581 263 581 c 0
 237.824248198 581 221.099409447 599.310311609 221.099409447 625.293030355 c 0
 221.099409447 630.271911823 221.713533814 635.532518708 223 641 c 0
EndSplineSet
Validated: 524289
EndChar

StartChar: itilde
Encoding: 297 297 204
Width: 261
GlyphClass: 2
Flags: W
HStem: 0 21G<79 186.615> 576 70<286.316 350.92> 615 70<206.216 264.025>
AnchorPoint: "Anchor-7" 147 685 basechar 0
AnchorPoint: "Anchor-6" 162 0 basechar 0
AnchorPoint: "Anchor-5" 147 0 basechar 0
LayerCount: 2
Fore
SplineSet
79 0 m 1x80
 200 520 l 1
 302 520 l 1
 182 0 l 1
 79 0 l 1x80
139 581 m 1
 152 638 200 685 248 685 c 0xa0
 287 685 290 646 324 646 c 0
 339 646 352 661 356 680 c 1
 418 680 l 1
 405 622 356 576 308 576 c 0xc0
 264 576 255 615 232 615 c 0xa0
 217 615 206 598 202 581 c 1
 139 581 l 1
EndSplineSet
Validated: 1
EndChar

StartChar: j
Encoding: 106 106 205
Width: 258
GlyphClass: 2
Flags: W
HStem: -200 110<-34 55> 581 120<244.291 308.881>
VStem: 221.099 110.873<603.592 677.27>
AnchorPoint: "Anchor-7" 145 520 basechar 0
AnchorPoint: "Anchor-5" 145 -200 basechar 0
LayerCount: 2
Fore
SplineSet
-60 -200 m 1
 -34 -90 l 1
 55 -90 l 1
 195 520 l 1
 298 520 l 1
 132 -200 l 1
 -60 -200 l 1
223 641 m 0
 231 675 261 701 291 701 c 0
 316 701 331.972222222 682.944444444 331.972222222 657.25 c 0
 331.972222222 652.111111111 331.333333333 646.666666667 330 641 c 0
 322 607 293 581 263 581 c 0
 237.824248198 581 221.099409447 599.310311609 221.099409447 625.293030355 c 0
 221.099409447 630.271911823 221.713533814 635.532518708 223 641 c 0
EndSplineSet
Validated: 1572865
Substitution2: "Single Substitution lookup 16 subtable" uni006A0301
Substitution2: "Single Substitution lookup 14 subtable" uni0237
Substitution2: "'aalt' Access All Alternates in Latin lookup 0 subtable" uni006A0301
EndChar

StartChar: uni0237
Encoding: 567 567 206
Width: 258
GlyphClass: 2
Flags: W
HStem: -200 110<-34 55> 474 20G<184.411 292>
AnchorPoint: "Anchor-7" 145 494 basechar 0
AnchorPoint: "Anchor-5" 145 -200 basechar 0
LayerCount: 2
Fore
SplineSet
-60 -200 m 1
 -34 -90 l 1
 55 -90 l 1
 189 494 l 1
 292 494 l 1
 132 -200 l 1
 -60 -200 l 1
EndSplineSet
Validated: 1048577
EndChar

StartChar: uni006A0301
Encoding: 65574 -1 207
Width: 269
GlyphClass: 2
Flags: HMW
AnchorPoint: "Anchor-7" 145 680 basechar 0
AnchorPoint: "Anchor-5" 145 -200 basechar 0
LayerCount: 2
Fore
SplineSet
-60 -200 m 1
 -34 -90 l 1
 59 -90 l 1
 199 520 l 1
 306 520 l 1
 140 -200 l 1
 -60 -200 l 1
218 580 m 1
 292 680 l 1
 399 680 l 1
 325 580 l 1
 218 580 l 1
EndSplineSet
Validated: 1048577
EndChar

StartChar: k
Encoding: 107 107 208
Width: 494
GlyphClass: 2
Flags: W
HStem: 0 21G<78 184.6 333.5 437> 690 20G<237.38 344>
AnchorPoint: "Anchor-7" 276 710 basechar 0
AnchorPoint: "Anchor-5" 276 0 basechar 0
LayerCount: 2
Fore
SplineSet
428 520 m 1
 527 520 l 1
 384 297 l 1
 437 0 l 1
 337 0 l 1
 302 200 l 1
 226 200 l 1
 180 0 l 1
 78 0 l 1
 242 710 l 1
 344 710 l 1
 252 310 l 1
 293 310 l 1
 428 520 l 1
EndSplineSet
Validated: 1048577
Substitution2: "'ss02' Style Set 2 in Latin lookup 10 subtable" k.ss02
Substitution2: "'aalt' Access All Alternates in Latin lookup 0 subtable" k.ss02
EndChar

StartChar: uni0137
Encoding: 311 311 209
Width: 494
GlyphClass: 2
Flags: W
HStem: 0 21G<78 184.6 333.5 437> 690 20G<237.38 344>
AnchorPoint: "Anchor-7" 276 710 basechar 0
AnchorPoint: "Anchor-5" 237 -210 basechar 0
LayerCount: 2
Fore
SplineSet
428 520 m 1
 527 520 l 1
 384 297 l 1
 437 0 l 1
 337 0 l 1
 302 200 l 1
 226 200 l 1
 180 0 l 1
 78 0 l 1
 242 710 l 1
 344 710 l 1
 252 310 l 1
 293 310 l 1
 428 520 l 1
96 -210 m 1
 195 -56 l 1
 266 -56 l 1
 169 -210 l 1
 96 -210 l 1
EndSplineSet
Validated: 1048577
EndChar

StartChar: l
Encoding: 108 108 210
Width: 345
GlyphClass: 2
Flags: W
HStem: 0 110<206 278> 690 20G<237.38 344>
VStem: 78 266
AnchorPoint: "Anchor-7" 147 710 basechar 0
AnchorPoint: "Anchor-5" 201 0 basechar 0
LayerCount: 2
Fore
SplineSet
278 0 m 1
 78 0 l 1
 242 710 l 1
 344 710 l 1
 206 110 l 1
 304 110 l 1
 278 0 l 1
EndSplineSet
Validated: 1048577
EndChar

StartChar: lacute
Encoding: 314 314 211
Width: 345
GlyphClass: 2
Flags: W
HStem: 0 110<206 278> 690 20G<237.38 344>
AnchorPoint: "Anchor-7" 147 870 basechar 0
AnchorPoint: "Anchor-5" 201 0 basechar 0
LayerCount: 2
Fore
SplineSet
278 0 m 1
 78 0 l 1
 242 710 l 1
 344 710 l 1
 206 110 l 1
 304 110 l 1
 278 0 l 1
260 770 m 1
 332 870 l 1
 432 870 l 1
 362 770 l 1
 260 770 l 1
EndSplineSet
Validated: 1048577
EndChar

StartChar: lcaron
Encoding: 318 318 212
Width: 341
GlyphClass: 2
Flags: W
HStem: 0 110<205 278> 690 20G<236.38 343>
AnchorPoint: "Anchor-7" 147 860 basechar 0
AnchorPoint: "Anchor-5" 201 0 basechar 0
LayerCount: 2
Fore
SplineSet
278 0 m 1
 77 0 l 1
 241 710 l 1
 343 710 l 1
 205 110 l 1
 303 110 l 1
 278 0 l 1
222 869 m 1
 322 869 l 1
 329 860 l 1
 340 869 l 1
 440 869 l 1
 319 780 l 1
 303 780 l 1
 222 869 l 1
EndSplineSet
Validated: 1048577
EndChar

StartChar: uni013C
Encoding: 316 316 213
Width: 345
GlyphClass: 2
Flags: W
HStem: 0 110<206 278> 690 20G<237.38 344>
VStem: 27 317
AnchorPoint: "Anchor-7" 147 710 basechar 0
AnchorPoint: "Anchor-5" 162 -210 basechar 0
LayerCount: 2
Fore
SplineSet
278 0 m 1
 78 0 l 1
 242 710 l 1
 344 710 l 1
 206 110 l 1
 304 110 l 1
 278 0 l 1
27 -210 m 1
 126 -56 l 1
 200 -56 l 1
 101 -210 l 1
 27 -210 l 1
EndSplineSet
Validated: 1048577
EndChar

StartChar: ldot
Encoding: 320 320 214
Width: 363
GlyphClass: 2
Flags: W
HStem: 0 110<206 281> 245 170<348.79 418.21> 690 20G<237.38 344>
VStem: 305.407 156.186<289.459 370.541>
AnchorPoint: "Anchor-7" 147 710 basechar 0
AnchorPoint: "Anchor-5" 201 0 basechar 0
LayerCount: 2
Fore
SplineSet
281 0 m 1
 78 0 l 1
 242 710 l 1
 344 710 l 1
 206 110 l 1
 306 110 l 1
 281 0 l 1
308 330 m 0
 319 377 361 415 403 415 c 0
 438.301404623 415 461.593049687 388.154655104 461.593049687 351.683685292 c 0
 461.593049687 344.763159824 460.754394027 337.496047208 459 330 c 0
 448 283 406 245 364 245 c 0
 328.698595377 245 305.406950313 271.845344896 305.406950313 308.316314708 c 0
 305.406950313 315.236840176 306.245605973 322.503952792 308 330 c 0
EndSplineSet
Validated: 1572865
Ligature2: "Ligature Substitution lookup 15 subtable" l periodcentered
EndChar

StartChar: lslash
Encoding: 322 322 215
Width: 340
GlyphClass: 2
Flags: W
HStem: 0 110<205 278> 690 20G<236.385 344>
VStem: 77 276
AnchorPoint: "Anchor-7" 147 710 basechar 0
AnchorPoint: "Anchor-5" 201 0 basechar 0
LayerCount: 2
Fore
SplineSet
87 188 m 1
 107 277 l 1
 148 307 l 1
 241 710 l 1
 344 710 l 1
 271 394 l 1
 353 455 l 1
 333 367 l 1
 250 306 l 1
 205 110 l 1
 303 110 l 1
 278 0 l 1
 77 0 l 1
 128 218 l 1
 87 188 l 1
EndSplineSet
Validated: 1048577
EndChar

StartChar: m
Encoding: 109 109 216
Width: 674
GlyphClass: 1
Flags: W
HStem: 0 21G<69 176.583 283 389.635 496 603.565> 384 110<260 371 474 569.572>
VStem: 573.713 106.137<304.169 380.052>
LayerCount: 2
Fore
SplineSet
283 0 m 1
 371 384 l 1
 260 384 l 1
 172 0 l 1
 69 0 l 1
 183 494 l 1
 563 494 l 2
 633.888346883 494 679.850316167 443.435062587 679.850316167 373.558066839 c 0
 679.850316167 360.633475288 678.277913279 347.048199769 675 333 c 2
 599 0 l 1
 496 0 l 1
 572 329 l 2
 573.157107035 334.124331157 573.713076781 339.057391358 573.713076781 343.722395777 c 0
 573.713076781 367.278662108 559.536872863 384 537 384 c 2
 474 384 l 1
 385 0 l 1
 283 0 l 1
EndSplineSet
Validated: 524289
EndChar

StartChar: n
Encoding: 110 110 217
Width: 478
GlyphClass: 2
Flags: W
HStem: 0 21G<69 176.583 300 406.625> 384 110<260 372.59>
VStem: 377.713 106.073<304.499 379.574>
AnchorPoint: "Anchor-7" 254 494 basechar 0
AnchorPoint: "Anchor-5" 263 0 basechar 0
LayerCount: 2
Fore
SplineSet
69 0 m 1
 183 494 l 1
 366 494 l 2
 437.057894946 494 483.785626803 443.192894724 483.785626803 373.056348383 c 0
 483.785626803 360.282052839 482.235526263 346.866541129 479 333 c 2
 402 0 l 1
 300 0 l 1
 376 329 l 2
 377.157107035 334.124331157 377.713076781 339.057391358 377.713076781 343.722395777 c 0
 377.713076781 367.278662108 363.536872863 384 341 384 c 2
 260 384 l 1
 172 0 l 1
 69 0 l 1
EndSplineSet
Validated: 1572865
EndChar

StartChar: nacute
Encoding: 324 324 218
Width: 478
GlyphClass: 2
Flags: W
HStem: 0 21G<69 176.583 300 406.625> 384 110<260 372.59>
VStem: 377.713 106.073<304.499 379.574>
AnchorPoint: "Anchor-7" 254 680 basechar 0
AnchorPoint: "Anchor-5" 263 0 basechar 0
LayerCount: 2
Fore
SplineSet
69 0 m 1
 183 494 l 1
 366 494 l 2
 437.057894946 494 483.785626803 443.192894724 483.785626803 373.056348383 c 0
 483.785626803 360.282052839 482.235526263 346.866541129 479 333 c 2
 402 0 l 1
 300 0 l 1
 376 329 l 2
 377.157107035 334.124331157 377.713076781 339.057391358 377.713076781 343.722395777 c 0
 377.713076781 367.278662108 363.536872863 384 341 384 c 2
 260 384 l 1
 172 0 l 1
 69 0 l 1
314 580 m 1
 384 680 l 1
 484 680 l 1
 412 580 l 1
 314 580 l 1
EndSplineSet
Validated: 1572865
EndChar

StartChar: ncaron
Encoding: 328 328 219
Width: 478
GlyphClass: 2
Flags: W
HStem: 0 21G<69 176.583 300 406.625> 384 110<260 372.59>
VStem: 377.713 106.073<304.499 379.574>
AnchorPoint: "Anchor-7" 254 669 basechar 0
AnchorPoint: "Anchor-5" 263 0 basechar 0
LayerCount: 2
Fore
SplineSet
69 0 m 1
 183 494 l 1
 366 494 l 2
 437.057894946 494 483.785626803 443.192894724 483.785626803 373.056348383 c 0
 483.785626803 360.282052839 482.235526263 346.866541129 479 333 c 2
 402 0 l 1
 300 0 l 1
 376 329 l 2
 377.157107035 334.124331157 377.713076781 339.057391358 377.713076781 343.722395777 c 0
 377.713076781 367.278662108 363.536872863 384 341 384 c 2
 260 384 l 1
 172 0 l 1
 69 0 l 1
275 679 m 1
 375 679 l 1
 381 669 l 1
 392 679 l 1
 492 679 l 1
 368 575 l 1
 352 575 l 1
 275 679 l 1
EndSplineSet
Validated: 1572865
EndChar

StartChar: uni0146
Encoding: 326 326 220
Width: 478
GlyphClass: 2
Flags: W
HStem: -9 21G<67 173.631 298 404.588> 384 110<260 372.572>
VStem: 377.713 105.137<302.273 378.959>
AnchorPoint: "Anchor-7" 254 494 basechar 0
AnchorPoint: "Anchor-5" 225 -210 basechar 0
LayerCount: 2
Fore
SplineSet
67 -9 m 1
 183 494 l 1
 366 494 l 2
 436.888346883 494 482.850316167 443.435062587 482.850316167 372.356033028 c 0
 482.850316167 359.209110854 481.277913279 345.360381986 478 331 c 2
 400 -9 l 1
 298 -9 l 1
 376 327 l 2
 377.157107035 332.289632162 377.713076781 337.387993368 377.713076781 342.213782038 c 0
 377.713076781 366.581939696 363.536872863 384 341 384 c 2
 260 384 l 1
 169 -9 l 1
 67 -9 l 1
85 -210 m 1
 182 -62 l 1
 254 -62 l 1
 158 -210 l 1
 85 -210 l 1
EndSplineSet
Validated: 1572865
EndChar

StartChar: ntilde
Encoding: 241 241 221
Width: 478
GlyphClass: 2
Flags: W
HStem: 0 21G<69 176.583 300 406.625> 384 110<260 373.572> 576 70<381.612 445.558> 615 70<304.261 361.177>
VStem: 377.713 106.137<304.521 380.052>
AnchorPoint: "Anchor-7" 254 685 basechar 0
AnchorPoint: "Anchor-5" 263 0 basechar 0
LayerCount: 2
Fore
SplineSet
69 0 m 1xc8
 183 494 l 1
 367 494 l 2
 437.888346883 494 483.850316167 443.435062587 483.850316167 373.558066839 c 0
 483.850316167 360.633475288 482.277913279 347.048199769 479 333 c 2
 402 0 l 1
 300 0 l 1
 376 329 l 2
 377.157107035 334.124331157 377.713076781 339.057391358 377.713076781 343.722395777 c 0
 377.713076781 367.278662108 363.536872863 384 341 384 c 2
 260 384 l 1
 172 0 l 1
 69 0 l 1xc8
237 581 m 1
 250 638 297 685 344 685 c 0xd8
 382 685 386 646 419 646 c 0
 434 646 446 661 450 680 c 1
 512 680 l 1
 499 622 451 576 404 576 c 0xe8
 361 576 353 615 330 615 c 0xd8
 315 615 303 598 299 581 c 1
 237 581 l 1
EndSplineSet
Validated: 1572865
EndChar

StartChar: eng
Encoding: 331 331 222
Width: 481
GlyphClass: 2
Flags: W
HStem: -200 110<194 283> -5 21G<68 174.627> 384 110<260 374.668>
VStem: 380.643 106.139<263.656 379.448>
AnchorPoint: "Anchor-7" 256 494 basechar 0
AnchorPoint: "Anchor-5" 266 -5 basechar 0
LayerCount: 2
Fore
SplineSet
168 -200 m 1
 194 -90 l 1
 283 -90 l 1
 379 328 l 2
 380.111236519 332.9211903 380.642851164 337.691174893 380.642851164 342.233942334 c 0
 380.642851164 366.307379933 365.713801997 384 343 384 c 2
 260 384 l 1
 170 -5 l 1
 68 -5 l 1
 183 494 l 1
 368 494 l 2
 439.919235241 494 486.781975822 443.171110833 486.781975822 371.799785166 c 0
 486.781975822 358.818674919 485.231718352 345.15800421 482 331 c 2
 359 -200 l 1
 168 -200 l 1
EndSplineSet
Validated: 1572865
EndChar

StartChar: o
Encoding: 111 111 223
Width: 569
GlyphClass: 2
Flags: W
HStem: -5 115<245.396 377.15> 384 115<301.85 433.604>
VStem: 101.755 105.211<148.597 291.316> 472.034 105.211<202.684 345.403>
AnchorPoint: "Anchor-7" 316 494 basechar 0
AnchorPoint: "Anchor-6" 325 0 basechar 0
AnchorPoint: "Anchor-5" 316 0 basechar 0
LayerCount: 2
Fore
SplineSet
308 110 m 0
 379 110 450 171 468 247 c 0
 470.729750846 258.525614684 472.033589778 269.70625068 472.033589778 280.381469208 c 0
 472.033589778 340.098731289 431.23264944 384 371 384 c 0
 300 384 229 323 211 247 c 0
 208.270249154 235.474385316 206.966410222 224.29374932 206.966410222 213.618530792 c 0
 206.966410222 153.901268711 247.76735056 110 308 110 c 0
109 247 m 0
 141 386 271 499 398 499 c 0
 505.551766472 499 577.244575565 417.958756324 577.244575565 308.716016415 c 0
 577.244575565 288.962009701 574.900342306 268.285861893 570 247 c 0
 538 108 408 -5 281 -5 c 0
 173.448233528 -5 101.755424435 76.0412436762 101.755424435 185.283983585 c 0
 101.755424435 205.037990299 104.099657694 225.714138107 109 247 c 0
EndSplineSet
Validated: 524289
EndChar

StartChar: oacute
Encoding: 243 243 224
Width: 569
GlyphClass: 2
Flags: W
HStem: -5 115<245.396 377.15> 384 115<301.85 433.604>
VStem: 101.755 105.211<148.597 291.316> 472.034 105.211<202.684 345.403>
AnchorPoint: "Anchor-7" 316 680 basechar 0
AnchorPoint: "Anchor-6" 325 0 basechar 0
AnchorPoint: "Anchor-5" 316 0 basechar 0
LayerCount: 2
Fore
SplineSet
308 110 m 0
 379 110 450 171 468 247 c 0
 470.729750846 258.525614684 472.033589778 269.70625068 472.033589778 280.381469208 c 0
 472.033589778 340.098731289 431.23264944 384 371 384 c 0
 300 384 229 323 211 247 c 0
 208.270249154 235.474385316 206.966410222 224.29374932 206.966410222 213.618530792 c 0
 206.966410222 153.901268711 247.76735056 110 308 110 c 0
109 247 m 0
 141 386 271 499 398 499 c 0
 505.551766472 499 577.244575565 417.958756324 577.244575565 308.716016415 c 0
 577.244575565 288.962009701 574.900342306 268.285861893 570 247 c 0
 538 108 408 -5 281 -5 c 0
 173.448233528 -5 101.755424435 76.0412436762 101.755424435 185.283983585 c 0
 101.755424435 205.037990299 104.099657694 225.714138107 109 247 c 0
369 580 m 1
 439 680 l 1
 538 680 l 1
 468 580 l 1
 369 580 l 1
EndSplineSet
Validated: 524289
EndChar

StartChar: ocircumflex
Encoding: 244 244 225
Width: 569
GlyphClass: 2
Flags: W
HStem: -5 115<245.396 377.15> 384 115<301.85 433.604>
VStem: 101.755 105.211<148.597 291.316> 472.034 105.211<202.684 345.403>
AnchorPoint: "Anchor-7" 316 670 basechar 0
AnchorPoint: "Anchor-6" 325 0 basechar 0
AnchorPoint: "Anchor-5" 316 0 basechar 0
LayerCount: 2
Fore
SplineSet
308 110 m 0
 379 110 450 171 468 247 c 0
 470.729750846 258.525614684 472.033589778 269.70625068 472.033589778 280.381469208 c 0
 472.033589778 340.098731289 431.23264944 384 371 384 c 0
 300 384 229 323 211 247 c 0
 208.270249154 235.474385316 206.966410222 224.29374932 206.966410222 213.618530792 c 0
 206.966410222 153.901268711 247.76735056 110 308 110 c 0
109 247 m 0
 141 386 271 499 398 499 c 0
 505.551766472 499 577.244575565 417.958756324 577.244575565 308.716016415 c 0
 577.244575565 288.962009701 574.900342306 268.285861893 570 247 c 0
 538 108 408 -5 281 -5 c 0
 173.448233528 -5 101.755424435 76.0412436762 101.755424435 185.283983585 c 0
 101.755424435 205.037990299 104.099657694 225.714138107 109 247 c 0
306 565 m 1
 429 670 l 1
 445 670 l 1
 520 565 l 1
 421 565 l 1
 415 576 l 1
 404 565 l 1
 306 565 l 1
EndSplineSet
Validated: 524289
EndChar

StartChar: odieresis
Encoding: 246 246 226
Width: 578
GlyphClass: 2
Flags: W
HStem: -5 115<245.986 383.297> 384 115<304.125 441.47> 581 120<332.119 396.709 473.119 537.709>
VStem: 101.947 105.146<150.411 291.316> 309.028 110.873<604.73 678.408> 450.028 110.873<604.73 678.408> 479.907 105.207<202.684 343.791>
AnchorPoint: "Anchor-7" 321 701 basechar 0
AnchorPoint: "Anchor-6" 330 0 basechar 0
AnchorPoint: "Anchor-5" 321 0 basechar 0
LayerCount: 2
Fore
SplineSet
312 110 m 0xfa
 385 110 458 171 476 247 c 0
 478.643469367 258.161315104 479.906606824 268.999114916 479.906606824 279.367698226 c 0
 479.906606824 339.601219078 437.279263124 384 375 384 c 0
 302 384 229 323 211 247 c 0
 208.356530633 235.838684896 207.093393176 225.000885084 207.093393176 214.632301774 c 0
 207.093393176 154.398780922 249.720736876 110 312 110 c 0xfa
109 247 m 0
 141 386 273 499 402 499 c 0
 511.604081998 499 585.113413709 417.425864351 585.113413709 307.639373115 c 0
 585.113413709 288.211175343 582.811390512 267.899477537 578 247 c 0
 546 108 415 -5 286 -5 c 0
 176.235245886 -5 101.947131459 76.8134751983 101.947131459 186.843627146 c 0
 101.947131459 206.125381518 104.228466137 226.273649782 109 247 c 0
311 641 m 0
 319 675 348 701 378 701 c 0
 403.175751802 701 419.900590553 682.689688391 419.900590553 656.706969645 c 0
 419.900590553 651.728088177 419.286466186 646.467481292 418 641 c 0
 410 607 380 581 350 581 c 0
 325 581 309.027777778 599.055555556 309.027777778 624.75 c 0
 309.027777778 629.888888889 309.666666667 635.333333333 311 641 c 0
452 641 m 0
 460 675 489 701 519 701 c 0
 544.175751802 701 560.900590553 682.689688391 560.900590553 656.706969645 c 0
 560.900590553 651.728088177 560.286466186 646.467481292 559 641 c 0
 551 607 521 581 491 581 c 0
 466 581 450.027777778 599.055555556 450.027777778 624.75 c 0xfc
 450.027777778 629.888888889 450.666666667 635.333333333 452 641 c 0
EndSplineSet
Validated: 524289
EndChar

StartChar: ograve
Encoding: 242 242 227
Width: 569
GlyphClass: 2
Flags: W
HStem: -5 115<245.396 377.15> 384 115<301.85 433.604> 580 100<365 439>
VStem: 101.755 105.211<148.597 291.316> 472.034 105.211<202.684 345.403>
AnchorPoint: "Anchor-7" 316 680 basechar 0
AnchorPoint: "Anchor-6" 325 0 basechar 0
AnchorPoint: "Anchor-5" 316 0 basechar 0
LayerCount: 2
Fore
SplineSet
308 110 m 0
 379 110 450 171 468 247 c 0
 470.729750846 258.525614684 472.033589778 269.70625068 472.033589778 280.381469208 c 0
 472.033589778 340.098731289 431.23264944 384 371 384 c 0
 300 384 229 323 211 247 c 0
 208.270249154 235.474385316 206.966410222 224.29374932 206.966410222 213.618530792 c 0
 206.966410222 153.901268711 247.76735056 110 308 110 c 0
109 247 m 0
 141 386 271 499 398 499 c 0
 505.551766472 499 577.244575565 417.958756324 577.244575565 308.716016415 c 0
 577.244575565 288.962009701 574.900342306 268.285861893 570 247 c 0
 538 108 408 -5 281 -5 c 0
 173.448233528 -5 101.755424435 76.0412436762 101.755424435 185.283983585 c 0
 101.755424435 205.037990299 104.099657694 225.714138107 109 247 c 0
341 680 m 1
 439 680 l 1
 463 580 l 1
 365 580 l 1
 341 680 l 1
EndSplineSet
Validated: 524289
EndChar

